<svg xmlns="http://www.w3.org/2000/svg" fill="none" viewBox="0 0 552 320" height="320" width="552">
<rect fill="white" height="320" width="552"></rect>
<g opacity="0.1">
<path stroke-linejoin="round" stroke-linecap="round" stroke="black" d="M296 57.4275L276 46.0017V68.8588L296 57.4275Z"></path>
<path stroke-linejoin="round" stroke-linecap="round" stroke="black" d="M296 80.283L276 68.8572V91.7143L296 80.283Z"></path>
<path stroke-linejoin="round" stroke-linecap="round" stroke="black" d="M256 80.283L236 68.8572V91.7143L256 80.283Z"></path>
<path stroke-linejoin="round" stroke-linecap="round" stroke="black" d="M296 103.142L276 91.7166V114.574L296 103.142Z"></path>
<path stroke-linejoin="round" stroke-linecap="round" stroke="black" d="M256 103.142L236 91.7166V114.574L256 103.142Z"></path>
<path stroke-linejoin="round" stroke-linecap="round" stroke="black" d="M256 125.998L236 114.572V137.429L256 125.998Z"></path>
<path stroke-linejoin="round" stroke-linecap="round" stroke="black" d="M256 148.857L236 137.431V160.289L256 148.857Z"></path>
<path stroke-linejoin="round" stroke-linecap="round" stroke="black" d="M256 171.713L236 160.287V183.144L256 171.713Z"></path>
<path stroke-linejoin="round" stroke-linecap="round" stroke="black" d="M256 194.572L236 183.146V206.003L256 194.572Z"></path>
<path stroke-linejoin="round" stroke-linecap="round" stroke="black" d="M256 217.428L236 206.002V228.859L256 217.428Z"></path>
<path stroke-linejoin="round" stroke-linecap="round" stroke="black" d="M256 240.283L236 228.857V251.714L256 240.283Z"></path>
<path stroke-linejoin="round" stroke-linecap="round" stroke="black" d="M296 125.998L276 114.572V137.429L296 125.998Z"></path>
<path stroke-linejoin="round" stroke-linecap="round" stroke="black" d="M296 148.857L276 137.431V160.289L296 148.857Z"></path>
<path stroke-linejoin="round" stroke-linecap="round" stroke="black" d="M296 171.713L276 160.287V183.144L296 171.713Z"></path>
<path stroke-linejoin="round" stroke-linecap="round" stroke="black" d="M296 194.572L276 183.146V206.003L296 194.572Z"></path>
<path stroke-linejoin="round" stroke-linecap="round" stroke="black" d="M296 217.428L276 206.002V228.859L296 217.428Z"></path>
<path stroke-linejoin="round" stroke-linecap="round" stroke="black" d="M296 240.283L276 228.857V251.714L296 240.283Z"></path>
<path stroke-linejoin="round" stroke-linecap="round" stroke="black" d="M296 263.142L276 251.717V274.574L296 263.142Z"></path>
<path stroke-linejoin="round" stroke-linecap="round" stroke="black" d="M316 68.8572L296 57.4314V80.2885L316 68.8572Z"></path>
<path stroke-linejoin="round" stroke-linecap="round" stroke="black" d="M316 91.7127L296 80.2869V103.144L316 91.7127Z"></path>
<path stroke-linejoin="round" stroke-linecap="round" stroke="black" d="M316 91.7204L336 103.146L336 80.289L316 91.7204Z"></path>
<path stroke-linejoin="round" stroke-linecap="round" stroke="black" d="M316 114.576L336 126.002L336 103.145L316 114.576Z"></path>
<path stroke-linejoin="round" stroke-linecap="round" stroke="black" d="M316 137.431L336 148.857L336 126L316 137.431Z"></path>
<path stroke-linejoin="round" stroke-linecap="round" stroke="black" d="M316 160.291L336 171.717L336 148.859L316 160.291Z"></path>
<path stroke-linejoin="round" stroke-linecap="round" stroke="black" d="M316 183.146L336 194.572L336 171.715L316 183.146Z"></path>
<path stroke-linejoin="round" stroke-linecap="round" stroke="black" d="M316 206.006L336 217.431L336 194.574L316 206.006Z"></path>
<path stroke-linejoin="round" stroke-linecap="round" stroke="black" d="M316 228.861L336 240.287L336 217.43L316 228.861Z"></path>
<path stroke-linejoin="round" stroke-linecap="round" stroke="black" d="M236 91.7127L216 80.2869L216 103.144L236 91.7127Z"></path>
<path stroke-linejoin="round" stroke-linecap="round" stroke="black" d="M236 114.572L216 103.146L216 126.003L236 114.572Z"></path>
<path stroke-linejoin="round" stroke-linecap="round" stroke="black" d="M236 137.427L216 126.002L216 148.859L236 137.427Z"></path>
<path stroke-linejoin="round" stroke-linecap="round" stroke="black" d="M236 160.283L216 148.857L216 171.714L236 160.283Z"></path>
<path stroke-linejoin="round" stroke-linecap="round" stroke="black" d="M236 183.142L216 171.717L216 194.574L236 183.142Z"></path>
<path stroke-linejoin="round" stroke-linecap="round" stroke="black" d="M236 205.998L216 194.572L216 217.429L236 205.998Z"></path>
<path stroke-linejoin="round" stroke-linecap="round" stroke="black" d="M236 228.857L216 217.431L216 240.289L236 228.857Z"></path>
<path stroke-linejoin="round" stroke-linecap="round" stroke="black" d="M316 114.572L296 103.146V126.003L316 114.572Z"></path>
<path stroke-linejoin="round" stroke-linecap="round" stroke="black" d="M316 137.427L296 126.002V148.859L316 137.427Z"></path>
<path stroke-linejoin="round" stroke-linecap="round" stroke="black" d="M316 160.283L296 148.857V171.714L316 160.283Z"></path>
<path stroke-linejoin="round" stroke-linecap="round" stroke="black" d="M316 183.142L296 171.717V194.574L316 183.142Z"></path>
<path stroke-linejoin="round" stroke-linecap="round" stroke="black" d="M316 205.998L296 194.572V217.429L316 205.998Z"></path>
<path stroke-linejoin="round" stroke-linecap="round" stroke="black" d="M316 228.857L296 217.431V240.289L316 228.857Z"></path>
<path stroke-linejoin="round" stroke-linecap="round" stroke="black" d="M316 251.713L296 240.287V263.144L316 251.713Z"></path>
<path stroke-linejoin="round" stroke-linecap="round" stroke="black" d="M276 68.8572L256 57.4314V80.2885L276 68.8572Z"></path>
<path stroke-linejoin="round" stroke-linecap="round" stroke="black" d="M276 91.7127L256 80.2869V103.144L276 91.7127Z"></path>
<path stroke-linejoin="round" stroke-linecap="round" stroke="black" d="M276 114.572L256 103.146V126.003L276 114.572Z"></path>
<path stroke-linejoin="round" stroke-linecap="round" stroke="black" d="M276 137.427L256 126.002V148.859L276 137.427Z"></path>
<path stroke-linejoin="round" stroke-linecap="round" stroke="black" d="M276 160.283L256 148.857V171.714L276 160.283Z"></path>
<path stroke-linejoin="round" stroke-linecap="round" stroke="black" d="M276 183.142L256 171.717V194.574L276 183.142Z"></path>
<path stroke-linejoin="round" stroke-linecap="round" stroke="black" d="M276 205.998L256 194.572V217.429L276 205.998Z"></path>
<path stroke-linejoin="round" stroke-linecap="round" stroke="black" d="M276 228.857L256 217.431V240.289L276 228.857Z"></path>
<path stroke-linejoin="round" stroke-linecap="round" stroke="black" d="M276 251.713L256 240.287V263.144L276 251.713Z"></path>
<path stroke-linejoin="round" stroke-linecap="round" stroke="black" d="M256 57.4314L276 68.8572L276 46L256 57.4314Z"></path>
<path stroke-linejoin="round" stroke-linecap="round" stroke="black" d="M256 80.2907L276 91.7166L276 68.8594L256 80.2907Z"></path>
<path stroke-linejoin="round" stroke-linecap="round" stroke="black" d="M296 80.2907L316 91.7166L316 68.8594L296 80.2907Z"></path>
<path stroke-linejoin="round" stroke-linecap="round" stroke="black" d="M336 103.142L316 91.7166L316 114.574L336 103.142Z"></path>
<path stroke-linejoin="round" stroke-linecap="round" stroke="black" d="M336 125.998L316 114.572L316 137.429L336 125.998Z"></path>
<path stroke-linejoin="round" stroke-linecap="round" stroke="black" d="M336 148.857L316 137.431L316 160.289L336 148.857Z"></path>
<path stroke-linejoin="round" stroke-linecap="round" stroke="black" d="M336 171.713L316 160.287L316 183.144L336 171.713Z"></path>
<path stroke-linejoin="round" stroke-linecap="round" stroke="black" d="M336 194.572L316 183.146L316 206.003L336 194.572Z"></path>
<path stroke-linejoin="round" stroke-linecap="round" stroke="black" d="M336 217.428L316 206.002L316 228.859L336 217.428Z"></path>
<path stroke-linejoin="round" stroke-linecap="round" stroke="black" d="M336 240.283L316 228.857L316 251.714L336 240.283Z"></path>
<path stroke-linejoin="round" stroke-linecap="round" stroke="black" d="M216 80.2907L236 91.7166L236 68.8594L216 80.2907Z"></path>
<path stroke-linejoin="round" stroke-linecap="round" stroke="black" d="M356 91.7127L336 80.2869L336 103.144L356 91.7127Z"></path>
<path stroke-linejoin="round" stroke-linecap="round" stroke="black" d="M356 114.572L336 103.146L336 126.003L356 114.572Z"></path>
<path stroke-linejoin="round" stroke-linecap="round" stroke="black" d="M356 183.146L376 194.572L376 171.715L356 183.146Z"></path>
<path stroke-linejoin="round" stroke-linecap="round" stroke="black" d="M356 206.006L376 217.431L376 194.574L356 206.006Z"></path>
<path stroke-linejoin="round" stroke-linecap="round" stroke="black" d="M196 114.572L176 103.146L176 126.003L196 114.572Z"></path>
<path stroke-linejoin="round" stroke-linecap="round" stroke="black" d="M336 171.72L356 183.146L356 160.289L336 171.72Z"></path>
<path stroke-linejoin="round" stroke-linecap="round" stroke="black" d="M376 125.998L356 114.572L356 137.429L376 125.998Z"></path>
<path stroke-linejoin="round" stroke-linecap="round" stroke="black" d="M176 171.72L196 183.146L196 160.289L176 171.72Z"></path>
<path stroke-linejoin="round" stroke-linecap="round" stroke="black" d="M336 194.576L356 206.002L356 183.145L336 194.576Z"></path>
<path stroke-linejoin="round" stroke-linecap="round" stroke="black" d="M336 217.431L356 228.857L356 206L336 217.431Z"></path>
<path stroke-linejoin="round" stroke-linecap="round" stroke="black" d="M376 103.142L356 91.7166L356 114.574L376 103.142Z"></path>
<path stroke-linejoin="round" stroke-linecap="round" stroke="black" d="M176 194.576L196 206.002L196 183.145L176 194.576Z"></path>
<path stroke-linejoin="round" stroke-linecap="round" stroke="black" d="M176 217.431L196 228.857L196 206L176 217.431Z"></path>
<path stroke-linejoin="round" stroke-linecap="round" stroke="black" d="M216 103.142L196 91.7166L196 114.574L216 103.142Z"></path>
<path stroke-linejoin="round" stroke-linecap="round" stroke="black" d="M356 137.427L336 126.002L336 148.859L356 137.427Z"></path>
<path stroke-linejoin="round" stroke-linecap="round" stroke="black" d="M356 160.291L376 171.717L376 148.859L356 160.291Z"></path>
<path stroke-linejoin="round" stroke-linecap="round" stroke="black" d="M196 137.427L176 126.002L176 148.859L196 137.427Z"></path>
<path stroke-linejoin="round" stroke-linecap="round" stroke="black" d="M336 148.861L356 160.287L356 137.43L336 148.861Z"></path>
<path stroke-linejoin="round" stroke-linecap="round" stroke="black" d="M376 148.857L356 137.431L356 160.289L376 148.857Z"></path>
<path stroke-linejoin="round" stroke-linecap="round" stroke="black" d="M176 148.861L196 160.287L196 137.43L176 148.861Z"></path>
<path stroke-linejoin="round" stroke-linecap="round" stroke="black" d="M216 125.998L196 114.572L196 137.429L216 125.998Z"></path>
<path stroke-linejoin="round" stroke-linecap="round" stroke="black" d="M356 160.283L336 148.857L336 171.714L356 160.283Z"></path>
<path stroke-linejoin="round" stroke-linecap="round" stroke="black" d="M356 137.431L376 148.857L376 126L356 137.431Z"></path>
<path stroke-linejoin="round" stroke-linecap="round" stroke="black" d="M196 160.283L176 148.857L176 171.714L196 160.283Z"></path>
<path stroke-linejoin="round" stroke-linecap="round" stroke="black" d="M336 126.006L356 137.431L356 114.574L336 126.006Z"></path>
<path stroke-linejoin="round" stroke-linecap="round" stroke="black" d="M376 171.713L356 160.287L356 183.144L376 171.713Z"></path>
<path stroke-linejoin="round" stroke-linecap="round" stroke="black" d="M176 126.006L196 137.431L196 114.574L176 126.006Z"></path>
<path stroke-linejoin="round" stroke-linecap="round" stroke="black" d="M216 148.857L196 137.431L196 160.289L216 148.857Z"></path>
<path stroke-linejoin="round" stroke-linecap="round" stroke="black" d="M356 183.142L336 171.717L336 194.574L356 183.142Z"></path>
<path stroke-linejoin="round" stroke-linecap="round" stroke="black" d="M356 114.576L376 126.002L376 103.145L356 114.576Z"></path>
<path stroke-linejoin="round" stroke-linecap="round" stroke="black" d="M196 183.142L176 171.717L176 194.574L196 183.142Z"></path>
<path stroke-linejoin="round" stroke-linecap="round" stroke="black" d="M196 205.998L176 194.572L176 217.429L196 205.998Z"></path>
<path stroke-linejoin="round" stroke-linecap="round" stroke="black" d="M356 205.998L336 194.572L336 217.429L356 205.998Z"></path>
<path stroke-linejoin="round" stroke-linecap="round" stroke="black" d="M356 228.857L336 217.431L336 240.289L356 228.857Z"></path>
<path stroke-linejoin="round" stroke-linecap="round" stroke="black" d="M336 103.146L356 114.572L356 91.7148L336 103.146Z"></path>
<path stroke-linejoin="round" stroke-linecap="round" stroke="black" d="M376 194.572L356 183.146L356 206.003L376 194.572Z"></path>
<path stroke-linejoin="round" stroke-linecap="round" stroke="black" d="M376 217.428L356 206.002L356 228.859L376 217.428Z"></path>
<path stroke-linejoin="round" stroke-linecap="round" stroke="black" d="M176 103.146L196 114.572L196 91.7148L176 103.146Z"></path>
<path stroke-linejoin="round" stroke-linecap="round" stroke="black" d="M216 171.713L196 160.287L196 183.144L216 171.713Z"></path>
<path stroke-linejoin="round" stroke-linecap="round" stroke="black" d="M216 194.572L196 183.146L196 206.003L216 194.572Z"></path>
<path stroke-linejoin="round" stroke-linecap="round" stroke="black" d="M216 217.428L196 206.002L196 228.859L216 217.428Z"></path>
<path stroke-linejoin="round" stroke-linecap="round" stroke="black" d="M196 91.7204L216 103.146L216 80.289L196 91.7204Z"></path>
<path stroke-linejoin="round" stroke-linecap="round" stroke="black" d="M196 114.576L216 126.002L216 103.145L196 114.576Z"></path>
<path stroke-linejoin="round" stroke-linecap="round" stroke="black" d="M196 137.431L216 148.857L216 126L196 137.431Z"></path>
<path stroke-linejoin="round" stroke-linecap="round" stroke="black" d="M196 160.291L216 171.717L216 148.859L196 160.291Z"></path>
<path stroke-linejoin="round" stroke-linecap="round" stroke="black" d="M196 183.146L216 194.572L216 171.715L196 183.146Z"></path>
<path stroke-linejoin="round" stroke-linecap="round" stroke="black" d="M196 206.006L216 217.431L216 194.574L196 206.006Z"></path>
<path stroke-linejoin="round" stroke-linecap="round" stroke="black" d="M196 228.861L216 240.287L216 217.43L196 228.861Z"></path>
<path stroke-linejoin="round" stroke-linecap="round" stroke="black" d="M256 103.146L276 114.572L276 91.7148L256 103.146Z"></path>
<path stroke-linejoin="round" stroke-linecap="round" stroke="black" d="M296 103.146L316 114.572L316 91.7148L296 103.146Z"></path>
<path stroke-linejoin="round" stroke-linecap="round" stroke="black" d="M296 126.006L316 137.431L316 114.574L296 126.006Z"></path>
<path stroke-linejoin="round" stroke-linecap="round" stroke="black" d="M296 148.861L316 160.287L316 137.43L296 148.861Z"></path>
<path stroke-linejoin="round" stroke-linecap="round" stroke="black" d="M296 171.72L316 183.146L316 160.289L296 171.72Z"></path>
<path stroke-linejoin="round" stroke-linecap="round" stroke="black" d="M296 194.576L316 206.002L316 183.145L296 194.576Z"></path>
<path stroke-linejoin="round" stroke-linecap="round" stroke="black" d="M296 217.431L316 228.857L316 206L296 217.431Z"></path>
<path stroke-linejoin="round" stroke-linecap="round" stroke="black" d="M296 240.291L316 251.717L316 228.859L296 240.291Z"></path>
<path stroke-linejoin="round" stroke-linecap="round" stroke="black" d="M336 80.283L316 68.8572L316 91.7143L336 80.283Z"></path>
<path stroke-linejoin="round" stroke-linecap="round" stroke="black" d="M216 103.146L236 114.572L236 91.7148L216 103.146Z"></path>
<path stroke-linejoin="round" stroke-linecap="round" stroke="black" d="M216 126.006L236 137.431L236 114.574L216 126.006Z"></path>
<path stroke-linejoin="round" stroke-linecap="round" stroke="black" d="M216 148.861L236 160.287L236 137.43L216 148.861Z"></path>
<path stroke-linejoin="round" stroke-linecap="round" stroke="black" d="M216 171.72L236 183.146L236 160.289L216 171.72Z"></path>
<path stroke-linejoin="round" stroke-linecap="round" stroke="black" d="M216 194.576L236 206.002L236 183.145L216 194.576Z"></path>
<path stroke-linejoin="round" stroke-linecap="round" stroke="black" d="M216 194.576L236 206.002L236 183.145L216 194.576Z"></path>
<path stroke-linejoin="round" stroke-linecap="round" stroke="black" d="M216 217.431L236 228.857L236 206L216 217.431Z"></path>
<path stroke-linejoin="round" stroke-linecap="round" stroke="black" d="M216 240.291L236 251.717L236 228.859L216 240.291Z"></path>
<path stroke-linejoin="round" stroke-linecap="round" stroke="black" d="M256 126.006L276 137.431L276 114.574L256 126.006Z"></path>
<path stroke-linejoin="round" stroke-linecap="round" stroke="black" d="M256 148.861L276 160.287L276 137.43L256 148.861Z"></path>
<path stroke-linejoin="round" stroke-linecap="round" stroke="black" d="M256 171.72L276 183.146L276 160.289L256 171.72Z"></path>
<path stroke-linejoin="round" stroke-linecap="round" stroke="black" d="M256 194.576L276 206.002L276 183.145L256 194.576Z"></path>
<path stroke-linejoin="round" stroke-linecap="round" stroke="black" d="M256 217.431L276 228.857L276 206L256 217.431Z"></path>
<path stroke-linejoin="round" stroke-linecap="round" stroke="black" d="M256 240.291L276 251.717L276 228.859L256 240.291Z"></path>
<path stroke-linejoin="round" stroke-linecap="round" stroke="black" d="M256 263.146L276 274.572L276 251.715L256 263.146Z"></path>
<path stroke-linejoin="round" stroke-linecap="round" stroke="black" d="M276 68.861L296 80.2869L296 57.4297L276 68.861Z"></path>
<path stroke-linejoin="round" stroke-linecap="round" stroke="black" d="M276 91.7204L296 103.146L296 80.289L276 91.7204Z"></path>
<path stroke-linejoin="round" stroke-linecap="round" stroke="black" d="M276 114.576L296 126.002L296 103.145L276 114.576Z"></path>
<path stroke-linejoin="round" stroke-linecap="round" stroke="black" d="M276 137.431L296 148.857L296 126L276 137.431Z"></path>
<path stroke-linejoin="round" stroke-linecap="round" stroke="black" d="M276 160.291L296 171.717L296 148.859L276 160.291Z"></path>
<path stroke-linejoin="round" stroke-linecap="round" stroke="black" d="M276 183.146L296 194.572L296 171.715L276 183.146Z"></path>
<path stroke-linejoin="round" stroke-linecap="round" stroke="black" d="M276 206.006L296 217.431L296 194.574L276 206.006Z"></path>
<path stroke-linejoin="round" stroke-linecap="round" stroke="black" d="M276 228.861L296 240.287L296 217.43L276 228.861Z"></path>
<path stroke-linejoin="round" stroke-linecap="round" stroke="black" d="M276 251.72L296 263.146L296 240.289L276 251.72Z"></path>
<path stroke-linejoin="round" stroke-linecap="round" stroke="black" d="M236 68.861L256 80.2869L256 57.4297L236 68.861Z"></path>
<path stroke-linejoin="round" stroke-linecap="round" stroke="black" d="M236 91.7204L256 103.146L256 80.289L236 91.7204Z"></path>
<path stroke-linejoin="round" stroke-linecap="round" stroke="black" d="M236 114.576L256 126.002L256 103.145L236 114.576Z"></path>
<path stroke-linejoin="round" stroke-linecap="round" stroke="black" d="M236 137.431L256 148.857L256 126L236 137.431Z"></path>
<path stroke-linejoin="round" stroke-linecap="round" stroke="black" d="M236 160.291L256 171.717L256 148.859L236 160.291Z"></path>
<path stroke-linejoin="round" stroke-linecap="round" stroke="black" d="M236 183.146L256 194.572L256 171.715L236 183.146Z"></path>
<path stroke-linejoin="round" stroke-linecap="round" stroke="black" d="M236 206.006L256 217.431L256 194.574L236 206.006Z"></path>
<path stroke-linejoin="round" stroke-linecap="round" stroke="black" d="M236 228.861L256 240.287L256 217.43L236 228.861Z"></path>
<path stroke-linejoin="round" stroke-linecap="round" stroke="black" d="M236 251.72L256 263.146L256 240.289L236 251.72Z"></path>
</g>
<path fill="url(#paint0_linear_871_7293)" d="M257.202 57.2367C257.202 56.6844 256.754 56.2367 256.202 56.2367C255.649 56.2367 255.202 56.6844 255.202 57.2367V80.213C255.202 80.7653 255.649 81.213 256.202 81.213C256.754 81.213 257.202 80.7653 257.202 80.213V57.2367ZM251.563 59.0199C252.115 59.0199 252.563 59.4676 252.563 60.0199V82.9962C252.563 83.5485 252.115 83.9962 251.563 83.9962C251.011 83.9962 250.563 83.5485 250.563 82.9962V60.0199C250.563 59.4676 251.011 59.0199 251.563 59.0199ZM247.924 62.5012C247.924 62.1448 247.735 61.8153 247.426 61.6363C247.118 61.4574 246.738 61.4561 246.428 61.6329L235.504 67.8741C235.192 68.0521 235 68.3835 235 68.7424V91.7187C235 92.0775 235.192 92.4087 235.504 92.5868C235.815 92.7649 236.198 92.7625 236.507 92.5805L247.432 86.1506C247.737 85.9709 247.924 85.643 247.924 85.2888V62.5012ZM237 89.9698V69.3228L245.924 64.2242V84.717L237 89.9698ZM247.426 92.2823C247.735 92.4613 247.924 92.7908 247.924 93.1472V115.935C247.924 116.289 247.737 116.617 247.432 116.797L236.507 123.227C236.198 123.408 235.815 123.411 235.504 123.233C235.192 123.055 235 122.723 235 122.365V99.3884C235 99.0295 235.192 98.6981 235.504 98.5201L246.428 92.2789C246.738 92.1021 247.118 92.1034 247.426 92.2823ZM237 99.9688V120.616L245.924 115.363V94.8702L237 99.9688ZM247.924 123.793C247.924 123.437 247.735 123.107 247.426 122.928C247.118 122.749 246.738 122.748 246.428 122.925L235.504 129.166C235.192 129.344 235 129.675 235 130.034V153.011C235 153.369 235.192 153.701 235.504 153.879C235.815 154.057 236.198 154.054 236.507 153.872L247.432 147.442C247.737 147.263 247.924 146.935 247.924 146.581V123.793ZM237 151.262V130.615L245.924 125.516V146.009L237 151.262ZM297 126.654C297 126.298 296.81 125.968 296.502 125.789C296.194 125.61 295.813 125.609 295.504 125.786L235.504 160.072C235.192 160.25 235 160.581 235 160.94V206.654C235 207.011 235.19 207.34 235.498 207.519C235.806 207.698 236.187 207.699 236.496 207.523L255 196.949V217.429C255 217.785 255.19 218.115 255.498 218.294C255.806 218.472 256.187 218.474 256.496 218.297L275 207.723V229.527C275 229.884 275.19 230.213 275.498 230.392C275.806 230.571 276.187 230.573 276.496 230.396L336.496 196.11C336.808 195.932 337 195.601 337 195.242V149.527C337 149.171 336.81 148.841 336.502 148.663C336.194 148.484 335.813 148.482 335.504 148.659L317 159.233V137.429C317 137.072 316.81 136.743 316.502 136.564C316.194 136.385 315.813 136.383 315.504 136.56L297 147.134V126.654ZM296.871 149.511H297V149.437L315 139.152V160.286H315.157L275.725 182.819C275.649 182.84 275.575 182.871 275.504 182.912L265.504 188.626C265.024 188.9 264.858 189.511 265.132 189.991C265.406 190.47 266.017 190.637 266.496 190.363L275 185.503V195.42L265.504 200.846C265.024 201.12 264.858 201.731 265.132 202.21C265.406 202.69 266.017 202.857 266.496 202.583L275 197.723V205.42L257 215.705V195.806L257.121 195.737L257 195.525V185.244C257 185.231 257 185.219 257 185.206V172.314L266.496 166.887L286.496 155.459C286.55 155.428 286.6 155.393 286.646 155.354L296.871 149.511ZM245.504 190.072L255 184.645V173.457L246.496 178.316C246.017 178.59 245.406 178.423 245.132 177.944C244.858 177.464 245.024 176.853 245.504 176.579L255.355 170.95C255.401 170.912 255.45 170.877 255.504 170.846L295 148.277V128.377L237 161.52V204.931L255 194.645V186.949L246.496 191.808C246.017 192.082 245.406 191.916 245.132 191.436C244.858 190.957 245.024 190.346 245.504 190.072ZM277 206.58L277.121 206.511L277 206.299V196.018C277 196.005 277 195.993 277 195.98V184.394L335 151.251V194.661L277 227.804V206.58ZM306.868 153.361C307.142 153.841 306.976 154.451 306.496 154.725L266.496 177.583C266.017 177.857 265.406 177.69 265.132 177.21C264.858 176.731 265.024 176.12 265.504 175.846L305.504 152.989C305.983 152.715 306.594 152.882 306.868 153.361ZM326.868 166.515C327.142 166.995 326.976 167.606 326.496 167.88L286.496 190.737C286.017 191.011 285.406 190.844 285.132 190.365C284.858 189.885 285.024 189.274 285.504 189L325.504 166.143C325.983 165.869 326.594 166.036 326.868 166.515ZM326.868 177.126C327.142 177.605 326.976 178.216 326.496 178.49L286.496 201.347C286.017 201.621 285.406 201.455 285.132 200.975C284.858 200.496 285.024 199.885 285.504 199.611L325.504 176.754C325.983 176.48 326.594 176.646 326.868 177.126ZM326.868 189.372C327.142 189.852 326.976 190.463 326.496 190.737L286.496 213.594C286.017 213.868 285.406 213.701 285.132 213.222C284.858 212.742 285.024 212.132 285.504 211.857L325.504 189C325.983 188.726 326.594 188.893 326.868 189.372ZM286.868 142.587C287.142 143.066 286.976 143.677 286.496 143.951L246.496 166.808C246.017 167.082 245.406 166.916 245.132 166.436C244.858 165.957 245.024 165.346 245.504 165.072L285.504 142.215C285.983 141.941 286.594 142.107 286.868 142.587ZM227.628 164.173C227.936 164.352 228.126 164.681 228.126 165.038V187.825C228.126 188.179 227.939 188.507 227.633 188.687L216.709 195.117C216.4 195.299 216.017 195.301 215.705 195.123C215.394 194.945 215.202 194.614 215.202 194.255V171.279C215.202 170.92 215.394 170.588 215.705 170.41L226.63 164.169C226.939 163.992 227.32 163.994 227.628 164.173ZM217.202 171.859V192.506L226.126 187.253V166.761L217.202 171.859ZM228.126 134.667C228.126 134.311 227.936 133.981 227.628 133.802C227.32 133.623 226.939 133.622 226.63 133.799L215.705 140.04C215.394 140.218 215.202 140.549 215.202 140.908V163.885C215.202 164.243 215.394 164.575 215.705 164.753C216.017 164.931 216.4 164.928 216.709 164.746L227.633 158.316C227.939 158.137 228.126 157.809 228.126 157.455V134.667ZM217.202 162.136V141.489L226.126 136.39V156.883L217.202 162.136ZM227.628 103.432C227.936 103.611 228.126 103.94 228.126 104.297V127.084C228.126 127.439 227.939 127.766 227.633 127.946L216.709 134.376C216.4 134.558 216.017 134.56 215.705 134.382C215.394 134.204 215.202 133.873 215.202 133.514V110.538C215.202 110.179 215.394 109.848 215.705 109.67L226.63 103.428C226.939 103.252 227.32 103.253 227.628 103.432ZM217.202 111.118V131.765L226.126 126.513V106.02L217.202 111.118ZM228.126 73.9263C228.126 73.5698 227.936 73.2403 227.628 73.0614C227.32 72.8825 226.939 72.8812 226.63 73.058L215.705 79.2991C215.394 79.4772 215.202 79.8085 215.202 80.1674V103.144C215.202 103.503 215.394 103.834 215.705 104.012C216.017 104.19 216.4 104.188 216.709 104.006L227.633 97.5756C227.939 97.3959 228.126 97.0681 228.126 96.7138V73.9263ZM217.202 101.395V80.7478L226.126 75.6493V96.142L217.202 101.395ZM251.563 119.609C252.115 119.609 252.563 120.057 252.563 120.609V143.586C252.563 144.138 252.115 144.586 251.563 144.586C251.011 144.586 250.563 144.138 250.563 143.586V120.609C250.563 120.057 251.011 119.609 251.563 119.609ZM252.563 90.3151C252.563 89.7628 252.115 89.3151 251.563 89.3151C251.011 89.3151 250.563 89.7628 250.563 90.3151V113.291C250.563 113.844 251.011 114.291 251.563 114.291C252.115 114.291 252.563 113.844 252.563 113.291V90.3151ZM232.544 162.487C232.544 161.935 232.096 161.487 231.544 161.487C230.991 161.487 230.544 161.935 230.544 162.487V185.464C230.544 186.016 230.991 186.464 231.544 186.464C232.096 186.464 232.544 186.016 232.544 185.464V162.487ZM231.544 131.097C232.096 131.097 232.544 131.545 232.544 132.097V155.074C232.544 155.626 232.096 156.074 231.544 156.074C230.991 156.074 230.544 155.626 230.544 155.074V132.097C230.544 131.545 230.991 131.097 231.544 131.097ZM232.544 101.707C232.544 101.155 232.096 100.707 231.544 100.707C230.991 100.707 230.544 101.155 230.544 101.707V124.684C230.544 125.236 230.991 125.684 231.544 125.684C232.096 125.684 232.544 125.236 232.544 124.684V101.707ZM231.544 70.3174C232.096 70.3174 232.544 70.7651 232.544 71.3174V94.2937C232.544 94.846 232.096 95.2937 231.544 95.2937C230.991 95.2937 230.544 94.846 230.544 94.2937V71.3174C230.544 70.7651 230.991 70.3174 231.544 70.3174ZM257.202 117.748C257.202 117.196 256.754 116.748 256.202 116.748C255.649 116.748 255.202 117.196 255.202 117.748V140.724C255.202 141.277 255.649 141.724 256.202 141.724C256.754 141.724 257.202 141.277 257.202 140.724V117.748ZM256.202 86.4928C256.754 86.4928 257.202 86.9405 257.202 87.4928V110.469C257.202 111.021 256.754 111.469 256.202 111.469C255.649 111.469 255.202 111.021 255.202 110.469V87.4928C255.202 86.9405 255.649 86.4928 256.202 86.4928Z" clip-rule="evenodd" fill-rule="evenodd"></path>
<defs>
<linearGradient gradientUnits="userSpaceOnUse" y2="135.994" x2="337" y1="135.995" x1="215.202" id="paint0_linear_871_7293">
<stop stop-color="#271734"></stop>
<stop stop-color="#6B1C96" offset="1"></stop>
</linearGradient>
</defs>
</svg>
