<svg xmlns="http://www.w3.org/2000/svg" fill="none" viewBox="0 0 552 320" height="320" width="552">
<rect fill="white" height="320" width="552"></rect>
<g opacity="0.15">
<path stroke-linejoin="round" stroke-linecap="round" stroke="black" d="M296 57.4258L276 46V68.8571L296 57.4258Z"></path>
<path stroke-linejoin="round" stroke-linecap="round" stroke="black" d="M296 80.2813L276 68.8555V91.7126L296 80.2813Z"></path>
<path stroke-linejoin="round" stroke-linecap="round" stroke="black" d="M256 80.2813L236 68.8555V91.7126L256 80.2813Z"></path>
<path stroke-linejoin="round" stroke-linecap="round" stroke="black" d="M296 103.141L276 91.7148V114.572L296 103.141Z"></path>
<path stroke-linejoin="round" stroke-linecap="round" stroke="black" d="M256 103.141L236 91.7148V114.572L256 103.141Z"></path>
<path stroke-linejoin="round" stroke-linecap="round" stroke="black" d="M256 125.996L236 114.57V137.427L256 125.996Z"></path>
<path stroke-linejoin="round" stroke-linecap="round" stroke="black" d="M256 148.856L236 137.43V160.287L256 148.856Z"></path>
<path stroke-linejoin="round" stroke-linecap="round" stroke="black" d="M256 171.711L236 160.285V183.142L256 171.711Z"></path>
<path stroke-linejoin="round" stroke-linecap="round" stroke="black" d="M256 194.57L236 183.145V206.002L256 194.57Z"></path>
<path stroke-linejoin="round" stroke-linecap="round" stroke="black" d="M256 217.426L236 206V228.857L256 217.426Z"></path>
<path stroke-linejoin="round" stroke-linecap="round" stroke="black" d="M256 240.281L236 228.855V251.713L256 240.281Z"></path>
<path stroke-linejoin="round" stroke-linecap="round" stroke="black" d="M296 125.996L276 114.57V137.427L296 125.996Z"></path>
<path stroke-linejoin="round" stroke-linecap="round" stroke="black" d="M296 148.856L276 137.43V160.287L296 148.856Z"></path>
<path stroke-linejoin="round" stroke-linecap="round" stroke="black" d="M296 171.711L276 160.285V183.142L296 171.711Z"></path>
<path stroke-linejoin="round" stroke-linecap="round" stroke="black" d="M296 194.57L276 183.145V206.002L296 194.57Z"></path>
<path stroke-linejoin="round" stroke-linecap="round" stroke="black" d="M296 217.426L276 206V228.857L296 217.426Z"></path>
<path stroke-linejoin="round" stroke-linecap="round" stroke="black" d="M296 240.281L276 228.855V251.713L296 240.281Z"></path>
<path stroke-linejoin="round" stroke-linecap="round" stroke="black" d="M296 263.141L276 251.715V274.572L296 263.141Z"></path>
<path stroke-linejoin="round" stroke-linecap="round" stroke="black" d="M316 68.8555L296 57.4297V80.2868L316 68.8555Z"></path>
<path stroke-linejoin="round" stroke-linecap="round" stroke="black" d="M316 91.711L296 80.2852V103.142L316 91.711Z"></path>
<path stroke-linejoin="round" stroke-linecap="round" stroke="black" d="M316 91.7187L336 103.145L336 80.2874L316 91.7187Z"></path>
<path stroke-linejoin="round" stroke-linecap="round" stroke="black" d="M316 114.574L336 126L336 103.143L316 114.574Z"></path>
<path stroke-linejoin="round" stroke-linecap="round" stroke="black" d="M316 137.43L336 148.855L336 125.998L316 137.43Z"></path>
<path stroke-linejoin="round" stroke-linecap="round" stroke="black" d="M316 160.289L336 171.715L336 148.858L316 160.289Z"></path>
<path stroke-linejoin="round" stroke-linecap="round" stroke="black" d="M316 183.144L336 194.57L336 171.713L316 183.144Z"></path>
<path stroke-linejoin="round" stroke-linecap="round" stroke="black" d="M316 206.004L336 217.43L336 194.573L316 206.004Z"></path>
<path stroke-linejoin="round" stroke-linecap="round" stroke="black" d="M316 228.859L336 240.285L336 217.428L316 228.859Z"></path>
<path stroke-linejoin="round" stroke-linecap="round" stroke="black" d="M236 91.711L216 80.2852L216 103.142L236 91.711Z"></path>
<path stroke-linejoin="round" stroke-linecap="round" stroke="black" d="M236 114.57L216 103.145L216 126.002L236 114.57Z"></path>
<path stroke-linejoin="round" stroke-linecap="round" stroke="black" d="M236 137.426L216 126L216 148.857L236 137.426Z"></path>
<path stroke-linejoin="round" stroke-linecap="round" stroke="black" d="M236 160.281L216 148.855L216 171.713L236 160.281Z"></path>
<path stroke-linejoin="round" stroke-linecap="round" stroke="black" d="M236 183.141L216 171.715L216 194.572L236 183.141Z"></path>
<path stroke-linejoin="round" stroke-linecap="round" stroke="black" d="M236 205.996L216 194.57L216 217.427L236 205.996Z"></path>
<path stroke-linejoin="round" stroke-linecap="round" stroke="black" d="M236 228.856L216 217.43L216 240.287L236 228.856Z"></path>
<path stroke-linejoin="round" stroke-linecap="round" stroke="black" d="M316 114.57L296 103.145V126.002L316 114.57Z"></path>
<path stroke-linejoin="round" stroke-linecap="round" stroke="black" d="M316 137.426L296 126V148.857L316 137.426Z"></path>
<path stroke-linejoin="round" stroke-linecap="round" stroke="black" d="M316 160.281L296 148.855V171.713L316 160.281Z"></path>
<path stroke-linejoin="round" stroke-linecap="round" stroke="black" d="M316 183.141L296 171.715V194.572L316 183.141Z"></path>
<path stroke-linejoin="round" stroke-linecap="round" stroke="black" d="M316 205.996L296 194.57V217.427L316 205.996Z"></path>
<path stroke-linejoin="round" stroke-linecap="round" stroke="black" d="M316 228.856L296 217.43V240.287L316 228.856Z"></path>
<path stroke-linejoin="round" stroke-linecap="round" stroke="black" d="M316 251.711L296 240.285V263.142L316 251.711Z"></path>
<path stroke-linejoin="round" stroke-linecap="round" stroke="black" d="M276 68.8555L256 57.4297V80.2868L276 68.8555Z"></path>
<path stroke-linejoin="round" stroke-linecap="round" stroke="black" d="M276 91.711L256 80.2852V103.142L276 91.711Z"></path>
<path stroke-linejoin="round" stroke-linecap="round" stroke="black" d="M276 114.57L256 103.145V126.002L276 114.57Z"></path>
<path stroke-linejoin="round" stroke-linecap="round" stroke="black" d="M276 137.426L256 126V148.857L276 137.426Z"></path>
<path stroke-linejoin="round" stroke-linecap="round" stroke="black" d="M276 160.281L256 148.855V171.713L276 160.281Z"></path>
<path stroke-linejoin="round" stroke-linecap="round" stroke="black" d="M276 183.141L256 171.715V194.572L276 183.141Z"></path>
<path stroke-linejoin="round" stroke-linecap="round" stroke="black" d="M276 205.996L256 194.57V217.427L276 205.996Z"></path>
<path stroke-linejoin="round" stroke-linecap="round" stroke="black" d="M276 228.856L256 217.43V240.287L276 228.856Z"></path>
<path stroke-linejoin="round" stroke-linecap="round" stroke="black" d="M276 251.711L256 240.285V263.142L276 251.711Z"></path>
<path stroke-linejoin="round" stroke-linecap="round" stroke="black" d="M256 57.4296L276 68.8555L276 45.9983L256 57.4296Z"></path>
<path stroke-linejoin="round" stroke-linecap="round" stroke="black" d="M256 80.289L276 91.7148L276 68.8577L256 80.289Z"></path>
<path stroke-linejoin="round" stroke-linecap="round" stroke="black" d="M296 80.289L316 91.7148L316 68.8577L296 80.289Z"></path>
<path stroke-linejoin="round" stroke-linecap="round" stroke="black" d="M336 103.141L316 91.7148L316 114.572L336 103.141Z"></path>
<path stroke-linejoin="round" stroke-linecap="round" stroke="black" d="M336 125.996L316 114.57L316 137.427L336 125.996Z"></path>
<path stroke-linejoin="round" stroke-linecap="round" stroke="black" d="M336 148.856L316 137.43L316 160.287L336 148.856Z"></path>
<path stroke-linejoin="round" stroke-linecap="round" stroke="black" d="M336 171.711L316 160.285L316 183.142L336 171.711Z"></path>
<path stroke-linejoin="round" stroke-linecap="round" stroke="black" d="M336 194.57L316 183.145L316 206.002L336 194.57Z"></path>
<path stroke-linejoin="round" stroke-linecap="round" stroke="black" d="M336 217.426L316 206L316 228.857L336 217.426Z"></path>
<path stroke-linejoin="round" stroke-linecap="round" stroke="black" d="M336 240.281L316 228.855L316 251.713L336 240.281Z"></path>
<path stroke-linejoin="round" stroke-linecap="round" stroke="black" d="M216 80.289L236 91.7148L236 68.8577L216 80.289Z"></path>
<path stroke-linejoin="round" stroke-linecap="round" stroke="black" d="M356 91.711L336 80.2852L336 103.142L356 91.711Z"></path>
<path stroke-linejoin="round" stroke-linecap="round" stroke="black" d="M356 114.57L336 103.145L336 126.002L356 114.57Z"></path>
<path stroke-linejoin="round" stroke-linecap="round" stroke="black" d="M356 183.144L376 194.57L376 171.713L356 183.144Z"></path>
<path stroke-linejoin="round" stroke-linecap="round" stroke="black" d="M356 206.004L376 217.43L376 194.573L356 206.004Z"></path>
<path stroke-linejoin="round" stroke-linecap="round" stroke="black" d="M196 114.57L176 103.145L176 126.002L196 114.57Z"></path>
<path stroke-linejoin="round" stroke-linecap="round" stroke="black" d="M336 171.719L356 183.145L356 160.287L336 171.719Z"></path>
<path stroke-linejoin="round" stroke-linecap="round" stroke="black" d="M376 125.996L356 114.57L356 137.427L376 125.996Z"></path>
<path stroke-linejoin="round" stroke-linecap="round" stroke="black" d="M176 171.719L196 183.145L196 160.287L176 171.719Z"></path>
<path stroke-linejoin="round" stroke-linecap="round" stroke="black" d="M336 194.574L356 206L356 183.143L336 194.574Z"></path>
<path stroke-linejoin="round" stroke-linecap="round" stroke="black" d="M336 217.43L356 228.855L356 205.998L336 217.43Z"></path>
<path stroke-linejoin="round" stroke-linecap="round" stroke="black" d="M376 103.141L356 91.7148L356 114.572L376 103.141Z"></path>
<path stroke-linejoin="round" stroke-linecap="round" stroke="black" d="M176 194.574L196 206L196 183.143L176 194.574Z"></path>
<path stroke-linejoin="round" stroke-linecap="round" stroke="black" d="M176 217.43L196 228.855L196 205.998L176 217.43Z"></path>
<path stroke-linejoin="round" stroke-linecap="round" stroke="black" d="M216 103.141L196 91.7148L196 114.572L216 103.141Z"></path>
<path stroke-linejoin="round" stroke-linecap="round" stroke="black" d="M356 137.426L336 126L336 148.857L356 137.426Z"></path>
<path stroke-linejoin="round" stroke-linecap="round" stroke="black" d="M356 160.289L376 171.715L376 148.858L356 160.289Z"></path>
<path stroke-linejoin="round" stroke-linecap="round" stroke="black" d="M196 137.426L176 126L176 148.857L196 137.426Z"></path>
<path stroke-linejoin="round" stroke-linecap="round" stroke="black" d="M336 148.859L356 160.285L356 137.428L336 148.859Z"></path>
<path stroke-linejoin="round" stroke-linecap="round" stroke="black" d="M376 148.856L356 137.43L356 160.287L376 148.856Z"></path>
<path stroke-linejoin="round" stroke-linecap="round" stroke="black" d="M176 148.859L196 160.285L196 137.428L176 148.859Z"></path>
<path stroke-linejoin="round" stroke-linecap="round" stroke="black" d="M216 125.996L196 114.57L196 137.427L216 125.996Z"></path>
<path stroke-linejoin="round" stroke-linecap="round" stroke="black" d="M356 160.281L336 148.855L336 171.713L356 160.281Z"></path>
<path stroke-linejoin="round" stroke-linecap="round" stroke="black" d="M356 137.43L376 148.855L376 125.998L356 137.43Z"></path>
<path stroke-linejoin="round" stroke-linecap="round" stroke="black" d="M196 160.281L176 148.855L176 171.713L196 160.281Z"></path>
<path stroke-linejoin="round" stroke-linecap="round" stroke="black" d="M336 126.004L356 137.43L356 114.573L336 126.004Z"></path>
<path stroke-linejoin="round" stroke-linecap="round" stroke="black" d="M376 171.711L356 160.285L356 183.142L376 171.711Z"></path>
<path stroke-linejoin="round" stroke-linecap="round" stroke="black" d="M176 126.004L196 137.43L196 114.573L176 126.004Z"></path>
<path stroke-linejoin="round" stroke-linecap="round" stroke="black" d="M216 148.856L196 137.43L196 160.287L216 148.856Z"></path>
<path stroke-linejoin="round" stroke-linecap="round" stroke="black" d="M356 183.141L336 171.715L336 194.572L356 183.141Z"></path>
<path stroke-linejoin="round" stroke-linecap="round" stroke="black" d="M356 114.574L376 126L376 103.143L356 114.574Z"></path>
<path stroke-linejoin="round" stroke-linecap="round" stroke="black" d="M196 183.141L176 171.715L176 194.572L196 183.141Z"></path>
<path stroke-linejoin="round" stroke-linecap="round" stroke="black" d="M196 205.996L176 194.57L176 217.427L196 205.996Z"></path>
<path stroke-linejoin="round" stroke-linecap="round" stroke="black" d="M356 205.996L336 194.57L336 217.427L356 205.996Z"></path>
<path stroke-linejoin="round" stroke-linecap="round" stroke="black" d="M356 228.856L336 217.43L336 240.287L356 228.856Z"></path>
<path stroke-linejoin="round" stroke-linecap="round" stroke="black" d="M336 103.144L356 114.57L356 91.7132L336 103.144Z"></path>
<path stroke-linejoin="round" stroke-linecap="round" stroke="black" d="M376 194.57L356 183.145L356 206.002L376 194.57Z"></path>
<path stroke-linejoin="round" stroke-linecap="round" stroke="black" d="M376 217.426L356 206L356 228.857L376 217.426Z"></path>
<path stroke-linejoin="round" stroke-linecap="round" stroke="black" d="M176 103.144L196 114.57L196 91.7132L176 103.144Z"></path>
<path stroke-linejoin="round" stroke-linecap="round" stroke="black" d="M216 171.711L196 160.285L196 183.142L216 171.711Z"></path>
<path stroke-linejoin="round" stroke-linecap="round" stroke="black" d="M216 194.57L196 183.145L196 206.002L216 194.57Z"></path>
<path stroke-linejoin="round" stroke-linecap="round" stroke="black" d="M216 217.426L196 206L196 228.857L216 217.426Z"></path>
<path stroke-linejoin="round" stroke-linecap="round" stroke="black" d="M196 91.7187L216 103.145L216 80.2874L196 91.7187Z"></path>
<path stroke-linejoin="round" stroke-linecap="round" stroke="black" d="M196 114.574L216 126L216 103.143L196 114.574Z"></path>
<path stroke-linejoin="round" stroke-linecap="round" stroke="black" d="M196 137.43L216 148.855L216 125.998L196 137.43Z"></path>
<path stroke-linejoin="round" stroke-linecap="round" stroke="black" d="M196 160.289L216 171.715L216 148.858L196 160.289Z"></path>
<path stroke-linejoin="round" stroke-linecap="round" stroke="black" d="M196 183.144L216 194.57L216 171.713L196 183.144Z"></path>
<path stroke-linejoin="round" stroke-linecap="round" stroke="black" d="M196 206.004L216 217.43L216 194.573L196 206.004Z"></path>
<path stroke-linejoin="round" stroke-linecap="round" stroke="black" d="M196 228.859L216 240.285L216 217.428L196 228.859Z"></path>
<path stroke-linejoin="round" stroke-linecap="round" stroke="black" d="M256 103.144L276 114.57L276 91.7132L256 103.144Z"></path>
<path stroke-linejoin="round" stroke-linecap="round" stroke="black" d="M296 103.144L316 114.57L316 91.7132L296 103.144Z"></path>
<path stroke-linejoin="round" stroke-linecap="round" stroke="black" d="M296 126.004L316 137.43L316 114.573L296 126.004Z"></path>
<path stroke-linejoin="round" stroke-linecap="round" stroke="black" d="M296 148.859L316 160.285L316 137.428L296 148.859Z"></path>
<path stroke-linejoin="round" stroke-linecap="round" stroke="black" d="M296 171.719L316 183.145L316 160.287L296 171.719Z"></path>
<path stroke-linejoin="round" stroke-linecap="round" stroke="black" d="M296 194.574L316 206L316 183.143L296 194.574Z"></path>
<path stroke-linejoin="round" stroke-linecap="round" stroke="black" d="M296 217.43L316 228.855L316 205.998L296 217.43Z"></path>
<path stroke-linejoin="round" stroke-linecap="round" stroke="black" d="M296 240.289L316 251.715L316 228.858L296 240.289Z"></path>
<path stroke-linejoin="round" stroke-linecap="round" stroke="black" d="M336 80.2813L316 68.8555L316 91.7126L336 80.2813Z"></path>
<path stroke-linejoin="round" stroke-linecap="round" stroke="black" d="M216 103.144L236 114.57L236 91.7132L216 103.144Z"></path>
<path stroke-linejoin="round" stroke-linecap="round" stroke="black" d="M216 126.004L236 137.43L236 114.573L216 126.004Z"></path>
<path stroke-linejoin="round" stroke-linecap="round" stroke="black" d="M216 148.859L236 160.285L236 137.428L216 148.859Z"></path>
<path stroke-linejoin="round" stroke-linecap="round" stroke="black" d="M216 171.719L236 183.145L236 160.287L216 171.719Z"></path>
<path stroke-linejoin="round" stroke-linecap="round" stroke="black" d="M216 194.574L236 206L236 183.143L216 194.574Z"></path>
<path stroke-linejoin="round" stroke-linecap="round" stroke="black" d="M216 194.574L236 206L236 183.143L216 194.574Z"></path>
<path stroke-linejoin="round" stroke-linecap="round" stroke="black" d="M216 217.43L236 228.855L236 205.998L216 217.43Z"></path>
<path stroke-linejoin="round" stroke-linecap="round" stroke="black" d="M216 240.289L236 251.715L236 228.858L216 240.289Z"></path>
<path stroke-linejoin="round" stroke-linecap="round" stroke="black" d="M256 126.004L276 137.43L276 114.573L256 126.004Z"></path>
<path stroke-linejoin="round" stroke-linecap="round" stroke="black" d="M256 148.859L276 160.285L276 137.428L256 148.859Z"></path>
<path stroke-linejoin="round" stroke-linecap="round" stroke="black" d="M256 171.719L276 183.145L276 160.287L256 171.719Z"></path>
<path stroke-linejoin="round" stroke-linecap="round" stroke="black" d="M256 194.574L276 206L276 183.143L256 194.574Z"></path>
<path stroke-linejoin="round" stroke-linecap="round" stroke="black" d="M256 217.43L276 228.855L276 205.998L256 217.43Z"></path>
<path stroke-linejoin="round" stroke-linecap="round" stroke="black" d="M256 240.289L276 251.715L276 228.858L256 240.289Z"></path>
<path stroke-linejoin="round" stroke-linecap="round" stroke="black" d="M256 263.144L276 274.57L276 251.713L256 263.144Z"></path>
<path stroke-linejoin="round" stroke-linecap="round" stroke="black" d="M276 68.8593L296 80.2852L296 57.428L276 68.8593Z"></path>
<path stroke-linejoin="round" stroke-linecap="round" stroke="black" d="M276 91.7187L296 103.145L296 80.2874L276 91.7187Z"></path>
<path stroke-linejoin="round" stroke-linecap="round" stroke="black" d="M276 114.574L296 126L296 103.143L276 114.574Z"></path>
<path stroke-linejoin="round" stroke-linecap="round" stroke="black" d="M276 137.43L296 148.855L296 125.998L276 137.43Z"></path>
<path stroke-linejoin="round" stroke-linecap="round" stroke="black" d="M276 160.289L296 171.715L296 148.858L276 160.289Z"></path>
<path stroke-linejoin="round" stroke-linecap="round" stroke="black" d="M276 183.144L296 194.57L296 171.713L276 183.144Z"></path>
<path stroke-linejoin="round" stroke-linecap="round" stroke="black" d="M276 206.004L296 217.43L296 194.573L276 206.004Z"></path>
<path stroke-linejoin="round" stroke-linecap="round" stroke="black" d="M276 228.859L296 240.285L296 217.428L276 228.859Z"></path>
<path stroke-linejoin="round" stroke-linecap="round" stroke="black" d="M276 251.719L296 263.145L296 240.287L276 251.719Z"></path>
<path stroke-linejoin="round" stroke-linecap="round" stroke="black" d="M236 68.8593L256 80.2852L256 57.428L236 68.8593Z"></path>
<path stroke-linejoin="round" stroke-linecap="round" stroke="black" d="M236 91.7187L256 103.145L256 80.2874L236 91.7187Z"></path>
<path stroke-linejoin="round" stroke-linecap="round" stroke="black" d="M236 114.574L256 126L256 103.143L236 114.574Z"></path>
<path stroke-linejoin="round" stroke-linecap="round" stroke="black" d="M236 137.43L256 148.855L256 125.998L236 137.43Z"></path>
<path stroke-linejoin="round" stroke-linecap="round" stroke="black" d="M236 160.289L256 171.715L256 148.858L236 160.289Z"></path>
<path stroke-linejoin="round" stroke-linecap="round" stroke="black" d="M236 183.144L256 194.57L256 171.713L236 183.144Z"></path>
<path stroke-linejoin="round" stroke-linecap="round" stroke="black" d="M236 206.004L256 217.43L256 194.573L236 206.004Z"></path>
<path stroke-linejoin="round" stroke-linecap="round" stroke="black" d="M236 228.859L256 240.285L256 217.428L236 228.859Z"></path>
<path stroke-linejoin="round" stroke-linecap="round" stroke="black" d="M236 251.719L256 263.145L256 240.287L236 251.719Z"></path>
</g>
<path stroke-linejoin="round" stroke-linecap="round" stroke-width="2" stroke="url(#paint0_linear_1_6581)" d="M356 114.573V206.002L336 194.573L276 228.859M356 114.573L276 160.287M356 114.573L336 103.145L256 148.859M276 228.859V160.287M276 228.859L256 217.43V148.859M276 160.287L256 148.859"></path>
<path stroke-linejoin="round" stroke-linecap="round" stroke-width="2" stroke="url(#paint1_linear_1_6581)" d="M296 80.284L216 125.998M296 80.284L276 68.8555L196 114.57M296 80.284V125.998M216 125.998L196 114.57M216 125.998V217.427M196 114.57V205.998L216 217.427M216 217.427L236 183.141L256 171.713"></path>
<path stroke-linejoin="round" stroke-linecap="round" stroke-width="2" stroke="url(#paint2_linear_1_6581)" d="M286 177.427L336 148.855M286 188.855L316 171.713M286 200.284L336 171.713"></path>
<path stroke-linejoin="round" stroke-linecap="round" stroke-width="2" stroke="url(#paint3_linear_1_6581)" d="M286 108.855L226 143.141M226 154.57L266 131.713M226 165.998L255.286 149.57"></path>
<defs>
<linearGradient gradientUnits="userSpaceOnUse" y2="160.673" x2="356" y1="160.674" x1="256" id="paint0_linear_1_6581">
<stop stop-color="#271734"></stop>
<stop stop-color="#D90036" offset="1"></stop>
</linearGradient>
<linearGradient gradientUnits="userSpaceOnUse" y2="136.844" x2="296" y1="136.844" x1="196" id="paint1_linear_1_6581">
<stop stop-color="#271734"></stop>
<stop stop-color="#D90036" offset="1"></stop>
</linearGradient>
<linearGradient gradientUnits="userSpaceOnUse" y2="172.389" x2="336" y1="172.39" x1="286" id="paint2_linear_1_6581">
<stop stop-color="#271734"></stop>
<stop stop-color="#D90036" offset="1"></stop>
</linearGradient>
<linearGradient gradientUnits="userSpaceOnUse" y2="135.004" x2="286" y1="135.005" x1="226" id="paint3_linear_1_6581">
<stop stop-color="#271734"></stop>
<stop stop-color="#D90036" offset="1"></stop>
</linearGradient>
</defs>
</svg>
