<svg xmlns="http://www.w3.org/2000/svg" fill="none" viewBox="0 0 552 320" height="320" width="552">
<rect fill="white" height="320" width="552"></rect>
<g opacity="0.15">
<path stroke-linejoin="round" stroke-linecap="round" stroke="black" d="M296 57.4258L276 46V68.8571L296 57.4258Z"></path>
<path stroke-linejoin="round" stroke-linecap="round" stroke="black" d="M296 80.2832L276 68.8574V91.7146L296 80.2832Z"></path>
<path stroke-linejoin="round" stroke-linecap="round" stroke="black" d="M256 80.2832L236 68.8574V91.7146L256 80.2832Z"></path>
<path stroke-linejoin="round" stroke-linecap="round" stroke="black" d="M296 103.141L276 91.7148V114.572L296 103.141Z"></path>
<path stroke-linejoin="round" stroke-linecap="round" stroke="black" d="M256 103.141L236 91.7148V114.572L256 103.141Z"></path>
<path stroke-linejoin="round" stroke-linecap="round" stroke="black" d="M256 125.998L236 114.572V137.429L256 125.998Z"></path>
<path stroke-linejoin="round" stroke-linecap="round" stroke="black" d="M256 148.854L236 137.428V160.285L256 148.854Z"></path>
<path stroke-linejoin="round" stroke-linecap="round" stroke="black" d="M256 171.711L236 160.285V183.142L256 171.711Z"></path>
<path stroke-linejoin="round" stroke-linecap="round" stroke="black" d="M256 194.568L236 183.143V206L256 194.568Z"></path>
<path stroke-linejoin="round" stroke-linecap="round" stroke="black" d="M256 217.426L236 206V228.857L256 217.426Z"></path>
<path stroke-linejoin="round" stroke-linecap="round" stroke="black" d="M256 240.283L236 228.857V251.715L256 240.283Z"></path>
<path stroke-linejoin="round" stroke-linecap="round" stroke="black" d="M296 125.998L276 114.572V137.429L296 125.998Z"></path>
<path stroke-linejoin="round" stroke-linecap="round" stroke="black" d="M296 148.854L276 137.428V160.285L296 148.854Z"></path>
<path stroke-linejoin="round" stroke-linecap="round" stroke="black" d="M296 171.711L276 160.285V183.142L296 171.711Z"></path>
<path stroke-linejoin="round" stroke-linecap="round" stroke="black" d="M296 194.568L276 183.143V206L296 194.568Z"></path>
<path stroke-linejoin="round" stroke-linecap="round" stroke="black" d="M296 217.426L276 206V228.857L296 217.426Z"></path>
<path stroke-linejoin="round" stroke-linecap="round" stroke="black" d="M296 240.283L276 228.857V251.715L296 240.283Z"></path>
<path stroke-linejoin="round" stroke-linecap="round" stroke="black" d="M296 263.141L276 251.715V274.572L296 263.141Z"></path>
<path stroke-linejoin="round" stroke-linecap="round" stroke="black" d="M316 68.8536L296 57.4277V80.2849L316 68.8536Z"></path>
<path stroke-linejoin="round" stroke-linecap="round" stroke="black" d="M316 91.711L296 80.2852V103.142L316 91.711Z"></path>
<path stroke-linejoin="round" stroke-linecap="round" stroke="black" d="M316 91.7168L336 103.143L336 80.2854L316 91.7168Z"></path>
<path stroke-linejoin="round" stroke-linecap="round" stroke="black" d="M316 114.574L336 126L336 103.143L316 114.574Z"></path>
<path stroke-linejoin="round" stroke-linecap="round" stroke="black" d="M316 137.432L336 148.857L336 126L316 137.432Z"></path>
<path stroke-linejoin="round" stroke-linecap="round" stroke="black" d="M316 160.289L336 171.715L336 148.858L316 160.289Z"></path>
<path stroke-linejoin="round" stroke-linecap="round" stroke="black" d="M316 183.146L336 194.572L336 171.715L316 183.146Z"></path>
<path stroke-linejoin="round" stroke-linecap="round" stroke="black" d="M316 206.002L336 217.428L336 194.571L316 206.002Z"></path>
<path stroke-linejoin="round" stroke-linecap="round" stroke="black" d="M316 228.859L336 240.285L336 217.428L316 228.859Z"></path>
<path stroke-linejoin="round" stroke-linecap="round" stroke="black" d="M236 91.711L216 80.2852L216 103.142L236 91.711Z"></path>
<path stroke-linejoin="round" stroke-linecap="round" stroke="black" d="M236 114.568L216 103.143L216 126L236 114.568Z"></path>
<path stroke-linejoin="round" stroke-linecap="round" stroke="black" d="M236 137.426L216 126L216 148.857L236 137.426Z"></path>
<path stroke-linejoin="round" stroke-linecap="round" stroke="black" d="M236 160.283L216 148.857L216 171.715L236 160.283Z"></path>
<path stroke-linejoin="round" stroke-linecap="round" stroke="black" d="M236 183.141L216 171.715L216 194.572L236 183.141Z"></path>
<path stroke-linejoin="round" stroke-linecap="round" stroke="black" d="M236 205.998L216 194.572L216 217.429L236 205.998Z"></path>
<path stroke-linejoin="round" stroke-linecap="round" stroke="black" d="M236 228.854L216 217.428L216 240.285L236 228.854Z"></path>
<path stroke-linejoin="round" stroke-linecap="round" stroke="black" d="M316 114.568L296 103.143V126L316 114.568Z"></path>
<path stroke-linejoin="round" stroke-linecap="round" stroke="black" d="M316 137.426L296 126V148.857L316 137.426Z"></path>
<path stroke-linejoin="round" stroke-linecap="round" stroke="black" d="M316 160.283L296 148.857V171.715L316 160.283Z"></path>
<path stroke-linejoin="round" stroke-linecap="round" stroke="black" d="M316 183.141L296 171.715V194.572L316 183.141Z"></path>
<path stroke-linejoin="round" stroke-linecap="round" stroke="black" d="M316 205.998L296 194.572V217.429L316 205.998Z"></path>
<path stroke-linejoin="round" stroke-linecap="round" stroke="black" d="M316 228.854L296 217.428V240.285L316 228.854Z"></path>
<path stroke-linejoin="round" stroke-linecap="round" stroke="black" d="M316 251.711L296 240.285V263.142L316 251.711Z"></path>
<path stroke-linejoin="round" stroke-linecap="round" stroke="black" d="M276 68.8536L256 57.4277V80.2849L276 68.8536Z"></path>
<path stroke-linejoin="round" stroke-linecap="round" stroke="black" d="M276 91.711L256 80.2852V103.142L276 91.711Z"></path>
<path stroke-linejoin="round" stroke-linecap="round" stroke="black" d="M276 114.568L256 103.143V126L276 114.568Z"></path>
<path stroke-linejoin="round" stroke-linecap="round" stroke="black" d="M276 137.426L256 126V148.857L276 137.426Z"></path>
<path stroke-linejoin="round" stroke-linecap="round" stroke="black" d="M276 160.283L256 148.857V171.715L276 160.283Z"></path>
<path stroke-linejoin="round" stroke-linecap="round" stroke="black" d="M276 183.141L256 171.715V194.572L276 183.141Z"></path>
<path stroke-linejoin="round" stroke-linecap="round" stroke="black" d="M276 205.998L256 194.572V217.429L276 205.998Z"></path>
<path stroke-linejoin="round" stroke-linecap="round" stroke="black" d="M276 228.854L256 217.428V240.285L276 228.854Z"></path>
<path stroke-linejoin="round" stroke-linecap="round" stroke="black" d="M276 251.711L256 240.285V263.142L276 251.711Z"></path>
<path stroke-linejoin="round" stroke-linecap="round" stroke="black" d="M256 57.4316L276 68.8574L276 46.0003L256 57.4316Z"></path>
<path stroke-linejoin="round" stroke-linecap="round" stroke="black" d="M256 80.289L276 91.7148L276 68.8577L256 80.289Z"></path>
<path stroke-linejoin="round" stroke-linecap="round" stroke="black" d="M296 80.289L316 91.7148L316 68.8577L296 80.289Z"></path>
<path stroke-linejoin="round" stroke-linecap="round" stroke="black" d="M336 103.141L316 91.7148L316 114.572L336 103.141Z"></path>
<path stroke-linejoin="round" stroke-linecap="round" stroke="black" d="M336 125.998L316 114.572L316 137.429L336 125.998Z"></path>
<path stroke-linejoin="round" stroke-linecap="round" stroke="black" d="M336 148.854L316 137.428L316 160.285L336 148.854Z"></path>
<path stroke-linejoin="round" stroke-linecap="round" stroke="black" d="M336 171.711L316 160.285L316 183.142L336 171.711Z"></path>
<path stroke-linejoin="round" stroke-linecap="round" stroke="black" d="M336 194.568L316 183.143L316 206L336 194.568Z"></path>
<path stroke-linejoin="round" stroke-linecap="round" stroke="black" d="M336 217.426L316 206L316 228.857L336 217.426Z"></path>
<path stroke-linejoin="round" stroke-linecap="round" stroke="black" d="M336 240.283L316 228.857L316 251.715L336 240.283Z"></path>
<path stroke-linejoin="round" stroke-linecap="round" stroke="black" d="M216 80.289L236 91.7148L236 68.8577L216 80.289Z"></path>
<path stroke-linejoin="round" stroke-linecap="round" stroke="black" d="M356 91.711L336 80.2852L336 103.142L356 91.711Z"></path>
<path stroke-linejoin="round" stroke-linecap="round" stroke="black" d="M356 114.568L336 103.143L336 126L356 114.568Z"></path>
<path stroke-linejoin="round" stroke-linecap="round" stroke="black" d="M356 183.146L376 194.572L376 171.715L356 183.146Z"></path>
<path stroke-linejoin="round" stroke-linecap="round" stroke="black" d="M356 206.002L376 217.428L376 194.571L356 206.002Z"></path>
<path stroke-linejoin="round" stroke-linecap="round" stroke="black" d="M196 114.568L176 103.143L176 126L196 114.568Z"></path>
<path stroke-linejoin="round" stroke-linecap="round" stroke="black" d="M336 171.717L356 183.143L356 160.285L336 171.717Z"></path>
<path stroke-linejoin="round" stroke-linecap="round" stroke="black" d="M376 125.998L356 114.572L356 137.429L376 125.998Z"></path>
<path stroke-linejoin="round" stroke-linecap="round" stroke="black" d="M176 171.717L196 183.143L196 160.285L176 171.717Z"></path>
<path stroke-linejoin="round" stroke-linecap="round" stroke="black" d="M336 194.574L356 206L356 183.143L336 194.574Z"></path>
<path stroke-linejoin="round" stroke-linecap="round" stroke="black" d="M336 217.432L356 228.857L356 206L336 217.432Z"></path>
<path stroke-linejoin="round" stroke-linecap="round" stroke="black" d="M376 103.141L356 91.7148L356 114.572L376 103.141Z"></path>
<path stroke-linejoin="round" stroke-linecap="round" stroke="black" d="M176 194.574L196 206L196 183.143L176 194.574Z"></path>
<path stroke-linejoin="round" stroke-linecap="round" stroke="black" d="M176 217.432L196 228.857L196 206L176 217.432Z"></path>
<path stroke-linejoin="round" stroke-linecap="round" stroke="black" d="M216 103.141L196 91.7148L196 114.572L216 103.141Z"></path>
<path stroke-linejoin="round" stroke-linecap="round" stroke="black" d="M356 137.426L336 126L336 148.857L356 137.426Z"></path>
<path stroke-linejoin="round" stroke-linecap="round" stroke="black" d="M356 160.289L376 171.715L376 148.858L356 160.289Z"></path>
<path stroke-linejoin="round" stroke-linecap="round" stroke="black" d="M196 137.426L176 126L176 148.857L196 137.426Z"></path>
<path stroke-linejoin="round" stroke-linecap="round" stroke="black" d="M336 148.859L356 160.285L356 137.428L336 148.859Z"></path>
<path stroke-linejoin="round" stroke-linecap="round" stroke="black" d="M376 148.854L356 137.428L356 160.285L376 148.854Z"></path>
<path stroke-linejoin="round" stroke-linecap="round" stroke="black" d="M176 148.859L196 160.285L196 137.428L176 148.859Z"></path>
<path stroke-linejoin="round" stroke-linecap="round" stroke="black" d="M216 125.998L196 114.572L196 137.429L216 125.998Z"></path>
<path stroke-linejoin="round" stroke-linecap="round" stroke="black" d="M356 160.283L336 148.857L336 171.715L356 160.283Z"></path>
<path stroke-linejoin="round" stroke-linecap="round" stroke="black" d="M356 137.432L376 148.857L376 126L356 137.432Z"></path>
<path stroke-linejoin="round" stroke-linecap="round" stroke="black" d="M196 160.283L176 148.857L176 171.715L196 160.283Z"></path>
<path stroke-linejoin="round" stroke-linecap="round" stroke="black" d="M336 126.002L356 137.428L356 114.571L336 126.002Z"></path>
<path stroke-linejoin="round" stroke-linecap="round" stroke="black" d="M376 171.711L356 160.285L356 183.142L376 171.711Z"></path>
<path stroke-linejoin="round" stroke-linecap="round" stroke="black" d="M176 126.002L196 137.428L196 114.571L176 126.002Z"></path>
<path stroke-linejoin="round" stroke-linecap="round" stroke="black" d="M216 148.854L196 137.428L196 160.285L216 148.854Z"></path>
<path stroke-linejoin="round" stroke-linecap="round" stroke="black" d="M356 183.141L336 171.715L336 194.572L356 183.141Z"></path>
<path stroke-linejoin="round" stroke-linecap="round" stroke="black" d="M356 114.574L376 126L376 103.143L356 114.574Z"></path>
<path stroke-linejoin="round" stroke-linecap="round" stroke="black" d="M196 183.141L176 171.715L176 194.572L196 183.141Z"></path>
<path stroke-linejoin="round" stroke-linecap="round" stroke="black" d="M196 205.998L176 194.572L176 217.429L196 205.998Z"></path>
<path stroke-linejoin="round" stroke-linecap="round" stroke="black" d="M356 205.998L336 194.572L336 217.429L356 205.998Z"></path>
<path stroke-linejoin="round" stroke-linecap="round" stroke="black" d="M356 228.854L336 217.428L336 240.285L356 228.854Z"></path>
<path stroke-linejoin="round" stroke-linecap="round" stroke="black" d="M336 103.146L356 114.572L356 91.7151L336 103.146Z"></path>
<path stroke-linejoin="round" stroke-linecap="round" stroke="black" d="M376 194.568L356 183.143L356 206L376 194.568Z"></path>
<path stroke-linejoin="round" stroke-linecap="round" stroke="black" d="M376 217.426L356 206L356 228.857L376 217.426Z"></path>
<path stroke-linejoin="round" stroke-linecap="round" stroke="black" d="M176 103.146L196 114.572L196 91.7151L176 103.146Z"></path>
<path stroke-linejoin="round" stroke-linecap="round" stroke="black" d="M216 171.711L196 160.285L196 183.142L216 171.711Z"></path>
<path stroke-linejoin="round" stroke-linecap="round" stroke="black" d="M216 194.568L196 183.143L196 206L216 194.568Z"></path>
<path stroke-linejoin="round" stroke-linecap="round" stroke="black" d="M216 217.426L196 206L196 228.857L216 217.426Z"></path>
<path stroke-linejoin="round" stroke-linecap="round" stroke="black" d="M196 91.7167L216 103.143L216 80.2854L196 91.7167Z"></path>
<path stroke-linejoin="round" stroke-linecap="round" stroke="black" d="M196 114.574L216 126L216 103.143L196 114.574Z"></path>
<path stroke-linejoin="round" stroke-linecap="round" stroke="black" d="M196 137.432L216 148.857L216 126L196 137.432Z"></path>
<path stroke-linejoin="round" stroke-linecap="round" stroke="black" d="M196 160.289L216 171.715L216 148.858L196 160.289Z"></path>
<path stroke-linejoin="round" stroke-linecap="round" stroke="black" d="M196 183.146L216 194.572L216 171.715L196 183.146Z"></path>
<path stroke-linejoin="round" stroke-linecap="round" stroke="black" d="M196 206.002L216 217.428L216 194.571L196 206.002Z"></path>
<path stroke-linejoin="round" stroke-linecap="round" stroke="black" d="M196 228.859L216 240.285L216 217.428L196 228.859Z"></path>
<path stroke-linejoin="round" stroke-linecap="round" stroke="black" d="M256 103.146L276 114.572L276 91.7151L256 103.146Z"></path>
<path stroke-linejoin="round" stroke-linecap="round" stroke="black" d="M296 103.146L316 114.572L316 91.7151L296 103.146Z"></path>
<path stroke-linejoin="round" stroke-linecap="round" stroke="black" d="M296 126.002L316 137.428L316 114.571L296 126.002Z"></path>
<path stroke-linejoin="round" stroke-linecap="round" stroke="black" d="M296 148.859L316 160.285L316 137.428L296 148.859Z"></path>
<path stroke-linejoin="round" stroke-linecap="round" stroke="black" d="M296 171.717L316 183.143L316 160.285L296 171.717Z"></path>
<path stroke-linejoin="round" stroke-linecap="round" stroke="black" d="M296 194.574L316 206L316 183.143L296 194.574Z"></path>
<path stroke-linejoin="round" stroke-linecap="round" stroke="black" d="M296 217.432L316 228.857L316 206L296 217.432Z"></path>
<path stroke-linejoin="round" stroke-linecap="round" stroke="black" d="M296 240.289L316 251.715L316 228.858L296 240.289Z"></path>
<path stroke-linejoin="round" stroke-linecap="round" stroke="black" d="M336 80.2832L316 68.8574L316 91.7146L336 80.2832Z"></path>
<path stroke-linejoin="round" stroke-linecap="round" stroke="black" d="M216 103.146L236 114.572L236 91.7151L216 103.146Z"></path>
<path stroke-linejoin="round" stroke-linecap="round" stroke="black" d="M216 126.002L236 137.428L236 114.571L216 126.002Z"></path>
<path stroke-linejoin="round" stroke-linecap="round" stroke="black" d="M216 148.859L236 160.285L236 137.428L216 148.859Z"></path>
<path stroke-linejoin="round" stroke-linecap="round" stroke="black" d="M216 171.717L236 183.143L236 160.285L216 171.717Z"></path>
<path stroke-linejoin="round" stroke-linecap="round" stroke="black" d="M216 194.574L236 206L236 183.143L216 194.574Z"></path>
<path stroke-linejoin="round" stroke-linecap="round" stroke="black" d="M216 194.574L236 206L236 183.143L216 194.574Z"></path>
<path stroke-linejoin="round" stroke-linecap="round" stroke="black" d="M216 217.432L236 228.857L236 206L216 217.432Z"></path>
<path stroke-linejoin="round" stroke-linecap="round" stroke="black" d="M216 240.289L236 251.715L236 228.858L216 240.289Z"></path>
<path stroke-linejoin="round" stroke-linecap="round" stroke="black" d="M256 126.002L276 137.428L276 114.571L256 126.002Z"></path>
<path stroke-linejoin="round" stroke-linecap="round" stroke="black" d="M256 148.859L276 160.285L276 137.428L256 148.859Z"></path>
<path stroke-linejoin="round" stroke-linecap="round" stroke="black" d="M256 171.717L276 183.143L276 160.285L256 171.717Z"></path>
<path stroke-linejoin="round" stroke-linecap="round" stroke="black" d="M256 194.574L276 206L276 183.143L256 194.574Z"></path>
<path stroke-linejoin="round" stroke-linecap="round" stroke="black" d="M256 217.432L276 228.857L276 206L256 217.432Z"></path>
<path stroke-linejoin="round" stroke-linecap="round" stroke="black" d="M256 240.289L276 251.715L276 228.858L256 240.289Z"></path>
<path stroke-linejoin="round" stroke-linecap="round" stroke="black" d="M256 263.146L276 274.572L276 251.715L256 263.146Z"></path>
<path stroke-linejoin="round" stroke-linecap="round" stroke="black" d="M276 68.8593L296 80.2852L296 57.428L276 68.8593Z"></path>
<path stroke-linejoin="round" stroke-linecap="round" stroke="black" d="M276 91.7168L296 103.143L296 80.2854L276 91.7168Z"></path>
<path stroke-linejoin="round" stroke-linecap="round" stroke="black" d="M276 114.574L296 126L296 103.143L276 114.574Z"></path>
<path stroke-linejoin="round" stroke-linecap="round" stroke="black" d="M276 137.432L296 148.857L296 126L276 137.432Z"></path>
<path stroke-linejoin="round" stroke-linecap="round" stroke="black" d="M276 160.289L296 171.715L296 148.858L276 160.289Z"></path>
<path stroke-linejoin="round" stroke-linecap="round" stroke="black" d="M276 183.146L296 194.572L296 171.715L276 183.146Z"></path>
<path stroke-linejoin="round" stroke-linecap="round" stroke="black" d="M276 206.002L296 217.428L296 194.571L276 206.002Z"></path>
<path stroke-linejoin="round" stroke-linecap="round" stroke="black" d="M276 228.859L296 240.285L296 217.428L276 228.859Z"></path>
<path stroke-linejoin="round" stroke-linecap="round" stroke="black" d="M276 251.717L296 263.143L296 240.285L276 251.717Z"></path>
<path stroke-linejoin="round" stroke-linecap="round" stroke="black" d="M236 68.8593L256 80.2852L256 57.428L236 68.8593Z"></path>
<path stroke-linejoin="round" stroke-linecap="round" stroke="black" d="M236 91.7168L256 103.143L256 80.2854L236 91.7168Z"></path>
<path stroke-linejoin="round" stroke-linecap="round" stroke="black" d="M236 114.574L256 126L256 103.143L236 114.574Z"></path>
<path stroke-linejoin="round" stroke-linecap="round" stroke="black" d="M236 137.432L256 148.857L256 126L236 137.432Z"></path>
<path stroke-linejoin="round" stroke-linecap="round" stroke="black" d="M236 160.289L256 171.715L256 148.858L236 160.289Z"></path>
<path stroke-linejoin="round" stroke-linecap="round" stroke="black" d="M236 183.146L256 194.572L256 171.715L236 183.146Z"></path>
<path stroke-linejoin="round" stroke-linecap="round" stroke="black" d="M236 206.002L256 217.428L256 194.571L236 206.002Z"></path>
<path stroke-linejoin="round" stroke-linecap="round" stroke="black" d="M236 228.859L256 240.285L256 217.428L236 228.859Z"></path>
<path stroke-linejoin="round" stroke-linecap="round" stroke="black" d="M236 251.717L256 263.143L256 240.285L236 251.717Z"></path>
</g>
<path stroke-linejoin="round" stroke-linecap="round" stroke-width="2" stroke="url(#paint0_linear_1_6259)" d="M236 205.286L216 216.715V103.143L276 68.8574V91.7146M236 205.286V228.143L256 216.715M236 205.286V114.572L276 91.7146M256 216.715V239.572L276 228.143M256 216.715V126L296 103.143M276 228.143V251L336 217.429V103.143L316 114.572M276 228.143V137.429L316 114.572M316 114.572V91.7146L296 103.143M296 103.143V80.286L276 91.7146M297.429 187.429L307.429 193.143L319.571 164.572"></path>
<defs>
<linearGradient gradientUnits="userSpaceOnUse" y2="152.208" x2="336" y1="152.209" x1="216" id="paint0_linear_1_6259">
<stop stop-color="#271734"></stop>
<stop stop-color="#D90036" offset="1"></stop>
</linearGradient>
</defs>
</svg>
