<svg xmlns="http://www.w3.org/2000/svg" fill="none" viewBox="0 0 552 320" height="320" width="552">
<path stroke-linejoin="round" stroke-linecap="round" stroke-width="0.5" stroke="black" d="M276.243 275.007L251.243 260.721M276.243 275.007V246.435M276.243 275.007L301.243 260.721M251.243 260.721L276.243 246.435M251.243 260.721V232.149M276.243 246.435L301.243 260.721M276.243 246.435L251.243 232.149M276.243 246.435V217.864M276.243 246.435L301.243 232.149M301.243 260.721V232.149M251.243 232.149L276.243 217.864M251.243 232.149V203.578M276.243 217.864L301.243 232.149M276.243 217.864L251.243 203.578M276.243 217.864V189.292M276.243 217.864L301.243 203.578M301.243 232.149V203.578M251.243 203.578L276.243 189.292M251.243 203.578V175.006M276.243 189.292L301.243 203.578M276.243 189.292L251.243 175.006M276.243 189.292V160.72M276.243 189.292L301.243 175.006M301.243 203.578V175.006M251.243 175.006L276.243 160.72M251.243 175.006V146.435M276.243 160.72L301.243 175.006M276.243 160.72L251.243 146.435M276.243 160.72V132.149M276.243 160.72L301.243 146.435M301.243 175.006V146.435M251.243 146.435L276.243 132.149M251.243 146.435V117.863M276.243 132.149L301.243 146.435M276.243 132.149L251.243 117.863M276.243 132.149V103.578M276.243 132.149L301.243 117.863M301.243 146.435V117.863M251.243 117.863L276.243 103.578M251.243 117.863V89.2918M276.243 103.578L301.243 117.863M276.243 103.578L251.243 89.2918M276.243 103.578V75.006M276.243 103.578L301.243 89.2918M301.243 117.863V89.2918M251.243 89.2918L276.243 75.006M251.243 89.2918V60.7202M276.243 75.006L301.243 89.2918M276.243 75.006L251.243 60.7202M276.243 75.006V46.4343M276.243 75.006L301.243 60.7202M301.243 89.2918V60.7202M251.243 60.7202L276.243 46.4343M276.243 46.4343L301.243 60.7202M226.25 246.435L251.249 260.721V232.149M226.25 246.435L201.249 232.149M226.25 246.435V217.864M226.25 246.435L251.249 232.149M251.249 232.149L226.25 217.864M251.249 232.149V203.578M201.249 232.149L226.25 217.864M201.249 232.149V203.578M201.249 232.149L176.249 217.864M226.25 217.864L201.249 203.578M226.25 217.864V189.292M226.25 217.864L251.249 203.578M201.249 203.578L226.25 189.292M201.249 203.578V175.006M201.249 203.578L176.249 217.864M201.249 203.578L176.249 189.292M226.25 189.292L251.249 203.578M226.25 189.292L201.249 175.006M226.25 189.292V160.72M226.25 189.292L251.249 175.006M251.249 203.578V175.006M176.249 217.864V189.292M201.249 175.006L226.25 160.72M201.249 175.006V146.435M201.249 175.006L176.249 189.292M201.249 175.006L176.249 160.72M226.25 160.72L251.249 175.006M226.25 160.72L201.249 146.435M226.25 160.72V132.149M226.25 160.72L251.249 146.435M251.249 175.006V146.435M176.249 189.292V160.72M201.249 146.435L226.25 132.149M201.249 146.435V117.863M201.249 146.435L176.249 160.72M201.249 146.435L176.249 132.149M226.25 132.149L251.249 146.435M226.25 132.149L201.249 117.863M226.25 132.149V103.578M226.25 132.149L251.249 117.863M251.249 146.435V117.863M176.249 160.72V132.149M201.249 117.863L226.25 103.578M201.249 117.863L201.249 89.2918M201.249 117.863L176.249 132.149M201.249 117.863L176.249 103.578M226.25 103.578L251.249 117.863M226.25 103.578L201.249 89.2918M226.25 103.578V75.006M226.25 103.578L251.249 89.2918M251.249 117.863V89.2918M176.249 132.149L176.249 103.578M201.249 89.2918L226.25 75.006M201.249 89.2918L176.249 103.578M226.25 75.006L251.249 89.2918M226.25 75.006L251.249 60.7202V89.2918M326.24 246.435L301.239 260.721V232.149M326.24 246.435L301.239 232.149M326.24 246.435V217.864M326.24 246.435L351.239 232.149M301.239 232.149L326.24 217.864M301.239 232.149V203.578M326.24 217.864L351.239 232.149M326.24 217.864L301.239 203.578M326.24 217.864V189.292M326.24 217.864L351.239 203.578M351.239 232.149V203.578M351.239 232.149L376.24 217.864M301.239 203.578L326.24 189.292M301.239 203.578V175.006M326.24 189.292L351.239 203.578M326.24 189.292L301.239 175.006M326.24 189.292V160.72M326.24 189.292L351.239 175.006M351.239 203.578V175.006M351.239 203.578L376.24 217.864M351.239 203.578L376.24 189.292M376.24 217.864V189.292M301.239 175.006L326.24 160.72M301.239 175.006V146.435M326.24 160.72L351.239 175.006M326.24 160.72L301.239 146.435M326.24 160.72V132.149M326.24 160.72L351.239 146.435M351.239 175.006V146.435M351.239 175.006L376.24 189.292M351.239 175.006L376.24 160.72M376.24 189.292V160.72M301.239 146.435L326.24 132.149M301.239 146.435V117.863M326.24 132.149L351.239 146.435M326.24 132.149L301.239 117.863M326.24 132.149V103.577M326.24 132.149L351.239 117.863M351.239 146.435V117.863M351.239 146.435L376.24 160.72M351.239 146.435L376.24 132.149M376.24 160.72V132.149M301.239 117.863L326.24 103.577M301.239 117.863V89.2917M326.24 103.577L351.239 117.863M326.24 103.577L301.239 89.2917M326.24 103.577V75.0059M326.24 103.577L351.239 89.2917M351.239 117.863V89.2917M351.239 117.863L376.24 132.149M351.239 117.863L376.24 103.578M376.24 132.149V103.578M301.239 89.2917L326.24 75.0059M301.239 89.2917V60.7201L326.24 75.0059M326.24 75.0059L351.239 89.2917M351.239 89.2917L376.24 103.578M301.246 260.721V232.149V203.578V175.006V146.435V117.863V89.2917V60.7201M201.242 232.149V203.578V175.006V146.435V117.863V89.2918M351.243 232.149V203.578V175.006V146.435V117.863V89.2918M351.246 232.149V203.578V175.006V146.435V117.863V89.2917" opacity="0.15"></path>
<path fill="url(#paint0_linear_1892_9693)" d="M275.801 71.5873C262.332 71.5873 251.413 82.5057 251.413 95.9744C251.413 109.443 262.332 120.362 275.801 120.362C289.269 120.362 300.188 109.443 300.188 95.9744C300.188 82.5057 289.269 71.5873 275.801 71.5873ZM248.735 95.9744C248.735 81.0264 260.853 68.9087 275.801 68.9087C290.748 68.9087 302.866 81.0264 302.866 95.9744C302.866 110.922 290.748 123.04 275.801 123.04C260.853 123.04 248.735 110.922 248.735 95.9744Z" clip-rule="evenodd" fill-rule="evenodd"></path>
<path fill="url(#paint1_linear_1892_9693)" d="M292.485 86.7062C292.852 87.3485 292.629 88.1666 291.987 88.5336L277.31 96.9203V104.915C277.31 105.655 276.711 106.255 275.971 106.255C275.231 106.255 274.631 105.655 274.631 104.915V96.1431C274.631 95.6625 274.889 95.2187 275.306 94.9802L290.658 86.2079C291.3 85.841 292.118 86.0641 292.485 86.7062Z" clip-rule="evenodd" fill-rule="evenodd"></path>
<path fill="url(#paint2_linear_1892_9693)" d="M350.583 145.259C350.994 145.023 351.5 145.023 351.911 145.259L376.911 159.544C377.328 159.783 377.586 160.227 377.586 160.707V174.993C377.586 175.473 377.328 175.917 376.911 176.155L351.911 190.441C351.5 190.677 350.994 190.677 350.583 190.441L325.583 176.155C325.165 175.917 324.907 175.473 324.907 174.993V160.707C324.907 160.227 325.165 159.783 325.583 159.544L350.583 145.259ZM327.586 163.015V174.216L349.908 186.97V175.77L327.586 163.015ZM352.586 175.77V186.97L374.908 174.216V163.015L352.586 175.77ZM373.547 160.707L351.247 173.45L328.946 160.707L351.247 147.964L373.547 160.707Z" clip-rule="evenodd" fill-rule="evenodd"></path>
<path fill="url(#paint3_linear_1892_9693)" d="M325.583 188.116L338.083 180.973L339.411 183.298L328.946 189.279L351.247 202.021L375.583 188.116C375.997 187.879 376.506 187.88 376.919 188.12C377.332 188.36 377.586 188.801 377.586 189.279V217.85C377.586 218.331 377.328 218.774 376.911 219.013L351.911 233.298C351.5 233.534 350.994 233.534 350.583 233.298L325.583 219.013C325.165 218.774 324.907 218.331 324.907 217.85V189.279C324.907 188.798 325.165 188.354 325.583 188.116ZM349.908 204.342L327.586 191.587V217.073L349.908 229.828V204.342ZM352.586 229.828L374.908 217.073V191.587L352.586 204.342V229.828Z" clip-rule="evenodd" fill-rule="evenodd"></path>
<path fill="url(#paint4_linear_1892_9693)" d="M363.041 181.453C363.418 180.817 364.24 180.606 364.876 180.984L376.929 188.127C377.566 188.504 377.776 189.325 377.399 189.962C377.022 190.598 376.201 190.808 375.564 190.431L363.51 183.288C362.874 182.911 362.664 182.089 363.041 181.453Z" clip-rule="evenodd" fill-rule="evenodd"></path>
<path fill="url(#paint5_linear_1892_9693)" d="M200.581 145.259C200.993 145.023 201.499 145.023 201.91 145.259L226.91 159.544C227.328 159.783 227.585 160.227 227.585 160.707V174.993C227.585 175.473 227.328 175.917 226.91 176.155L201.91 190.441C201.499 190.677 200.993 190.677 200.581 190.441L175.581 176.155C175.164 175.917 174.906 175.473 174.906 174.993V160.707C174.906 160.227 175.164 159.783 175.581 159.544L200.581 145.259ZM177.585 163.015V174.216L199.907 186.97V175.77L177.585 163.015ZM202.585 175.77V186.97L224.907 174.216V163.015L202.585 175.77ZM223.547 160.707L201.246 173.45L178.945 160.707L201.246 147.964L223.547 160.707Z" clip-rule="evenodd" fill-rule="evenodd"></path>
<path fill="url(#paint6_linear_1892_9693)" d="M175.581 188.116L188.081 180.973L189.41 183.298L178.945 189.279L201.246 202.021L225.581 188.116C225.996 187.879 226.505 187.88 226.918 188.12C227.331 188.36 227.585 188.801 227.585 189.279V217.85C227.585 218.331 227.328 218.774 226.91 219.013L201.91 233.298C201.499 233.534 200.993 233.534 200.581 233.298L175.581 219.013C175.164 218.774 174.906 218.331 174.906 217.85V189.279C174.906 188.798 175.164 188.354 175.581 188.116ZM199.907 204.342L177.585 191.587V217.073L199.907 229.828V204.342ZM202.585 229.828L224.907 217.073V191.587L202.585 204.342V229.828Z" clip-rule="evenodd" fill-rule="evenodd"></path>
<path fill="url(#paint7_linear_1892_9693)" d="M213.04 181.453C213.417 180.817 214.239 180.606 214.875 180.984L226.929 188.127C227.565 188.504 227.775 189.325 227.398 189.962C227.021 190.598 226.2 190.808 225.563 190.431L213.51 183.288C212.873 182.911 212.663 182.089 213.04 181.453Z" clip-rule="evenodd" fill-rule="evenodd"></path>
<path fill="url(#paint8_linear_1892_9693)" d="M201.246 131.689C201.985 131.689 202.585 132.289 202.585 133.028V160.707C202.585 161.447 201.986 162.046 201.246 162.046C200.506 162.046 199.907 161.447 199.907 160.707V133.028C199.907 132.289 200.506 131.689 201.246 131.689Z" clip-rule="evenodd" fill-rule="evenodd"></path>
<path fill="url(#paint9_linear_1892_9693)" d="M240.797 110.034C241.169 110.673 240.951 111.493 240.312 111.865L201.919 134.186C201.28 134.558 200.46 134.341 200.088 133.701C199.716 133.062 199.933 132.242 200.573 131.87L238.966 109.549C239.605 109.177 240.425 109.394 240.797 110.034Z" clip-rule="evenodd" fill-rule="evenodd"></path>
<path fill="url(#paint10_linear_1892_9693)" d="M351.247 131.689C350.507 131.689 349.908 132.289 349.908 133.028V160.707C349.908 161.447 350.507 162.046 351.247 162.046C351.986 162.046 352.586 161.447 352.586 160.707V133.028C352.586 132.289 351.986 131.689 351.247 131.689Z" clip-rule="evenodd" fill-rule="evenodd"></path>
<path fill="url(#paint11_linear_1892_9693)" d="M312.146 110.028C311.771 110.665 311.983 111.486 312.621 111.861L350.568 134.183C351.205 134.558 352.027 134.345 352.402 133.707C352.777 133.07 352.563 132.249 351.926 131.874L313.979 109.552C313.341 109.177 312.521 109.39 312.146 110.028Z" clip-rule="evenodd" fill-rule="evenodd"></path>
<path fill="url(#paint12_linear_1892_9693)" d="M212.583 210.043C212.95 209.401 213.768 209.178 214.41 209.545L276.246 244.879L337.188 209.991C337.83 209.624 338.649 209.847 339.017 210.489C339.384 211.131 339.161 211.948 338.519 212.316L276.912 247.584C276.5 247.82 275.994 247.82 275.582 247.584L213.081 211.87C212.439 211.503 212.216 210.685 212.583 210.043Z" clip-rule="evenodd" fill-rule="evenodd"></path>
<path fill="url(#paint13_linear_1892_9693)" d="M240.978 154.457C240.978 151.745 243.177 149.546 245.889 149.546H305.711C308.423 149.546 310.622 151.745 310.622 154.457V192.85C310.622 195.562 308.423 197.761 305.711 197.761H245.889C243.177 197.761 240.978 195.562 240.978 192.85V154.457ZM245.889 152.225C244.656 152.225 243.657 153.224 243.657 154.457V192.85C243.657 194.083 244.656 195.082 245.889 195.082H305.711C306.943 195.082 307.943 194.083 307.943 192.85V154.457C307.943 153.224 306.943 152.225 305.711 152.225H245.889Z" clip-rule="evenodd" fill-rule="evenodd"></path>
<path fill="url(#paint14_linear_1892_9693)" d="M259.282 157.582C260.021 157.582 260.621 158.182 260.621 158.921V196.422C260.621 197.162 260.021 197.761 259.282 197.761C258.542 197.761 257.943 197.162 257.943 196.422V158.921C257.943 158.182 258.542 157.582 259.282 157.582Z" clip-rule="evenodd" fill-rule="evenodd"></path>
<path fill="url(#paint15_linear_1892_9693)" d="M241.871 158.921C241.871 158.182 242.471 157.582 243.21 157.582H308.39C309.129 157.582 309.729 158.182 309.729 158.921C309.729 159.662 309.129 160.261 308.39 160.261H243.21C242.471 160.261 241.871 159.662 241.871 158.921Z" clip-rule="evenodd" fill-rule="evenodd"></path>
<path fill="url(#paint16_linear_1892_9693)" d="M241.871 171.421C241.871 170.682 242.471 170.082 243.21 170.082H308.39C309.129 170.082 309.729 170.682 309.729 171.421C309.729 172.162 309.129 172.761 308.39 172.761H243.21C242.471 172.761 241.871 172.162 241.871 171.421Z" clip-rule="evenodd" fill-rule="evenodd"></path>
<path fill="url(#paint17_linear_1892_9693)" d="M241.871 183.922C241.871 183.182 242.471 182.582 243.21 182.582H308.39C309.129 182.582 309.729 183.182 309.729 183.922C309.729 184.662 309.129 185.261 308.39 185.261H243.21C242.471 185.261 241.871 184.662 241.871 183.922Z" clip-rule="evenodd" fill-rule="evenodd"></path>
<path fill="url(#paint18_linear_1892_9693)" d="M276.247 157.582C276.986 157.582 277.586 158.182 277.586 158.921V196.422C277.586 197.162 276.986 197.761 276.247 197.761C275.506 197.761 274.907 197.162 274.907 196.422V158.921C274.907 158.182 275.506 157.582 276.247 157.582Z" clip-rule="evenodd" fill-rule="evenodd"></path>
<path fill="url(#paint19_linear_1892_9693)" d="M293.211 157.582C293.95 157.582 294.55 158.182 294.55 158.921V196.422C294.55 197.162 293.95 197.761 293.211 197.761C292.471 197.761 291.872 197.162 291.872 196.422V158.921C291.872 158.182 292.471 157.582 293.211 157.582Z" clip-rule="evenodd" fill-rule="evenodd"></path>
<defs>
<linearGradient gradientUnits="userSpaceOnUse" y2="150.751" x2="377.586" y1="150.755" x1="174.906" id="paint0_linear_1892_9693">
<stop stop-color="#271734"></stop>
<stop stop-color="#D90036" offset="1"></stop>
</linearGradient>
<linearGradient gradientUnits="userSpaceOnUse" y2="150.752" x2="377.586" y1="150.755" x1="174.906" id="paint1_linear_1892_9693">
<stop stop-color="#271734"></stop>
<stop stop-color="#D90036" offset="1"></stop>
</linearGradient>
<linearGradient gradientUnits="userSpaceOnUse" y2="150.751" x2="377.586" y1="150.755" x1="174.906" id="paint2_linear_1892_9693">
<stop stop-color="#271734"></stop>
<stop stop-color="#D90036" offset="1"></stop>
</linearGradient>
<linearGradient gradientUnits="userSpaceOnUse" y2="150.752" x2="377.586" y1="150.755" x1="174.906" id="paint3_linear_1892_9693">
<stop stop-color="#271734"></stop>
<stop stop-color="#D90036" offset="1"></stop>
</linearGradient>
<linearGradient gradientUnits="userSpaceOnUse" y2="150.752" x2="377.586" y1="150.755" x1="174.906" id="paint4_linear_1892_9693">
<stop stop-color="#271734"></stop>
<stop stop-color="#D90036" offset="1"></stop>
</linearGradient>
<linearGradient gradientUnits="userSpaceOnUse" y2="150.751" x2="377.586" y1="150.755" x1="174.906" id="paint5_linear_1892_9693">
<stop stop-color="#271734"></stop>
<stop stop-color="#D90036" offset="1"></stop>
</linearGradient>
<linearGradient gradientUnits="userSpaceOnUse" y2="150.752" x2="377.586" y1="150.755" x1="174.906" id="paint6_linear_1892_9693">
<stop stop-color="#271734"></stop>
<stop stop-color="#D90036" offset="1"></stop>
</linearGradient>
<linearGradient gradientUnits="userSpaceOnUse" y2="150.752" x2="377.586" y1="150.755" x1="174.906" id="paint7_linear_1892_9693">
<stop stop-color="#271734"></stop>
<stop stop-color="#D90036" offset="1"></stop>
</linearGradient>
<linearGradient gradientUnits="userSpaceOnUse" y2="150.751" x2="377.586" y1="150.755" x1="174.906" id="paint8_linear_1892_9693">
<stop stop-color="#271734"></stop>
<stop stop-color="#D90036" offset="1"></stop>
</linearGradient>
<linearGradient gradientUnits="userSpaceOnUse" y2="150.751" x2="377.586" y1="150.755" x1="174.906" id="paint9_linear_1892_9693">
<stop stop-color="#271734"></stop>
<stop stop-color="#D90036" offset="1"></stop>
</linearGradient>
<linearGradient gradientUnits="userSpaceOnUse" y2="150.751" x2="377.586" y1="150.755" x1="174.906" id="paint10_linear_1892_9693">
<stop stop-color="#271734"></stop>
<stop stop-color="#D90036" offset="1"></stop>
</linearGradient>
<linearGradient gradientUnits="userSpaceOnUse" y2="150.751" x2="377.586" y1="150.755" x1="174.906" id="paint11_linear_1892_9693">
<stop stop-color="#271734"></stop>
<stop stop-color="#D90036" offset="1"></stop>
</linearGradient>
<linearGradient gradientUnits="userSpaceOnUse" y2="150.752" x2="377.586" y1="150.755" x1="174.906" id="paint12_linear_1892_9693">
<stop stop-color="#271734"></stop>
<stop stop-color="#D90036" offset="1"></stop>
</linearGradient>
<linearGradient gradientUnits="userSpaceOnUse" y2="150.752" x2="377.586" y1="150.755" x1="174.906" id="paint13_linear_1892_9693">
<stop stop-color="#271734"></stop>
<stop stop-color="#D90036" offset="1"></stop>
</linearGradient>
<linearGradient gradientUnits="userSpaceOnUse" y2="150.752" x2="377.586" y1="150.755" x1="174.906" id="paint14_linear_1892_9693">
<stop stop-color="#271734"></stop>
<stop stop-color="#D90036" offset="1"></stop>
</linearGradient>
<linearGradient gradientUnits="userSpaceOnUse" y2="150.752" x2="377.586" y1="150.755" x1="174.906" id="paint15_linear_1892_9693">
<stop stop-color="#271734"></stop>
<stop stop-color="#D90036" offset="1"></stop>
</linearGradient>
<linearGradient gradientUnits="userSpaceOnUse" y2="150.752" x2="377.586" y1="150.755" x1="174.906" id="paint16_linear_1892_9693">
<stop stop-color="#271734"></stop>
<stop stop-color="#D90036" offset="1"></stop>
</linearGradient>
<linearGradient gradientUnits="userSpaceOnUse" y2="150.752" x2="377.586" y1="150.755" x1="174.906" id="paint17_linear_1892_9693">
<stop stop-color="#271734"></stop>
<stop stop-color="#D90036" offset="1"></stop>
</linearGradient>
<linearGradient gradientUnits="userSpaceOnUse" y2="150.752" x2="377.586" y1="150.755" x1="174.907" id="paint18_linear_1892_9693">
<stop stop-color="#271734"></stop>
<stop stop-color="#D90036" offset="1"></stop>
</linearGradient>
<linearGradient gradientUnits="userSpaceOnUse" y2="150.752" x2="377.586" y1="150.755" x1="174.906" id="paint19_linear_1892_9693">
<stop stop-color="#271734"></stop>
<stop stop-color="#D90036" offset="1"></stop>
</linearGradient>
</defs>
</svg>
