<svg xmlns="http://www.w3.org/2000/svg" fill="none" viewBox="0 0 552 320" height="320" width="552">
<path stroke-linejoin="round" stroke-linecap="round" stroke-width="0.5" stroke="black" d="M275.847 274.115L250.945 259.885M275.847 274.115V245.655M275.847 274.115L300.75 259.885M250.945 259.885L275.847 245.655M250.945 259.885V231.425M275.847 245.655L300.75 259.885M275.847 245.655L250.945 231.425M275.847 245.655V217.195M275.847 245.655L300.75 231.425M300.75 259.885V231.425M250.945 231.425L275.847 217.195M250.945 231.425V202.965M275.847 217.195L300.75 231.425M275.847 217.195L250.945 202.965M275.847 217.195V188.734M275.847 217.195L300.75 202.965M300.75 231.425V202.965M250.945 202.965L275.847 188.734M250.945 202.965V174.504M275.847 188.734L300.75 202.965M275.847 188.734L250.945 174.504M275.847 188.734V160.274M275.847 188.734L300.75 174.504M300.75 202.965V174.504M250.945 174.504L275.847 160.274M250.945 174.504V146.044M275.847 160.274L300.75 174.504M275.847 160.274L250.945 146.044M275.847 160.274V131.815M275.847 160.274L300.75 146.044M300.75 174.504V146.044M250.945 146.044L275.847 131.815M250.945 146.044V117.585M275.847 131.815L300.75 146.044M275.847 131.815L250.945 117.585M275.847 131.815V103.355M275.847 131.815L300.75 117.585M300.75 146.044V117.585M250.945 117.585L275.847 103.355M250.945 117.585V89.1245M275.847 103.355L300.75 117.585M275.847 103.355L250.945 89.1245M275.847 103.355V74.8944M275.847 103.355L300.75 89.1245M300.75 117.585V89.1245M250.945 89.1245L275.847 74.8944M250.945 89.1245V60.6644M275.847 74.8944L300.75 89.1245M275.847 74.8944L250.945 60.6644M275.847 74.8944V46.4343M275.847 74.8944L300.75 60.6644M300.75 89.1245V60.6644M250.945 60.6644L275.847 46.4343M275.847 46.4343L300.75 60.6644M226.049 245.655L250.951 259.885V231.425M226.049 245.655L201.146 231.425M226.049 245.655V217.195M226.049 245.655L250.951 231.425M250.951 231.425L226.049 217.195M250.951 231.425V202.965M201.146 231.425L226.049 217.195M201.146 231.425V202.965M201.146 231.425L176.244 217.195M226.049 217.195L201.146 202.965M226.049 217.195V188.734M226.049 217.195L250.951 202.965M201.146 202.965L226.049 188.734M201.146 202.965V174.504M201.146 202.965L176.244 217.195M201.146 202.965L176.244 188.734M226.049 188.734L250.951 202.965M226.049 188.734L201.146 174.504M226.049 188.734V160.274M226.049 188.734L250.951 174.504M250.951 202.965V174.504M176.244 217.195V188.734M201.146 174.504L226.049 160.274M201.146 174.504V146.044M201.146 174.504L176.244 188.734M201.146 174.504L176.244 160.274M226.049 160.274L250.951 174.504M226.049 160.274L201.146 146.044M226.049 160.274V131.815M226.049 160.274L250.951 146.044M250.951 174.504V146.044M176.244 188.734V160.274M201.146 146.044L226.049 131.815M201.146 146.044V117.585M201.146 146.044L176.244 160.274M201.146 146.044L176.244 131.815M226.049 131.815L250.951 146.044M226.049 131.815L201.146 117.585M226.049 131.815V103.355M226.049 131.815L250.951 117.585M250.951 146.044V117.585M176.244 160.274V131.815M201.146 117.585L226.049 103.355M201.146 117.585L201.146 89.1245M201.146 117.585L176.244 131.815M201.146 117.585L176.244 103.355M226.049 103.355L250.951 117.585M226.049 103.355L201.146 89.1245M226.049 103.355V74.8944M226.049 103.355L250.951 89.1245M250.951 117.585V89.1245M176.244 131.815L176.244 103.355M201.146 89.1245L226.049 74.8944M201.146 89.1245L176.244 103.355M226.049 74.8944L250.951 89.1245M226.049 74.8944L250.951 60.6644V89.1245M325.649 245.655L300.746 259.885V231.425M325.649 245.655L300.746 231.425M325.649 245.655V217.195M325.649 245.655L350.551 231.425M300.746 231.425L325.649 217.195M300.746 231.425V202.965M325.649 217.195L350.551 231.425M325.649 217.195L300.746 202.965M325.649 217.195V188.734M325.649 217.195L350.551 202.965M350.551 231.425V202.965M350.551 231.425L375.454 217.195M300.746 202.965L325.649 188.734M300.746 202.965V174.504M325.649 188.734L350.551 202.965M325.649 188.734L300.746 174.504M325.649 188.734V160.274M325.649 188.734L350.551 174.504M350.551 202.965V174.504M350.551 202.965L375.454 217.195M350.551 202.965L375.454 188.734M375.454 217.195V188.734M300.746 174.504L325.649 160.274M300.746 174.504V146.044M325.649 160.274L350.551 174.504M325.649 160.274L300.746 146.044M325.649 160.274V131.814M325.649 160.274L350.551 146.044M350.551 174.504V146.044M350.551 174.504L375.454 188.734M350.551 174.504L375.454 160.274M375.454 188.734V160.274M300.746 146.044L325.649 131.814M300.746 146.044V117.584M325.649 131.814L350.551 146.044M325.649 131.814L300.746 117.584M325.649 131.814V103.354M325.649 131.814L350.551 117.585M350.551 146.044V117.585M350.551 146.044L375.454 160.274M350.551 146.044L375.454 131.814M375.454 160.274V131.814M300.746 117.584L325.649 103.354M300.746 117.584V89.1244M325.649 103.354L350.551 117.585M325.649 103.354L300.746 89.1244M325.649 103.354V74.8943M325.649 103.354L350.551 89.1244M350.551 117.585V89.1244M350.551 117.585L375.454 131.814M350.551 117.585L375.454 103.355M375.454 131.814V103.355M300.746 89.1244L325.649 74.8943M300.746 89.1244V60.6643L325.649 74.8943M325.649 74.8943L350.551 89.1244M350.551 89.1244L375.454 103.355M300.753 259.885V231.425V202.965V174.504V146.044V117.584V89.1244V60.6643M201.14 231.425V202.965V174.504V146.044V117.585V89.1245M350.555 231.425V202.965V174.504V146.044V117.585V89.1245M350.558 231.425V202.965V174.504V146.044V117.585V89.1244" opacity="0.15"></path>
<path fill="url(#paint0_linear_1892_9742)" d="M351.221 87.9698C351.633 88.2085 351.886 88.648 351.886 89.1236V174.949C351.886 175.685 351.289 176.283 350.552 176.283C349.815 176.283 349.218 175.685 349.218 174.949V103.901L252.275 160.594V257.585L324.987 216.036C325.627 215.67 326.442 215.892 326.808 216.532C327.173 217.172 326.951 217.987 326.311 218.352L251.603 261.042C251.19 261.278 250.683 261.276 250.272 261.038C249.861 260.8 249.607 260.359 249.607 259.884V159.854C249.607 159.838 249.607 159.822 249.607 159.806V146.044C249.607 145.565 249.864 145.123 250.28 144.885L349.89 87.9653C350.303 87.7294 350.81 87.7311 351.221 87.9698ZM252.275 157.504L349.218 100.81V91.4224L252.275 146.818V157.504Z" clip-rule="evenodd" fill-rule="evenodd"></path>
<path fill="url(#paint1_linear_1892_9742)" d="M349.89 173.346C350.3 173.112 350.803 173.112 351.213 173.346L376.116 187.576C376.532 187.813 376.788 188.255 376.788 188.735V217.195C376.788 217.673 376.532 218.115 376.116 218.353L351.213 232.583C350.803 232.816 350.3 232.816 349.89 232.583L324.987 218.353C324.572 218.115 324.315 217.673 324.315 217.195V188.735C324.315 188.255 324.572 187.813 324.987 187.576L349.89 173.346ZM326.983 189.508V216.42L350.552 229.888L374.12 216.42V189.508L350.552 176.04L326.983 189.508Z" clip-rule="evenodd" fill-rule="evenodd"></path>
<path fill="url(#paint2_linear_1892_9742)" d="M341.519 193.929V211.999H359.588V193.929H341.519ZM339.74 191.261C339.249 191.261 338.851 191.66 338.851 192.151V213.778C338.851 214.269 339.249 214.667 339.74 214.667H361.366C361.858 214.667 362.256 214.269 362.256 213.778V192.151C362.256 191.66 361.858 191.261 361.366 191.261H339.74Z" clip-rule="evenodd" fill-rule="evenodd"></path>
<path fill="url(#paint3_linear_1892_9742)" d="M347.227 199.639V206.289H353.877V199.639H347.227ZM345.448 196.971C344.957 196.971 344.559 197.369 344.559 197.86V208.068C344.559 208.559 344.957 208.957 345.448 208.957H355.656C356.147 208.957 356.545 208.559 356.545 208.068V197.86C356.545 197.369 356.147 196.971 355.656 196.971H345.448Z" clip-rule="evenodd" fill-rule="evenodd"></path>
<path fill="url(#paint4_linear_1892_9742)" d="M343.437 193.695C342.823 193.695 342.325 193.197 342.325 192.584V186.642C342.325 186.029 342.823 185.531 343.437 185.531C344.051 185.531 344.548 186.029 344.548 186.642V192.584C344.548 193.197 344.051 193.695 343.437 193.695Z" clip-rule="evenodd" fill-rule="evenodd"></path>
<path fill="url(#paint5_linear_1892_9742)" d="M360.123 196.294C360.123 195.68 360.621 195.182 361.235 195.182H367.175C367.789 195.182 368.287 195.68 368.287 196.294C368.287 196.908 367.789 197.406 367.175 197.406H361.235C360.621 197.406 360.123 196.908 360.123 196.294Z" clip-rule="evenodd" fill-rule="evenodd"></path>
<path fill="url(#paint6_linear_1892_9742)" d="M343.437 221.003C342.823 221.003 342.325 220.506 342.325 219.891V213.951C342.325 213.336 342.823 212.839 343.437 212.839C344.051 212.839 344.548 213.336 344.548 213.951V219.891C344.548 220.506 344.051 221.003 343.437 221.003Z" clip-rule="evenodd" fill-rule="evenodd"></path>
<path fill="url(#paint7_linear_1892_9742)" d="M332.817 196.294C332.817 195.68 333.314 195.182 333.928 195.182H339.868C340.483 195.182 340.98 195.68 340.98 196.294C340.98 196.908 340.483 197.406 339.868 197.406H333.928C333.314 197.406 332.817 196.908 332.817 196.294Z" clip-rule="evenodd" fill-rule="evenodd"></path>
<path fill="url(#paint8_linear_1892_9742)" d="M347.883 193.695C347.27 193.695 346.772 193.197 346.772 192.584V186.642C346.772 186.029 347.27 185.531 347.883 185.531C348.498 185.531 348.995 186.029 348.995 186.642V192.584C348.995 193.197 348.498 193.695 347.883 193.695Z" clip-rule="evenodd" fill-rule="evenodd"></path>
<path fill="url(#paint9_linear_1892_9742)" d="M360.123 200.741C360.123 200.127 360.621 199.629 361.235 199.629H367.175C367.789 199.629 368.287 200.127 368.287 200.741C368.287 201.355 367.789 201.853 367.175 201.853H361.235C360.621 201.853 360.123 201.355 360.123 200.741Z" clip-rule="evenodd" fill-rule="evenodd"></path>
<path fill="url(#paint10_linear_1892_9742)" d="M347.883 221.003C347.27 221.003 346.772 220.506 346.772 219.891V213.951C346.772 213.336 347.27 212.839 347.883 212.839C348.498 212.839 348.995 213.336 348.995 213.951V219.891C348.995 220.506 348.498 221.003 347.883 221.003Z" clip-rule="evenodd" fill-rule="evenodd"></path>
<path fill="url(#paint11_linear_1892_9742)" d="M332.817 200.741C332.817 200.127 333.314 199.629 333.928 199.629H339.868C340.483 199.629 340.98 200.127 340.98 200.741C340.98 201.355 340.483 201.853 339.868 201.853H333.928C333.314 201.853 332.817 201.355 332.817 200.741Z" clip-rule="evenodd" fill-rule="evenodd"></path>
<path fill="url(#paint12_linear_1892_9742)" d="M352.33 193.695C351.717 193.695 351.219 193.197 351.219 192.584V186.642C351.219 186.029 351.717 185.531 352.33 185.531C352.945 185.531 353.442 186.029 353.442 186.642V192.584C353.442 193.197 352.945 193.695 352.33 193.695Z" clip-rule="evenodd" fill-rule="evenodd"></path>
<path fill="url(#paint13_linear_1892_9742)" d="M360.123 205.188C360.123 204.573 360.621 204.076 361.235 204.076H367.175C367.789 204.076 368.287 204.573 368.287 205.188C368.287 205.802 367.789 206.3 367.175 206.3H361.235C360.621 206.3 360.123 205.802 360.123 205.188Z" clip-rule="evenodd" fill-rule="evenodd"></path>
<path fill="url(#paint14_linear_1892_9742)" d="M352.33 221.003C351.717 221.003 351.219 220.506 351.219 219.891V213.951C351.219 213.336 351.717 212.839 352.33 212.839C352.945 212.839 353.442 213.336 353.442 213.951V219.891C353.442 220.506 352.945 221.003 352.33 221.003Z" clip-rule="evenodd" fill-rule="evenodd"></path>
<path fill="url(#paint15_linear_1892_9742)" d="M332.817 205.188C332.817 204.573 333.314 204.076 333.928 204.076H339.868C340.483 204.076 340.98 204.573 340.98 205.188C340.98 205.802 340.483 206.3 339.868 206.3H333.928C333.314 206.3 332.817 205.802 332.817 205.188Z" clip-rule="evenodd" fill-rule="evenodd"></path>
<path fill="url(#paint16_linear_1892_9742)" d="M356.777 193.695C356.164 193.695 355.666 193.197 355.666 192.584V186.642C355.666 186.029 356.164 185.531 356.777 185.531C357.392 185.531 357.889 186.029 357.889 186.642V192.584C357.889 193.197 357.392 193.695 356.777 193.695Z" clip-rule="evenodd" fill-rule="evenodd"></path>
<path fill="url(#paint17_linear_1892_9742)" d="M360.123 209.635C360.123 209.02 360.621 208.523 361.235 208.523H367.175C367.789 208.523 368.287 209.02 368.287 209.635C368.287 210.248 367.789 210.746 367.175 210.746H361.235C360.621 210.746 360.123 210.248 360.123 209.635Z" clip-rule="evenodd" fill-rule="evenodd"></path>
<path fill="url(#paint18_linear_1892_9742)" d="M356.777 221.003C356.164 221.003 355.666 220.506 355.666 219.891V213.951C355.666 213.336 356.164 212.839 356.777 212.839C357.392 212.839 357.889 213.336 357.889 213.951V219.891C357.889 220.506 357.392 221.003 356.777 221.003Z" clip-rule="evenodd" fill-rule="evenodd"></path>
<path fill="url(#paint19_linear_1892_9742)" d="M332.817 209.635C332.817 209.02 333.314 208.523 333.928 208.523H339.868C340.483 208.523 340.98 209.02 340.98 209.635C340.98 210.248 340.483 210.746 339.868 210.746H333.928C333.314 210.746 332.817 210.248 332.817 209.635Z" clip-rule="evenodd" fill-rule="evenodd"></path>
<path fill="url(#paint20_linear_1892_9742)" d="M317.469 158.352C317.549 157.62 318.206 157.09 318.939 157.169L336.178 159.027L319.318 180.661C318.864 181.241 318.026 181.346 317.445 180.893C316.864 180.439 316.76 179.601 317.213 179.02L331.128 161.166L318.653 159.822C317.92 159.743 317.39 159.085 317.469 158.352ZM308.72 163.144C309.395 163.441 309.701 164.228 309.405 164.902L297.2 192.65C296.903 193.325 296.115 193.631 295.441 193.335C294.767 193.038 294.46 192.251 294.757 191.577L306.961 163.828C307.258 163.153 308.046 162.847 308.72 163.144ZM286.689 175.565C287.282 176.004 287.407 176.839 286.969 177.431L273.017 196.3L284.934 197.187C285.669 197.241 286.22 197.882 286.165 198.616C286.111 199.351 285.471 199.902 284.736 199.847L267.998 198.6L284.824 175.846C285.262 175.253 286.097 175.128 286.689 175.565Z" clip-rule="evenodd" fill-rule="evenodd"></path>
<path fill="url(#paint21_linear_1892_9742)" d="M261.907 146.489C261.907 147.716 261.045 149.21 259.982 149.824C258.918 150.438 258.056 149.94 258.056 148.712C258.056 147.484 258.918 145.991 259.982 145.377C261.045 144.763 261.907 145.261 261.907 146.489Z"></path>
<path fill="url(#paint22_linear_1892_9742)" d="M268.071 142.931C268.071 144.159 267.209 145.652 266.145 146.267C265.082 146.88 264.22 146.382 264.22 145.155C264.22 143.927 265.082 142.433 266.145 141.82C267.209 141.205 268.071 141.703 268.071 142.931Z"></path>
<path fill="url(#paint23_linear_1892_9742)" d="M274.231 139.374C274.231 140.601 273.368 142.095 272.305 142.709C271.241 143.323 270.38 142.825 270.38 141.597C270.38 140.369 271.241 138.876 272.305 138.262C273.368 137.648 274.231 138.146 274.231 139.374Z"></path>
<path fill="url(#paint24_linear_1892_9742)" d="M326.319 73.7398C326.731 73.9785 326.983 74.418 326.983 74.8936V102.909C326.983 103.646 326.386 104.243 325.649 104.243C324.913 104.243 324.315 103.646 324.315 102.909V89.6706L227.373 146.364V243.355L250.28 230.266C250.919 229.9 251.734 230.122 252.1 230.762C252.466 231.402 252.243 232.217 251.603 232.582L226.701 246.812C226.288 247.048 225.781 247.046 225.369 246.808C224.958 246.57 224.705 246.129 224.705 245.655V145.624C224.705 145.608 224.705 145.592 224.705 145.576V131.814C224.705 131.335 224.961 130.893 225.377 130.656L324.987 73.7354C325.4 73.4994 325.908 73.5011 326.319 73.7398ZM227.373 143.274L324.315 86.5797V77.1925L227.373 132.588V143.274Z" clip-rule="evenodd" fill-rule="evenodd"></path>
<path fill="url(#paint25_linear_1892_9742)" d="M237.005 132.258C237.005 133.487 236.143 134.98 235.079 135.594C234.016 136.208 233.154 135.71 233.154 134.482C233.154 133.254 234.016 131.761 235.079 131.147C236.143 130.533 237.005 131.031 237.005 132.258Z"></path>
<path fill="url(#paint26_linear_1892_9742)" d="M243.168 128.701C243.168 129.929 242.306 131.422 241.243 132.036C240.179 132.65 239.317 132.153 239.317 130.925C239.317 129.697 240.179 128.203 241.243 127.589C242.306 126.975 243.168 127.473 243.168 128.701Z"></path>
<path fill="url(#paint27_linear_1892_9742)" d="M249.328 125.143C249.328 126.372 248.466 127.865 247.402 128.479C246.339 129.093 245.477 128.595 245.477 127.367C245.477 126.139 246.339 124.646 247.402 124.032C248.466 123.418 249.328 123.916 249.328 125.143Z"></path>
<path fill="url(#paint28_linear_1892_9742)" d="M301.416 59.5098C301.828 59.7485 302.081 60.1881 302.081 60.6636V88.2343C302.081 88.9712 301.484 89.5684 300.746 89.5684C300.01 89.5684 299.412 88.9712 299.412 88.2343V75.4406L202.47 132.134V229.104L224.923 216.041C225.56 215.67 226.377 215.886 226.747 216.523C227.118 217.16 226.902 217.976 226.265 218.347L201.807 232.577C201.395 232.817 200.885 232.818 200.471 232.581C200.057 232.342 199.802 231.901 199.802 231.425V131.394C199.802 131.378 199.802 131.362 199.802 131.346V117.584C199.802 117.105 200.059 116.663 200.474 116.426L300.085 59.5054C300.497 59.2694 301.005 59.2711 301.416 59.5098ZM202.47 129.043L299.412 72.3497V62.9625L202.47 118.358V129.043Z" clip-rule="evenodd" fill-rule="evenodd"></path>
<path fill="url(#paint29_linear_1892_9742)" d="M212.102 118.028C212.102 119.257 211.24 120.75 210.177 121.364C209.113 121.978 208.251 121.48 208.251 120.252C208.251 119.024 209.113 117.531 210.177 116.917C211.24 116.303 212.102 116.801 212.102 118.028Z"></path>
<path fill="url(#paint30_linear_1892_9742)" d="M218.266 114.471C218.266 115.699 217.403 117.192 216.34 117.806C215.277 118.42 214.414 117.922 214.414 116.694C214.414 115.466 215.277 113.973 216.34 113.359C217.403 112.745 218.266 113.243 218.266 114.471Z"></path>
<path fill="url(#paint31_linear_1892_9742)" d="M224.425 110.914C224.425 112.142 223.563 113.635 222.5 114.249C221.436 114.863 220.574 114.365 220.574 113.137C220.574 111.909 221.436 110.416 222.5 109.802C223.563 109.188 224.425 109.686 224.425 110.914Z"></path>
<defs>
<linearGradient gradientUnits="userSpaceOnUse" y2="151.715" x2="376.788" y1="151.718" x1="199.802" id="paint0_linear_1892_9742">
<stop stop-color="#271734"></stop>
<stop stop-color="#D90036" offset="1"></stop>
</linearGradient>
<linearGradient gradientUnits="userSpaceOnUse" y2="151.715" x2="376.788" y1="151.718" x1="199.802" id="paint1_linear_1892_9742">
<stop stop-color="#271734"></stop>
<stop stop-color="#D90036" offset="1"></stop>
</linearGradient>
<linearGradient gradientUnits="userSpaceOnUse" y2="151.715" x2="376.788" y1="151.718" x1="199.802" id="paint2_linear_1892_9742">
<stop stop-color="#271734"></stop>
<stop stop-color="#D90036" offset="1"></stop>
</linearGradient>
<linearGradient gradientUnits="userSpaceOnUse" y2="151.715" x2="376.788" y1="151.718" x1="199.802" id="paint3_linear_1892_9742">
<stop stop-color="#271734"></stop>
<stop stop-color="#D90036" offset="1"></stop>
</linearGradient>
<linearGradient gradientUnits="userSpaceOnUse" y2="151.715" x2="376.788" y1="151.718" x1="199.802" id="paint4_linear_1892_9742">
<stop stop-color="#271734"></stop>
<stop stop-color="#D90036" offset="1"></stop>
</linearGradient>
<linearGradient gradientUnits="userSpaceOnUse" y2="151.715" x2="376.788" y1="151.718" x1="199.802" id="paint5_linear_1892_9742">
<stop stop-color="#271734"></stop>
<stop stop-color="#D90036" offset="1"></stop>
</linearGradient>
<linearGradient gradientUnits="userSpaceOnUse" y2="151.715" x2="376.788" y1="151.718" x1="199.802" id="paint6_linear_1892_9742">
<stop stop-color="#271734"></stop>
<stop stop-color="#D90036" offset="1"></stop>
</linearGradient>
<linearGradient gradientUnits="userSpaceOnUse" y2="151.715" x2="376.788" y1="151.718" x1="199.802" id="paint7_linear_1892_9742">
<stop stop-color="#271734"></stop>
<stop stop-color="#D90036" offset="1"></stop>
</linearGradient>
<linearGradient gradientUnits="userSpaceOnUse" y2="151.715" x2="376.788" y1="151.718" x1="199.802" id="paint8_linear_1892_9742">
<stop stop-color="#271734"></stop>
<stop stop-color="#D90036" offset="1"></stop>
</linearGradient>
<linearGradient gradientUnits="userSpaceOnUse" y2="151.715" x2="376.788" y1="151.718" x1="199.802" id="paint9_linear_1892_9742">
<stop stop-color="#271734"></stop>
<stop stop-color="#D90036" offset="1"></stop>
</linearGradient>
<linearGradient gradientUnits="userSpaceOnUse" y2="151.715" x2="376.788" y1="151.718" x1="199.802" id="paint10_linear_1892_9742">
<stop stop-color="#271734"></stop>
<stop stop-color="#D90036" offset="1"></stop>
</linearGradient>
<linearGradient gradientUnits="userSpaceOnUse" y2="151.715" x2="376.788" y1="151.718" x1="199.802" id="paint11_linear_1892_9742">
<stop stop-color="#271734"></stop>
<stop stop-color="#D90036" offset="1"></stop>
</linearGradient>
<linearGradient gradientUnits="userSpaceOnUse" y2="151.715" x2="376.788" y1="151.718" x1="199.802" id="paint12_linear_1892_9742">
<stop stop-color="#271734"></stop>
<stop stop-color="#D90036" offset="1"></stop>
</linearGradient>
<linearGradient gradientUnits="userSpaceOnUse" y2="151.715" x2="376.788" y1="151.718" x1="199.802" id="paint13_linear_1892_9742">
<stop stop-color="#271734"></stop>
<stop stop-color="#D90036" offset="1"></stop>
</linearGradient>
<linearGradient gradientUnits="userSpaceOnUse" y2="151.715" x2="376.788" y1="151.718" x1="199.802" id="paint14_linear_1892_9742">
<stop stop-color="#271734"></stop>
<stop stop-color="#D90036" offset="1"></stop>
</linearGradient>
<linearGradient gradientUnits="userSpaceOnUse" y2="151.715" x2="376.788" y1="151.718" x1="199.802" id="paint15_linear_1892_9742">
<stop stop-color="#271734"></stop>
<stop stop-color="#D90036" offset="1"></stop>
</linearGradient>
<linearGradient gradientUnits="userSpaceOnUse" y2="151.715" x2="376.788" y1="151.718" x1="199.802" id="paint16_linear_1892_9742">
<stop stop-color="#271734"></stop>
<stop stop-color="#D90036" offset="1"></stop>
</linearGradient>
<linearGradient gradientUnits="userSpaceOnUse" y2="151.715" x2="376.788" y1="151.718" x1="199.802" id="paint17_linear_1892_9742">
<stop stop-color="#271734"></stop>
<stop stop-color="#D90036" offset="1"></stop>
</linearGradient>
<linearGradient gradientUnits="userSpaceOnUse" y2="151.715" x2="376.788" y1="151.718" x1="199.802" id="paint18_linear_1892_9742">
<stop stop-color="#271734"></stop>
<stop stop-color="#D90036" offset="1"></stop>
</linearGradient>
<linearGradient gradientUnits="userSpaceOnUse" y2="151.715" x2="376.788" y1="151.718" x1="199.802" id="paint19_linear_1892_9742">
<stop stop-color="#271734"></stop>
<stop stop-color="#D90036" offset="1"></stop>
</linearGradient>
<linearGradient gradientUnits="userSpaceOnUse" y2="151.715" x2="376.788" y1="151.718" x1="199.802" id="paint20_linear_1892_9742">
<stop stop-color="#271734"></stop>
<stop stop-color="#D90036" offset="1"></stop>
</linearGradient>
<linearGradient gradientUnits="userSpaceOnUse" y2="151.715" x2="376.788" y1="151.718" x1="199.802" id="paint21_linear_1892_9742">
<stop stop-color="#271734"></stop>
<stop stop-color="#D90036" offset="1"></stop>
</linearGradient>
<linearGradient gradientUnits="userSpaceOnUse" y2="151.715" x2="376.788" y1="151.718" x1="199.802" id="paint22_linear_1892_9742">
<stop stop-color="#271734"></stop>
<stop stop-color="#D90036" offset="1"></stop>
</linearGradient>
<linearGradient gradientUnits="userSpaceOnUse" y2="151.715" x2="376.788" y1="151.718" x1="199.802" id="paint23_linear_1892_9742">
<stop stop-color="#271734"></stop>
<stop stop-color="#D90036" offset="1"></stop>
</linearGradient>
<linearGradient gradientUnits="userSpaceOnUse" y2="151.715" x2="376.788" y1="151.718" x1="199.802" id="paint24_linear_1892_9742">
<stop stop-color="#271734"></stop>
<stop stop-color="#D90036" offset="1"></stop>
</linearGradient>
<linearGradient gradientUnits="userSpaceOnUse" y2="151.715" x2="376.788" y1="151.718" x1="199.802" id="paint25_linear_1892_9742">
<stop stop-color="#271734"></stop>
<stop stop-color="#D90036" offset="1"></stop>
</linearGradient>
<linearGradient gradientUnits="userSpaceOnUse" y2="151.715" x2="376.788" y1="151.718" x1="199.802" id="paint26_linear_1892_9742">
<stop stop-color="#271734"></stop>
<stop stop-color="#D90036" offset="1"></stop>
</linearGradient>
<linearGradient gradientUnits="userSpaceOnUse" y2="151.715" x2="376.788" y1="151.718" x1="199.802" id="paint27_linear_1892_9742">
<stop stop-color="#271734"></stop>
<stop stop-color="#D90036" offset="1"></stop>
</linearGradient>
<linearGradient gradientUnits="userSpaceOnUse" y2="151.715" x2="376.788" y1="151.718" x1="199.802" id="paint28_linear_1892_9742">
<stop stop-color="#271734"></stop>
<stop stop-color="#D90036" offset="1"></stop>
</linearGradient>
<linearGradient gradientUnits="userSpaceOnUse" y2="151.715" x2="376.788" y1="151.718" x1="199.802" id="paint29_linear_1892_9742">
<stop stop-color="#271734"></stop>
<stop stop-color="#D90036" offset="1"></stop>
</linearGradient>
<linearGradient gradientUnits="userSpaceOnUse" y2="151.715" x2="376.788" y1="151.718" x1="199.802" id="paint30_linear_1892_9742">
<stop stop-color="#271734"></stop>
<stop stop-color="#D90036" offset="1"></stop>
</linearGradient>
<linearGradient gradientUnits="userSpaceOnUse" y2="151.715" x2="376.788" y1="151.718" x1="199.802" id="paint31_linear_1892_9742">
<stop stop-color="#271734"></stop>
<stop stop-color="#D90036" offset="1"></stop>
</linearGradient>
</defs>
</svg>
