<svg xmlns="http://www.w3.org/2000/svg" fill="none" viewBox="0 0 552 320" height="320" width="552">
<path stroke-linejoin="round" stroke-linecap="round" stroke-width="0.5" stroke="black" d="M276.242 274.688L251.241 260.401M276.242 274.688V246.115M276.242 274.688L301.244 260.401M251.241 260.401L276.242 246.115M251.241 260.401V231.828M276.242 246.115L301.244 260.401M276.242 246.115L251.241 231.828M276.242 246.115V217.542M276.242 246.115L301.244 231.828M301.244 260.401V231.828M251.241 231.828L276.242 217.542M251.241 231.828V203.256M276.242 217.542L301.244 231.828M276.242 217.542L251.241 203.256M276.242 217.542V188.969M276.242 217.542L301.244 203.256M301.244 231.828V203.256M251.241 203.256L276.242 188.969M251.241 203.256V174.683M276.242 188.969L301.244 203.256M276.242 188.969L251.241 174.683M276.242 188.969V160.396M276.242 188.969L301.244 174.683M301.244 203.256V174.683M251.241 174.683L276.242 160.396M251.241 174.683V146.11M276.242 160.396L301.244 174.683M276.242 160.396L251.241 146.11M276.242 160.396V131.824M276.242 160.396L301.244 146.11M301.244 174.683V146.11M251.241 146.11L276.242 131.824M251.241 146.11V117.537M276.242 131.824L301.244 146.11M276.242 131.824L251.241 117.537M276.242 131.824V103.251M276.242 131.824L301.244 117.537M301.244 146.11V117.537M251.241 117.537L276.242 103.251M251.241 117.537V88.9641M276.242 103.251L301.244 117.537M276.242 103.251L251.241 88.9641M276.242 103.251V74.6777M276.242 103.251L301.244 88.9641M301.244 117.537V88.9641M251.241 88.9641L276.242 74.6777M251.241 88.9641V60.3912M276.242 74.6777L301.244 88.9641M276.242 74.6777L251.241 60.3912M276.242 74.6777V46.1047M276.242 74.6777L301.244 60.3912M301.244 88.9641V60.3912M251.241 60.3912L276.242 46.1047M276.242 46.1047L301.244 60.3912M226.247 246.115L251.247 260.401V231.828M226.247 246.115L201.245 231.828M226.247 246.115V217.542M226.247 246.115L251.247 231.828M251.247 231.828L226.247 217.542M251.247 231.828V203.256M201.245 231.828L226.247 217.542M201.245 231.828V203.256M201.245 231.828L176.244 217.542M226.247 217.542L201.245 203.256M226.247 217.542V188.969M226.247 217.542L251.247 203.256M201.245 203.256L226.247 188.969M201.245 203.256V174.683M201.245 203.256L176.244 217.542M201.245 203.256L176.244 188.969M226.247 188.969L251.247 203.256M226.247 188.969L201.245 174.683M226.247 188.969V160.396M226.247 188.969L251.247 174.683M251.247 203.256V174.683M176.244 217.542V188.969M201.245 174.683L226.247 160.396M201.245 174.683V146.11M201.245 174.683L176.244 188.969M201.245 174.683L176.244 160.396M226.247 160.396L251.247 174.683M226.247 160.396L201.245 146.11M226.247 160.396V131.824M226.247 160.396L251.247 146.11M251.247 174.683V146.11M176.244 188.969V160.396M201.245 146.11L226.247 131.824M201.245 146.11V117.537M201.245 146.11L176.244 160.396M201.245 146.11L176.244 131.824M226.247 131.824L251.247 146.11M226.247 131.824L201.245 117.537M226.247 131.824V103.251M226.247 131.824L251.247 117.537M251.247 146.11V117.537M176.244 160.396V131.824M201.245 117.537L226.247 103.251M201.245 117.537L201.245 88.9641M201.245 117.537L176.244 131.824M201.245 117.537L176.244 103.251M226.247 103.251L251.247 117.537M226.247 103.251L201.245 88.9641M226.247 103.251V74.6777M226.247 103.251L251.247 88.9641M251.247 117.537V88.9641M176.244 131.824L176.244 103.251M201.245 88.9641L226.247 74.6777M201.245 88.9641L176.244 103.251M226.247 74.6777L251.247 88.9641M226.247 74.6777L251.247 60.3912V88.9641M326.241 246.115L301.239 260.401V231.828M326.241 246.115L301.239 231.828M326.241 246.115V217.542M326.241 246.115L351.242 231.828M301.239 231.828L326.241 217.542M301.239 231.828V203.256M326.241 217.542L351.242 231.828M326.241 217.542L301.239 203.256M326.241 217.542V188.969M326.241 217.542L351.242 203.256M351.242 231.828V203.256M351.242 231.828L376.244 217.542M301.239 203.256L326.241 188.969M301.239 203.256V174.683M326.241 188.969L351.242 203.256M326.241 188.969L301.239 174.683M326.241 188.969V160.396M326.241 188.969L351.242 174.683M351.242 203.256V174.683M351.242 203.256L376.244 217.542M351.242 203.256L376.244 188.969M376.244 217.542V188.969M301.239 174.683L326.241 160.396M301.239 174.683V146.11M326.241 160.396L351.242 174.683M326.241 160.396L301.239 146.11M326.241 160.396V131.823M326.241 160.396L351.242 146.11M351.242 174.683V146.11M351.242 174.683L376.244 188.969M351.242 174.683L376.244 160.396M376.244 188.969V160.396M301.239 146.11L326.241 131.823M301.239 146.11V117.537M326.241 131.823L351.242 146.11M326.241 131.823L301.239 117.537M326.241 131.823V103.251M326.241 131.823L351.242 117.537M351.242 146.11V117.537M351.242 146.11L376.244 160.396M351.242 146.11L376.244 131.823M376.244 160.396V131.823M301.239 117.537L326.241 103.251M301.239 117.537V88.9641M326.241 103.251L351.242 117.537M326.241 103.251L301.239 88.9641M326.241 103.251V74.6776M326.241 103.251L351.242 88.9641M351.242 117.537V88.9641M351.242 117.537L376.244 131.823M351.242 117.537L376.244 103.251M376.244 131.823V103.251M301.239 88.9641L326.241 74.6776M301.239 88.9641V60.3911L326.241 74.6776M326.241 74.6776L351.242 88.9641M351.242 88.9641L376.244 103.251M301.246 260.401V231.828V203.256V174.683V146.11V117.537V88.9641V60.3911M201.238 231.828V203.256V174.683V146.11V117.537V88.9641M351.246 231.828V203.256V174.683V146.11V117.537V88.9641M351.249 231.828V203.256V174.683V146.11V117.537V88.9641" opacity="0.15"></path>
<path fill="url(#paint0_linear_1892_9673)" d="M205.225 122.086C202.276 123.787 200.795 125.936 200.795 128.029C200.795 130.121 202.276 132.27 205.225 133.971C208.138 135.652 212.251 136.734 216.867 136.734C221.484 136.734 225.597 135.652 228.51 133.971C231.459 132.27 232.94 130.121 232.94 128.029C232.94 125.936 231.459 123.787 228.51 122.086C225.597 120.405 221.484 119.323 216.867 119.323C212.251 119.323 208.138 120.405 205.225 122.086ZM232.94 133.953C232.063 134.836 231.013 135.621 229.849 136.292C226.46 138.247 221.868 139.413 216.867 139.413C211.867 139.413 207.275 138.247 203.886 136.292C202.723 135.621 201.672 134.836 200.795 133.953V148.119C200.795 150.212 202.276 152.361 205.225 154.062C208.138 155.742 212.251 156.824 216.867 156.824C221.484 156.824 225.597 155.742 228.51 154.062C231.459 152.361 232.94 150.212 232.94 148.119V133.953ZM235.618 128.029V148.119C235.618 151.574 233.202 154.448 229.849 156.382C226.46 158.337 221.868 159.503 216.867 159.503C211.867 159.503 207.275 158.337 203.886 156.382C200.533 154.448 198.117 151.574 198.117 148.119V128.029C198.117 124.573 200.533 121.7 203.886 119.765C207.275 117.81 211.867 116.644 216.867 116.644C221.868 116.644 226.46 117.81 229.849 119.765C233.202 121.7 235.618 124.573 235.618 128.029Z" clip-rule="evenodd" fill-rule="evenodd"></path>
<path fill="url(#paint1_linear_1892_9673)" d="M205.225 180.125C202.276 181.826 200.795 183.975 200.795 186.067C200.795 188.16 202.276 190.309 205.225 192.01C208.138 193.691 212.251 194.773 216.867 194.773C221.484 194.773 225.597 193.691 228.51 192.01C231.459 190.309 232.94 188.16 232.94 186.067C232.94 183.975 231.459 181.826 228.51 180.125C225.597 178.444 221.484 177.361 216.867 177.361C212.251 177.361 208.138 178.444 205.225 180.125ZM232.94 191.992C232.063 192.875 231.013 193.659 229.849 194.331C226.46 196.286 221.868 197.452 216.867 197.452C211.867 197.452 207.275 196.286 203.886 194.331C202.723 193.659 201.672 192.875 200.795 191.992V206.157C200.795 208.25 202.276 210.4 205.225 212.101C208.138 213.781 212.251 214.863 216.867 214.863C221.484 214.863 225.597 213.781 228.51 212.101C231.459 210.4 232.94 208.25 232.94 206.157V191.992ZM235.618 186.067V206.157C235.618 209.613 233.202 212.486 229.849 214.421C226.46 216.376 221.868 217.542 216.867 217.542C211.867 217.542 207.275 216.376 203.886 214.421C200.533 212.486 198.117 209.613 198.117 206.157V186.067C198.117 182.612 200.533 179.739 203.886 177.804C207.275 175.85 211.867 174.683 216.867 174.683C221.868 174.683 226.46 175.85 229.849 177.804C233.202 179.739 235.618 182.612 235.618 186.067Z" clip-rule="evenodd" fill-rule="evenodd"></path>
<path fill="url(#paint2_linear_1892_9673)" d="M249.905 87.1028L277.585 102.92V134.578L249.905 118.761V87.1028ZM252.584 91.7187V117.206L274.907 129.962V104.474L252.584 91.7187Z" clip-rule="evenodd" fill-rule="evenodd"></path>
<path fill="url(#paint3_linear_1892_9673)" d="M264.907 110.173C265.275 110.815 265.053 111.634 264.412 112.002L240.303 125.842C239.662 126.21 238.843 125.989 238.475 125.347C238.107 124.706 238.328 123.887 238.97 123.519L263.078 109.679C263.719 109.311 264.538 109.532 264.907 110.173Z" clip-rule="evenodd" fill-rule="evenodd"></path>
<path fill="url(#paint4_linear_1892_9673)" d="M347.267 180.125C350.215 181.826 351.696 183.975 351.696 186.067C351.696 188.16 350.215 190.309 347.267 192.01C344.353 193.691 340.239 194.773 335.624 194.773C331.008 194.773 326.894 193.691 323.981 192.01C321.032 190.309 319.552 188.16 319.552 186.067C319.552 183.975 321.032 181.826 323.981 180.125C326.894 178.444 331.008 177.361 335.624 177.361C340.239 177.361 344.353 178.444 347.267 180.125ZM319.552 191.992C320.428 192.875 321.479 193.659 322.643 194.331C326.032 196.286 330.624 197.452 335.624 197.452C340.624 197.452 345.217 196.286 348.605 194.331C349.769 193.659 350.819 192.875 351.696 191.992V206.157C351.696 208.25 350.215 210.4 347.267 212.101C344.353 213.781 340.239 214.863 335.624 214.863C331.008 214.863 326.894 213.781 323.981 212.101C321.032 210.4 319.552 208.25 319.552 206.157V191.992ZM316.873 186.067V206.157C316.873 209.613 319.289 212.486 322.643 214.421C326.032 216.376 330.624 217.542 335.624 217.542C340.624 217.542 345.217 216.376 348.605 214.421C351.958 212.486 354.375 209.613 354.375 206.157V186.067C354.375 182.612 351.958 179.739 348.605 177.804C345.217 175.85 340.624 174.683 335.624 174.683C330.624 174.683 326.032 175.85 322.643 177.804C319.289 179.739 316.873 182.612 316.873 186.067Z" clip-rule="evenodd" fill-rule="evenodd"></path>
<path fill="url(#paint5_linear_1892_9673)" d="M347.267 122.086C350.215 123.787 351.696 125.936 351.696 128.029C351.696 130.121 350.215 132.27 347.267 133.971C344.353 135.652 340.239 136.734 335.624 136.734C331.008 136.734 326.894 135.652 323.981 133.971C321.032 132.27 319.552 130.121 319.552 128.029C319.552 125.936 321.032 123.787 323.981 122.086C326.894 120.405 331.008 119.323 335.624 119.323C340.239 119.323 344.353 120.405 347.267 122.086ZM319.552 133.953C320.428 134.836 321.479 135.621 322.643 136.292C326.032 138.247 330.624 139.413 335.624 139.413C340.624 139.413 345.217 138.247 348.605 136.292C349.769 135.621 350.819 134.836 351.696 133.953V148.119C351.696 150.212 350.215 152.361 347.267 154.062C344.353 155.742 340.239 156.824 335.624 156.824C331.008 156.824 326.894 155.742 323.981 154.062C321.032 152.361 319.552 150.212 319.552 148.119V133.953ZM316.873 128.029V148.119C316.873 151.574 319.289 154.448 322.643 156.382C326.032 158.337 330.624 159.503 335.624 159.503C340.624 159.503 345.217 158.337 348.605 156.382C351.958 154.448 354.375 151.574 354.375 148.119V128.029C354.375 124.573 351.958 121.7 348.605 119.765C345.217 117.81 340.624 116.644 335.624 116.644C330.624 116.644 326.032 117.81 322.643 119.765C319.289 121.7 316.873 124.573 316.873 128.029Z" clip-rule="evenodd" fill-rule="evenodd"></path>
<path fill="url(#paint6_linear_1892_9673)" d="M302.587 145.142L274.907 160.959V192.617L302.587 176.8V145.142ZM299.908 149.758V175.245L277.585 188.001V162.514L299.908 149.758Z" clip-rule="evenodd" fill-rule="evenodd"></path>
<path fill="url(#paint7_linear_1892_9673)" d="M287.585 168.212C287.216 168.854 287.438 169.673 288.08 170.041L312.188 183.881C312.829 184.249 313.648 184.028 314.017 183.386C314.385 182.745 314.163 181.926 313.522 181.557L289.414 167.717C288.772 167.349 287.953 167.571 287.585 168.212Z" clip-rule="evenodd" fill-rule="evenodd"></path>
<path fill="url(#paint8_linear_1892_9673)" d="M217.314 214.863C218.054 214.863 218.653 215.463 218.653 216.203V241.204C218.653 241.944 218.054 242.543 217.314 242.543C216.574 242.543 215.975 241.944 215.975 241.204V216.203C215.975 215.463 216.574 214.863 217.314 214.863Z" clip-rule="evenodd" fill-rule="evenodd"></path>
<path fill="url(#paint9_linear_1892_9673)" d="M336.07 214.863C336.81 214.863 337.41 215.463 337.41 216.203V241.204C337.41 241.944 336.81 242.543 336.07 242.543C335.33 242.543 334.731 241.944 334.731 241.204V216.203C334.731 215.463 335.33 214.863 336.07 214.863Z" clip-rule="evenodd" fill-rule="evenodd"></path>
<path fill="url(#paint10_linear_1892_9673)" d="M217.314 79.1423C218.054 79.1423 218.653 79.742 218.653 80.4817V125.127C218.653 125.867 218.054 126.466 217.314 126.466C216.574 126.466 215.975 125.867 215.975 125.127V80.4817C215.975 79.742 216.574 79.1423 217.314 79.1423Z" clip-rule="evenodd" fill-rule="evenodd"></path>
<path fill="url(#paint11_linear_1892_9673)" d="M336.07 79.1423C336.81 79.1423 337.41 79.742 337.41 80.4817V125.127C337.41 125.867 336.81 126.466 336.07 126.466C335.33 126.466 334.731 125.867 334.731 125.127V80.4817C334.731 79.742 335.33 79.1423 336.07 79.1423Z" clip-rule="evenodd" fill-rule="evenodd"></path>
<path fill="url(#paint12_linear_1892_9673)" d="M275.577 45.3906C275.989 45.1539 276.494 45.1523 276.907 45.3862L336.731 79.3166C337.374 79.6815 337.6 80.499 337.235 81.1424C336.871 81.7858 336.053 82.0115 335.41 81.6466L276.25 48.0939L217.982 81.6423C217.341 82.0114 216.522 81.791 216.153 81.1499C215.784 80.5089 216.005 79.69 216.646 79.3209L275.577 45.3906Z" clip-rule="evenodd" fill-rule="evenodd"></path>
<path fill="url(#paint13_linear_1892_9673)" d="M337.239 240.55C337.6 241.196 337.37 242.012 336.724 242.373L276.9 275.857C276.491 276.086 275.991 276.084 275.584 275.852L216.652 242.368C216.009 242.003 215.784 241.186 216.149 240.542C216.515 239.9 217.333 239.675 217.976 240.04L276.25 273.15L335.416 240.035C336.062 239.675 336.878 239.905 337.239 240.55Z" clip-rule="evenodd" fill-rule="evenodd"></path>
<path fill="url(#paint14_linear_1892_9673)" d="M331.835 224.862C332.477 224.495 333.294 224.718 333.661 225.36L336.071 229.576L338.479 225.36C338.846 224.718 339.664 224.495 340.306 224.862C340.948 225.229 341.172 226.047 340.805 226.689L337.233 232.939C336.995 233.357 336.551 233.614 336.071 233.614C335.589 233.614 335.145 233.357 334.907 232.939L331.335 226.689C330.968 226.047 331.192 225.229 331.835 224.862Z" clip-rule="evenodd" fill-rule="evenodd"></path>
<path fill="url(#paint15_linear_1892_9673)" d="M221.55 107.539C220.908 107.906 220.09 107.683 219.723 107.041L217.314 102.825L214.905 107.041C214.538 107.683 213.72 107.906 213.078 107.539C212.436 107.172 212.213 106.354 212.58 105.712L216.151 99.4612C216.39 99.0439 216.833 98.7864 217.314 98.7864C217.795 98.7864 218.238 99.0439 218.477 99.4612L222.049 105.712C222.416 106.354 222.192 107.172 221.55 107.539Z" clip-rule="evenodd" fill-rule="evenodd"></path>
<defs>
<linearGradient gradientUnits="userSpaceOnUse" y2="150.836" x2="354.375" y1="150.838" x1="198.117" id="paint0_linear_1892_9673">
<stop stop-color="#271734"></stop>
<stop stop-color="#D90036" offset="1"></stop>
</linearGradient>
<linearGradient gradientUnits="userSpaceOnUse" y2="150.836" x2="354.375" y1="150.838" x1="198.117" id="paint1_linear_1892_9673">
<stop stop-color="#271734"></stop>
<stop stop-color="#D90036" offset="1"></stop>
</linearGradient>
<linearGradient gradientUnits="userSpaceOnUse" y2="150.836" x2="354.375" y1="150.838" x1="198.117" id="paint2_linear_1892_9673">
<stop stop-color="#271734"></stop>
<stop stop-color="#D90036" offset="1"></stop>
</linearGradient>
<linearGradient gradientUnits="userSpaceOnUse" y2="150.836" x2="354.375" y1="150.838" x1="198.117" id="paint3_linear_1892_9673">
<stop stop-color="#271734"></stop>
<stop stop-color="#D90036" offset="1"></stop>
</linearGradient>
<linearGradient gradientUnits="userSpaceOnUse" y2="150.836" x2="354.375" y1="150.838" x1="198.117" id="paint4_linear_1892_9673">
<stop stop-color="#271734"></stop>
<stop stop-color="#D90036" offset="1"></stop>
</linearGradient>
<linearGradient gradientUnits="userSpaceOnUse" y2="150.836" x2="354.375" y1="150.838" x1="198.117" id="paint5_linear_1892_9673">
<stop stop-color="#271734"></stop>
<stop stop-color="#D90036" offset="1"></stop>
</linearGradient>
<linearGradient gradientUnits="userSpaceOnUse" y2="150.836" x2="354.375" y1="150.838" x1="198.117" id="paint6_linear_1892_9673">
<stop stop-color="#271734"></stop>
<stop stop-color="#D90036" offset="1"></stop>
</linearGradient>
<linearGradient gradientUnits="userSpaceOnUse" y2="150.836" x2="354.375" y1="150.838" x1="198.117" id="paint7_linear_1892_9673">
<stop stop-color="#271734"></stop>
<stop stop-color="#D90036" offset="1"></stop>
</linearGradient>
<linearGradient gradientUnits="userSpaceOnUse" y2="150.836" x2="354.375" y1="150.838" x1="198.117" id="paint8_linear_1892_9673">
<stop stop-color="#271734"></stop>
<stop stop-color="#D90036" offset="1"></stop>
</linearGradient>
<linearGradient gradientUnits="userSpaceOnUse" y2="150.836" x2="354.375" y1="150.838" x1="198.117" id="paint9_linear_1892_9673">
<stop stop-color="#271734"></stop>
<stop stop-color="#D90036" offset="1"></stop>
</linearGradient>
<linearGradient gradientUnits="userSpaceOnUse" y2="150.836" x2="354.375" y1="150.838" x1="198.117" id="paint10_linear_1892_9673">
<stop stop-color="#271734"></stop>
<stop stop-color="#D90036" offset="1"></stop>
</linearGradient>
<linearGradient gradientUnits="userSpaceOnUse" y2="150.836" x2="354.375" y1="150.838" x1="198.117" id="paint11_linear_1892_9673">
<stop stop-color="#271734"></stop>
<stop stop-color="#D90036" offset="1"></stop>
</linearGradient>
<linearGradient gradientUnits="userSpaceOnUse" y2="150.836" x2="354.375" y1="150.838" x1="198.117" id="paint12_linear_1892_9673">
<stop stop-color="#271734"></stop>
<stop stop-color="#D90036" offset="1"></stop>
</linearGradient>
<linearGradient gradientUnits="userSpaceOnUse" y2="150.836" x2="354.375" y1="150.838" x1="198.117" id="paint13_linear_1892_9673">
<stop stop-color="#271734"></stop>
<stop stop-color="#D90036" offset="1"></stop>
</linearGradient>
<linearGradient gradientUnits="userSpaceOnUse" y2="150.836" x2="354.375" y1="150.838" x1="198.117" id="paint14_linear_1892_9673">
<stop stop-color="#271734"></stop>
<stop stop-color="#D90036" offset="1"></stop>
</linearGradient>
<linearGradient gradientUnits="userSpaceOnUse" y2="150.836" x2="354.375" y1="150.838" x1="198.117" id="paint15_linear_1892_9673">
<stop stop-color="#271734"></stop>
<stop stop-color="#D90036" offset="1"></stop>
</linearGradient>
</defs>
</svg>
