<svg xmlns="http://www.w3.org/2000/svg" fill="none" viewBox="0 0 552 320" height="320" width="552">
<rect fill="white" height="320" width="552"></rect>
<g opacity="0.15">
<path stroke-linejoin="round" stroke-linecap="round" stroke="black" d="M297 57.4258L277 46V68.8571L297 57.4258Z"></path>
<path stroke-linejoin="round" stroke-linecap="round" stroke="black" d="M297 80.2813L277 68.8555V91.7126L297 80.2813Z"></path>
<path stroke-linejoin="round" stroke-linecap="round" stroke="black" d="M257 80.2813L237 68.8555V91.7126L257 80.2813Z"></path>
<path stroke-linejoin="round" stroke-linecap="round" stroke="black" d="M297 103.141L277 91.7148V114.572L297 103.141Z"></path>
<path stroke-linejoin="round" stroke-linecap="round" stroke="black" d="M257 103.141L237 91.7148V114.572L257 103.141Z"></path>
<path stroke-linejoin="round" stroke-linecap="round" stroke="black" d="M257 125.996L237 114.57V137.427L257 125.996Z"></path>
<path stroke-linejoin="round" stroke-linecap="round" stroke="black" d="M257 148.856L237 137.43V160.287L257 148.856Z"></path>
<path stroke-linejoin="round" stroke-linecap="round" stroke="black" d="M257 171.711L237 160.285V183.142L257 171.711Z"></path>
<path stroke-linejoin="round" stroke-linecap="round" stroke="black" d="M257 194.57L237 183.145V206.002L257 194.57Z"></path>
<path stroke-linejoin="round" stroke-linecap="round" stroke="black" d="M257 217.426L237 206V228.857L257 217.426Z"></path>
<path stroke-linejoin="round" stroke-linecap="round" stroke="black" d="M257 240.281L237 228.855V251.713L257 240.281Z"></path>
<path stroke-linejoin="round" stroke-linecap="round" stroke="black" d="M297 125.996L277 114.57V137.427L297 125.996Z"></path>
<path stroke-linejoin="round" stroke-linecap="round" stroke="black" d="M297 148.856L277 137.43V160.287L297 148.856Z"></path>
<path stroke-linejoin="round" stroke-linecap="round" stroke="black" d="M297 171.711L277 160.285V183.142L297 171.711Z"></path>
<path stroke-linejoin="round" stroke-linecap="round" stroke="black" d="M297 194.57L277 183.145V206.002L297 194.57Z"></path>
<path stroke-linejoin="round" stroke-linecap="round" stroke="black" d="M297 217.426L277 206V228.857L297 217.426Z"></path>
<path stroke-linejoin="round" stroke-linecap="round" stroke="black" d="M297 240.281L277 228.855V251.713L297 240.281Z"></path>
<path stroke-linejoin="round" stroke-linecap="round" stroke="black" d="M297 263.141L277 251.715V274.572L297 263.141Z"></path>
<path stroke-linejoin="round" stroke-linecap="round" stroke="black" d="M317 68.8555L297 57.4297V80.2868L317 68.8555Z"></path>
<path stroke-linejoin="round" stroke-linecap="round" stroke="black" d="M317 91.711L297 80.2852V103.142L317 91.711Z"></path>
<path stroke-linejoin="round" stroke-linecap="round" stroke="black" d="M317 91.7187L337 103.145L337 80.2874L317 91.7187Z"></path>
<path stroke-linejoin="round" stroke-linecap="round" stroke="black" d="M317 114.574L337 126L337 103.143L317 114.574Z"></path>
<path stroke-linejoin="round" stroke-linecap="round" stroke="black" d="M317 137.43L337 148.855L337 125.998L317 137.43Z"></path>
<path stroke-linejoin="round" stroke-linecap="round" stroke="black" d="M317 160.289L337 171.715L337 148.858L317 160.289Z"></path>
<path stroke-linejoin="round" stroke-linecap="round" stroke="black" d="M317 183.144L337 194.57L337 171.713L317 183.144Z"></path>
<path stroke-linejoin="round" stroke-linecap="round" stroke="black" d="M317 206.004L337 217.43L337 194.573L317 206.004Z"></path>
<path stroke-linejoin="round" stroke-linecap="round" stroke="black" d="M317 228.859L337 240.285L337 217.428L317 228.859Z"></path>
<path stroke-linejoin="round" stroke-linecap="round" stroke="black" d="M237 91.711L217 80.2852L217 103.142L237 91.711Z"></path>
<path stroke-linejoin="round" stroke-linecap="round" stroke="black" d="M237 114.57L217 103.145L217 126.002L237 114.57Z"></path>
<path stroke-linejoin="round" stroke-linecap="round" stroke="black" d="M237 137.426L217 126L217 148.857L237 137.426Z"></path>
<path stroke-linejoin="round" stroke-linecap="round" stroke="black" d="M237 160.281L217 148.855L217 171.713L237 160.281Z"></path>
<path stroke-linejoin="round" stroke-linecap="round" stroke="black" d="M237 183.141L217 171.715L217 194.572L237 183.141Z"></path>
<path stroke-linejoin="round" stroke-linecap="round" stroke="black" d="M237 205.996L217 194.57L217 217.427L237 205.996Z"></path>
<path stroke-linejoin="round" stroke-linecap="round" stroke="black" d="M237 228.856L217 217.43L217 240.287L237 228.856Z"></path>
<path stroke-linejoin="round" stroke-linecap="round" stroke="black" d="M317 114.57L297 103.145V126.002L317 114.57Z"></path>
<path stroke-linejoin="round" stroke-linecap="round" stroke="black" d="M317 137.426L297 126V148.857L317 137.426Z"></path>
<path stroke-linejoin="round" stroke-linecap="round" stroke="black" d="M317 160.281L297 148.855V171.713L317 160.281Z"></path>
<path stroke-linejoin="round" stroke-linecap="round" stroke="black" d="M317 183.141L297 171.715V194.572L317 183.141Z"></path>
<path stroke-linejoin="round" stroke-linecap="round" stroke="black" d="M317 205.996L297 194.57V217.427L317 205.996Z"></path>
<path stroke-linejoin="round" stroke-linecap="round" stroke="black" d="M317 228.856L297 217.43V240.287L317 228.856Z"></path>
<path stroke-linejoin="round" stroke-linecap="round" stroke="black" d="M317 251.711L297 240.285V263.142L317 251.711Z"></path>
<path stroke-linejoin="round" stroke-linecap="round" stroke="black" d="M277 68.8555L257 57.4297V80.2868L277 68.8555Z"></path>
<path stroke-linejoin="round" stroke-linecap="round" stroke="black" d="M277 91.711L257 80.2852V103.142L277 91.711Z"></path>
<path stroke-linejoin="round" stroke-linecap="round" stroke="black" d="M277 114.57L257 103.145V126.002L277 114.57Z"></path>
<path stroke-linejoin="round" stroke-linecap="round" stroke="black" d="M277 137.426L257 126V148.857L277 137.426Z"></path>
<path stroke-linejoin="round" stroke-linecap="round" stroke="black" d="M277 160.281L257 148.855V171.713L277 160.281Z"></path>
<path stroke-linejoin="round" stroke-linecap="round" stroke="black" d="M277 183.141L257 171.715V194.572L277 183.141Z"></path>
<path stroke-linejoin="round" stroke-linecap="round" stroke="black" d="M277 205.996L257 194.57V217.427L277 205.996Z"></path>
<path stroke-linejoin="round" stroke-linecap="round" stroke="black" d="M277 228.856L257 217.43V240.287L277 228.856Z"></path>
<path stroke-linejoin="round" stroke-linecap="round" stroke="black" d="M277 251.711L257 240.285V263.142L277 251.711Z"></path>
<path stroke-linejoin="round" stroke-linecap="round" stroke="black" d="M257 57.4296L277 68.8555L277 45.9983L257 57.4296Z"></path>
<path stroke-linejoin="round" stroke-linecap="round" stroke="black" d="M257 80.289L277 91.7148L277 68.8577L257 80.289Z"></path>
<path stroke-linejoin="round" stroke-linecap="round" stroke="black" d="M297 80.289L317 91.7148L317 68.8577L297 80.289Z"></path>
<path stroke-linejoin="round" stroke-linecap="round" stroke="black" d="M337 103.141L317 91.7148L317 114.572L337 103.141Z"></path>
<path stroke-linejoin="round" stroke-linecap="round" stroke="black" d="M337 125.996L317 114.57L317 137.427L337 125.996Z"></path>
<path stroke-linejoin="round" stroke-linecap="round" stroke="black" d="M337 148.856L317 137.43L317 160.287L337 148.856Z"></path>
<path stroke-linejoin="round" stroke-linecap="round" stroke="black" d="M337 171.711L317 160.285L317 183.142L337 171.711Z"></path>
<path stroke-linejoin="round" stroke-linecap="round" stroke="black" d="M337 194.57L317 183.145L317 206.002L337 194.57Z"></path>
<path stroke-linejoin="round" stroke-linecap="round" stroke="black" d="M337 217.426L317 206L317 228.857L337 217.426Z"></path>
<path stroke-linejoin="round" stroke-linecap="round" stroke="black" d="M337 240.281L317 228.855L317 251.713L337 240.281Z"></path>
<path stroke-linejoin="round" stroke-linecap="round" stroke="black" d="M217 80.289L237 91.7148L237 68.8577L217 80.289Z"></path>
<path stroke-linejoin="round" stroke-linecap="round" stroke="black" d="M357 91.711L337 80.2852L337 103.142L357 91.711Z"></path>
<path stroke-linejoin="round" stroke-linecap="round" stroke="black" d="M357 114.57L337 103.145L337 126.002L357 114.57Z"></path>
<path stroke-linejoin="round" stroke-linecap="round" stroke="black" d="M357 183.144L377 194.57L377 171.713L357 183.144Z"></path>
<path stroke-linejoin="round" stroke-linecap="round" stroke="black" d="M357 206.004L377 217.43L377 194.573L357 206.004Z"></path>
<path stroke-linejoin="round" stroke-linecap="round" stroke="black" d="M197 114.57L177 103.145L177 126.002L197 114.57Z"></path>
<path stroke-linejoin="round" stroke-linecap="round" stroke="black" d="M337 171.719L357 183.145L357 160.287L337 171.719Z"></path>
<path stroke-linejoin="round" stroke-linecap="round" stroke="black" d="M377 125.996L357 114.57L357 137.427L377 125.996Z"></path>
<path stroke-linejoin="round" stroke-linecap="round" stroke="black" d="M177 171.719L197 183.145L197 160.287L177 171.719Z"></path>
<path stroke-linejoin="round" stroke-linecap="round" stroke="black" d="M337 194.574L357 206L357 183.143L337 194.574Z"></path>
<path stroke-linejoin="round" stroke-linecap="round" stroke="black" d="M337 217.43L357 228.855L357 205.998L337 217.43Z"></path>
<path stroke-linejoin="round" stroke-linecap="round" stroke="black" d="M377 103.141L357 91.7148L357 114.572L377 103.141Z"></path>
<path stroke-linejoin="round" stroke-linecap="round" stroke="black" d="M177 194.574L197 206L197 183.143L177 194.574Z"></path>
<path stroke-linejoin="round" stroke-linecap="round" stroke="black" d="M177 217.43L197 228.855L197 205.998L177 217.43Z"></path>
<path stroke-linejoin="round" stroke-linecap="round" stroke="black" d="M217 103.141L197 91.7148L197 114.572L217 103.141Z"></path>
<path stroke-linejoin="round" stroke-linecap="round" stroke="black" d="M357 137.426L337 126L337 148.857L357 137.426Z"></path>
<path stroke-linejoin="round" stroke-linecap="round" stroke="black" d="M357 160.289L377 171.715L377 148.858L357 160.289Z"></path>
<path stroke-linejoin="round" stroke-linecap="round" stroke="black" d="M197 137.426L177 126L177 148.857L197 137.426Z"></path>
<path stroke-linejoin="round" stroke-linecap="round" stroke="black" d="M337 148.859L357 160.285L357 137.428L337 148.859Z"></path>
<path stroke-linejoin="round" stroke-linecap="round" stroke="black" d="M377 148.856L357 137.43L357 160.287L377 148.856Z"></path>
<path stroke-linejoin="round" stroke-linecap="round" stroke="black" d="M177 148.859L197 160.285L197 137.428L177 148.859Z"></path>
<path stroke-linejoin="round" stroke-linecap="round" stroke="black" d="M217 125.996L197 114.57L197 137.427L217 125.996Z"></path>
<path stroke-linejoin="round" stroke-linecap="round" stroke="black" d="M357 160.281L337 148.855L337 171.713L357 160.281Z"></path>
<path stroke-linejoin="round" stroke-linecap="round" stroke="black" d="M357 137.43L377 148.855L377 125.998L357 137.43Z"></path>
<path stroke-linejoin="round" stroke-linecap="round" stroke="black" d="M197 160.281L177 148.855L177 171.713L197 160.281Z"></path>
<path stroke-linejoin="round" stroke-linecap="round" stroke="black" d="M337 126.004L357 137.43L357 114.573L337 126.004Z"></path>
<path stroke-linejoin="round" stroke-linecap="round" stroke="black" d="M377 171.711L357 160.285L357 183.142L377 171.711Z"></path>
<path stroke-linejoin="round" stroke-linecap="round" stroke="black" d="M177 126.004L197 137.43L197 114.573L177 126.004Z"></path>
<path stroke-linejoin="round" stroke-linecap="round" stroke="black" d="M217 148.856L197 137.43L197 160.287L217 148.856Z"></path>
<path stroke-linejoin="round" stroke-linecap="round" stroke="black" d="M357 183.141L337 171.715L337 194.572L357 183.141Z"></path>
<path stroke-linejoin="round" stroke-linecap="round" stroke="black" d="M357 114.574L377 126L377 103.143L357 114.574Z"></path>
<path stroke-linejoin="round" stroke-linecap="round" stroke="black" d="M197 183.141L177 171.715L177 194.572L197 183.141Z"></path>
<path stroke-linejoin="round" stroke-linecap="round" stroke="black" d="M197 205.996L177 194.57L177 217.427L197 205.996Z"></path>
<path stroke-linejoin="round" stroke-linecap="round" stroke="black" d="M357 205.996L337 194.57L337 217.427L357 205.996Z"></path>
<path stroke-linejoin="round" stroke-linecap="round" stroke="black" d="M357 228.856L337 217.43L337 240.287L357 228.856Z"></path>
<path stroke-linejoin="round" stroke-linecap="round" stroke="black" d="M337 103.144L357 114.57L357 91.7132L337 103.144Z"></path>
<path stroke-linejoin="round" stroke-linecap="round" stroke="black" d="M377 194.57L357 183.145L357 206.002L377 194.57Z"></path>
<path stroke-linejoin="round" stroke-linecap="round" stroke="black" d="M377 217.426L357 206L357 228.857L377 217.426Z"></path>
<path stroke-linejoin="round" stroke-linecap="round" stroke="black" d="M177 103.144L197 114.57L197 91.7132L177 103.144Z"></path>
<path stroke-linejoin="round" stroke-linecap="round" stroke="black" d="M217 171.711L197 160.285L197 183.142L217 171.711Z"></path>
<path stroke-linejoin="round" stroke-linecap="round" stroke="black" d="M217 194.57L197 183.145L197 206.002L217 194.57Z"></path>
<path stroke-linejoin="round" stroke-linecap="round" stroke="black" d="M217 217.426L197 206L197 228.857L217 217.426Z"></path>
<path stroke-linejoin="round" stroke-linecap="round" stroke="black" d="M197 91.7187L217 103.145L217 80.2874L197 91.7187Z"></path>
<path stroke-linejoin="round" stroke-linecap="round" stroke="black" d="M197 114.574L217 126L217 103.143L197 114.574Z"></path>
<path stroke-linejoin="round" stroke-linecap="round" stroke="black" d="M197 137.43L217 148.855L217 125.998L197 137.43Z"></path>
<path stroke-linejoin="round" stroke-linecap="round" stroke="black" d="M197 160.289L217 171.715L217 148.858L197 160.289Z"></path>
<path stroke-linejoin="round" stroke-linecap="round" stroke="black" d="M197 183.144L217 194.57L217 171.713L197 183.144Z"></path>
<path stroke-linejoin="round" stroke-linecap="round" stroke="black" d="M197 206.004L217 217.43L217 194.573L197 206.004Z"></path>
<path stroke-linejoin="round" stroke-linecap="round" stroke="black" d="M197 228.859L217 240.285L217 217.428L197 228.859Z"></path>
<path stroke-linejoin="round" stroke-linecap="round" stroke="black" d="M257 103.144L277 114.57L277 91.7132L257 103.144Z"></path>
<path stroke-linejoin="round" stroke-linecap="round" stroke="black" d="M297 103.144L317 114.57L317 91.7132L297 103.144Z"></path>
<path stroke-linejoin="round" stroke-linecap="round" stroke="black" d="M297 126.004L317 137.43L317 114.573L297 126.004Z"></path>
<path stroke-linejoin="round" stroke-linecap="round" stroke="black" d="M297 148.859L317 160.285L317 137.428L297 148.859Z"></path>
<path stroke-linejoin="round" stroke-linecap="round" stroke="black" d="M297 171.719L317 183.145L317 160.287L297 171.719Z"></path>
<path stroke-linejoin="round" stroke-linecap="round" stroke="black" d="M297 194.574L317 206L317 183.143L297 194.574Z"></path>
<path stroke-linejoin="round" stroke-linecap="round" stroke="black" d="M297 217.43L317 228.855L317 205.998L297 217.43Z"></path>
<path stroke-linejoin="round" stroke-linecap="round" stroke="black" d="M297 240.289L317 251.715L317 228.858L297 240.289Z"></path>
<path stroke-linejoin="round" stroke-linecap="round" stroke="black" d="M337 80.2813L317 68.8555L317 91.7126L337 80.2813Z"></path>
<path stroke-linejoin="round" stroke-linecap="round" stroke="black" d="M217 103.144L237 114.57L237 91.7132L217 103.144Z"></path>
<path stroke-linejoin="round" stroke-linecap="round" stroke="black" d="M217 126.004L237 137.43L237 114.573L217 126.004Z"></path>
<path stroke-linejoin="round" stroke-linecap="round" stroke="black" d="M217 148.859L237 160.285L237 137.428L217 148.859Z"></path>
<path stroke-linejoin="round" stroke-linecap="round" stroke="black" d="M217 171.719L237 183.145L237 160.287L217 171.719Z"></path>
<path stroke-linejoin="round" stroke-linecap="round" stroke="black" d="M217 194.574L237 206L237 183.143L217 194.574Z"></path>
<path stroke-linejoin="round" stroke-linecap="round" stroke="black" d="M217 194.574L237 206L237 183.143L217 194.574Z"></path>
<path stroke-linejoin="round" stroke-linecap="round" stroke="black" d="M217 217.43L237 228.855L237 205.998L217 217.43Z"></path>
<path stroke-linejoin="round" stroke-linecap="round" stroke="black" d="M217 240.289L237 251.715L237 228.858L217 240.289Z"></path>
<path stroke-linejoin="round" stroke-linecap="round" stroke="black" d="M257 126.004L277 137.43L277 114.573L257 126.004Z"></path>
<path stroke-linejoin="round" stroke-linecap="round" stroke="black" d="M257 148.859L277 160.285L277 137.428L257 148.859Z"></path>
<path stroke-linejoin="round" stroke-linecap="round" stroke="black" d="M257 171.719L277 183.145L277 160.287L257 171.719Z"></path>
<path stroke-linejoin="round" stroke-linecap="round" stroke="black" d="M257 194.574L277 206L277 183.143L257 194.574Z"></path>
<path stroke-linejoin="round" stroke-linecap="round" stroke="black" d="M257 217.43L277 228.855L277 205.998L257 217.43Z"></path>
<path stroke-linejoin="round" stroke-linecap="round" stroke="black" d="M257 240.289L277 251.715L277 228.858L257 240.289Z"></path>
<path stroke-linejoin="round" stroke-linecap="round" stroke="black" d="M257 263.144L277 274.57L277 251.713L257 263.144Z"></path>
<path stroke-linejoin="round" stroke-linecap="round" stroke="black" d="M277 68.8593L297 80.2852L297 57.428L277 68.8593Z"></path>
<path stroke-linejoin="round" stroke-linecap="round" stroke="black" d="M277 91.7187L297 103.145L297 80.2874L277 91.7187Z"></path>
<path stroke-linejoin="round" stroke-linecap="round" stroke="black" d="M277 114.574L297 126L297 103.143L277 114.574Z"></path>
<path stroke-linejoin="round" stroke-linecap="round" stroke="black" d="M277 137.43L297 148.855L297 125.998L277 137.43Z"></path>
<path stroke-linejoin="round" stroke-linecap="round" stroke="black" d="M277 160.289L297 171.715L297 148.858L277 160.289Z"></path>
<path stroke-linejoin="round" stroke-linecap="round" stroke="black" d="M277 183.144L297 194.57L297 171.713L277 183.144Z"></path>
<path stroke-linejoin="round" stroke-linecap="round" stroke="black" d="M277 206.004L297 217.43L297 194.573L277 206.004Z"></path>
<path stroke-linejoin="round" stroke-linecap="round" stroke="black" d="M277 228.859L297 240.285L297 217.428L277 228.859Z"></path>
<path stroke-linejoin="round" stroke-linecap="round" stroke="black" d="M277 251.719L297 263.145L297 240.287L277 251.719Z"></path>
<path stroke-linejoin="round" stroke-linecap="round" stroke="black" d="M237 68.8593L257 80.2852L257 57.428L237 68.8593Z"></path>
<path stroke-linejoin="round" stroke-linecap="round" stroke="black" d="M237 91.7187L257 103.145L257 80.2874L237 91.7187Z"></path>
<path stroke-linejoin="round" stroke-linecap="round" stroke="black" d="M237 114.574L257 126L257 103.143L237 114.574Z"></path>
<path stroke-linejoin="round" stroke-linecap="round" stroke="black" d="M237 137.43L257 148.855L257 125.998L237 137.43Z"></path>
<path stroke-linejoin="round" stroke-linecap="round" stroke="black" d="M237 160.289L257 171.715L257 148.858L237 160.289Z"></path>
<path stroke-linejoin="round" stroke-linecap="round" stroke="black" d="M237 183.144L257 194.57L257 171.713L237 183.144Z"></path>
<path stroke-linejoin="round" stroke-linecap="round" stroke="black" d="M237 206.004L257 217.43L257 194.573L237 206.004Z"></path>
<path stroke-linejoin="round" stroke-linecap="round" stroke="black" d="M237 228.859L257 240.285L257 217.428L237 228.859Z"></path>
<path stroke-linejoin="round" stroke-linecap="round" stroke="black" d="M237 251.719L257 263.145L257 240.287L237 251.719Z"></path>
</g>
<path stroke-linejoin="round" stroke-linecap="round" stroke-width="2" stroke="url(#paint0_linear_1_6740)" d="M337 194.573L357 183.145L377 194.573M337 194.573L357 206.002M337 194.573V217.43L357 228.859M357 206.002L377 194.573M357 206.002V228.859M377 194.573V217.43L357 228.859"></path>
<path stroke-linejoin="round" stroke-linecap="round" stroke-width="2" stroke="url(#paint1_linear_1_6740)" d="M337 194.573L317 183.145"></path>
<path stroke-linejoin="round" stroke-linecap="round" stroke-width="2" stroke="url(#paint2_linear_1_6740)" d="M197 114.57L177 103.141M197 114.57L217 103.141M197 114.57V137.427M257 80.284L237 68.8555L217 80.284M257 80.284L237 91.7126M257 80.284V103.141M197 183.141L177 171.713V148.855M197 183.141L217 171.713M197 183.141V160.284M177 103.141L197 91.7126M177 103.141V125.998M217 80.284L237 91.7126M217 80.284L197 91.7126M237 91.7126V160.284M237 91.7126L217 103.141M237 160.284L217 171.713M237 160.284L257 148.855V125.998M217 171.713V103.141M217 103.141L197 91.7126M177 125.998L197 137.427M177 125.998V148.855M197 137.427L257 103.141M197 137.427V160.284M257 103.141V125.998M177 148.855L197 160.284M197 160.284L257 125.998"></path>
<circle stroke-width="2" stroke="url(#paint3_linear_1_6740)" r="40" cy="170.285" cx="295.571"></circle>
<path stroke-linejoin="round" stroke-linecap="round" stroke-width="2" stroke="url(#paint4_linear_1_6740)" d="M259.857 151.001L227 131.715"></path>
<defs>
<linearGradient gradientUnits="userSpaceOnUse" y2="204.064" x2="377" y1="204.064" x1="337" id="paint0_linear_1_6740">
<stop stop-color="#271734"></stop>
<stop stop-color="#D90036" offset="1"></stop>
</linearGradient>
<linearGradient gradientUnits="userSpaceOnUse" y2="188.374" x2="337" y1="188.374" x1="317" id="paint1_linear_1_6740">
<stop stop-color="#271734"></stop>
<stop stop-color="#D90036" offset="1"></stop>
</linearGradient>
<linearGradient gradientUnits="userSpaceOnUse" y2="121.154" x2="257" y1="121.155" x1="177" id="paint2_linear_1_6740">
<stop stop-color="#271734"></stop>
<stop stop-color="#D90036" offset="1"></stop>
</linearGradient>
<linearGradient gradientUnits="userSpaceOnUse" y2="166.893" x2="335.571" y1="166.895" x1="255.571" id="paint3_linear_1_6740">
<stop stop-color="#271734"></stop>
<stop stop-color="#D90036" offset="1"></stop>
</linearGradient>
<linearGradient gradientUnits="userSpaceOnUse" y2="140.54" x2="259.857" y1="140.54" x1="227" id="paint4_linear_1_6740">
<stop stop-color="#271734"></stop>
<stop stop-color="#D90036" offset="1"></stop>
</linearGradient>
</defs>
</svg>
