<svg xmlns="http://www.w3.org/2000/svg" fill="none"  viewBox="0 0 552 320" height="320" width="552">
<g opacity="0.1">
<path stroke-linejoin="round" stroke-linecap="round" stroke="black" d="M85 8.99808L71 1V17L85 8.99808Z"></path>
<path stroke-linejoin="round" stroke-linecap="round" stroke="black" d="M85 24.9981L71 17V33L85 24.9981Z"></path>
<path stroke-linejoin="round" stroke-linecap="round" stroke="black" d="M57 24.9981L43 17V33L57 24.9981Z"></path>
<path stroke-linejoin="round" stroke-linecap="round" stroke="black" d="M85 40.9981L71 33V49L85 40.9981Z"></path>
<path stroke-linejoin="round" stroke-linecap="round" stroke="black" d="M57 40.9981L43 33V49L57 40.9981Z"></path>
<path stroke-linejoin="round" stroke-linecap="round" stroke="black" d="M57 56.9981L43 49V65L57 56.9981Z"></path>
<path stroke-linejoin="round" stroke-linecap="round" stroke="black" d="M57 72.9981L43 65V81L57 72.9981Z"></path>
<path stroke-linejoin="round" stroke-linecap="round" stroke="black" d="M57 88.9981L43 81V97L57 88.9981Z"></path>
<path stroke-linejoin="round" stroke-linecap="round" stroke="black" d="M57 104.998L43 97V113L57 104.998Z"></path>
<path stroke-linejoin="round" stroke-linecap="round" stroke="black" d="M57 120.998L43 113V129L57 120.998Z"></path>
<path stroke-linejoin="round" stroke-linecap="round" stroke="black" d="M57 136.998L43 129V145L57 136.998Z"></path>
<path stroke-linejoin="round" stroke-linecap="round" stroke="black" d="M85 56.9981L71 49V65L85 56.9981Z"></path>
<path stroke-linejoin="round" stroke-linecap="round" stroke="black" d="M85 72.9981L71 65V81L85 72.9981Z"></path>
<path stroke-linejoin="round" stroke-linecap="round" stroke="black" d="M85 88.9981L71 81V97L85 88.9981Z"></path>
<path stroke-linejoin="round" stroke-linecap="round" stroke="black" d="M85 104.998L71 97V113L85 104.998Z"></path>
<path stroke-linejoin="round" stroke-linecap="round" stroke="black" d="M85 120.998L71 113V129L85 120.998Z"></path>
<path stroke-linejoin="round" stroke-linecap="round" stroke="black" d="M85 136.998L71 129V145L85 136.998Z"></path>
<path stroke-linejoin="round" stroke-linecap="round" stroke="black" d="M85 152.998L71 145V161L85 152.998Z"></path>
<path stroke-linejoin="round" stroke-linecap="round" stroke="black" d="M99 16.9981L85 9V25L99 16.9981Z"></path>
<path stroke-linejoin="round" stroke-linecap="round" stroke="black" d="M99 32.9981L85 25V41L99 32.9981Z"></path>
<path stroke-linejoin="round" stroke-linecap="round" stroke="black" d="M99 33.0019L113 41L113 25L99 33.0019Z"></path>
<path stroke-linejoin="round" stroke-linecap="round" stroke="black" d="M99 49.0019L113 57L113 41L99 49.0019Z"></path>
<path stroke-linejoin="round" stroke-linecap="round" stroke="black" d="M99 65.0019L113 73L113 57L99 65.0019Z"></path>
<path stroke-linejoin="round" stroke-linecap="round" stroke="black" d="M99 81.0019L113 89L113 73L99 81.0019Z"></path>
<path stroke-linejoin="round" stroke-linecap="round" stroke="black" d="M99 97.0019L113 105L113 89L99 97.0019Z"></path>
<path stroke-linejoin="round" stroke-linecap="round" stroke="black" d="M99 113.002L113 121L113 105L99 113.002Z"></path>
<path stroke-linejoin="round" stroke-linecap="round" stroke="black" d="M99 129.002L113 137L113 121L99 129.002Z"></path>
<path stroke-linejoin="round" stroke-linecap="round" stroke="black" d="M43 32.9981L29 25L29 41L43 32.9981Z"></path>
<path stroke-linejoin="round" stroke-linecap="round" stroke="black" d="M43 48.9981L29 41L29 57L43 48.9981Z"></path>
<path stroke-linejoin="round" stroke-linecap="round" stroke="black" d="M43 64.9981L29 57L29 73L43 64.9981Z"></path>
<path stroke-linejoin="round" stroke-linecap="round" stroke="black" d="M43 80.9981L29 73L29 89L43 80.9981Z"></path>
<path stroke-linejoin="round" stroke-linecap="round" stroke="black" d="M43 96.9981L29 89L29 105L43 96.9981Z"></path>
<path stroke-linejoin="round" stroke-linecap="round" stroke="black" d="M43 112.998L29 105L29 121L43 112.998Z"></path>
<path stroke-linejoin="round" stroke-linecap="round" stroke="black" d="M43 128.998L29 121L29 137L43 128.998Z"></path>
<path stroke-linejoin="round" stroke-linecap="round" stroke="black" d="M99 48.9981L85 41V57L99 48.9981Z"></path>
<path stroke-linejoin="round" stroke-linecap="round" stroke="black" d="M99 64.9981L85 57V73L99 64.9981Z"></path>
<path stroke-linejoin="round" stroke-linecap="round" stroke="black" d="M99 80.9981L85 73V89L99 80.9981Z"></path>
<path stroke-linejoin="round" stroke-linecap="round" stroke="black" d="M99 96.9981L85 89V105L99 96.9981Z"></path>
<path stroke-linejoin="round" stroke-linecap="round" stroke="black" d="M99 112.998L85 105V121L99 112.998Z"></path>
<path stroke-linejoin="round" stroke-linecap="round" stroke="black" d="M99 128.998L85 121V137L99 128.998Z"></path>
<path stroke-linejoin="round" stroke-linecap="round" stroke="black" d="M99 144.998L85 137V153L99 144.998Z"></path>
<path stroke-linejoin="round" stroke-linecap="round" stroke="black" d="M71 16.9981L57 9V25L71 16.9981Z"></path>
<path stroke-linejoin="round" stroke-linecap="round" stroke="black" d="M71 32.9981L57 25V41L71 32.9981Z"></path>
<path stroke-linejoin="round" stroke-linecap="round" stroke="black" d="M71 48.9981L57 41V57L71 48.9981Z"></path>
<path stroke-linejoin="round" stroke-linecap="round" stroke="black" d="M71 64.9981L57 57V73L71 64.9981Z"></path>
<path stroke-linejoin="round" stroke-linecap="round" stroke="black" d="M71 80.9981L57 73V89L71 80.9981Z"></path>
<path stroke-linejoin="round" stroke-linecap="round" stroke="black" d="M71 96.9981L57 89V105L71 96.9981Z"></path>
<path stroke-linejoin="round" stroke-linecap="round" stroke="black" d="M71 112.998L57 105V121L71 112.998Z"></path>
<path stroke-linejoin="round" stroke-linecap="round" stroke="black" d="M71 128.998L57 121V137L71 128.998Z"></path>
<path stroke-linejoin="round" stroke-linecap="round" stroke="black" d="M71 144.998L57 137V153L71 144.998Z"></path>
<path stroke-linejoin="round" stroke-linecap="round" stroke="black" d="M57 9.00192L71 17L71 1L57 9.00192Z"></path>
<path stroke-linejoin="round" stroke-linecap="round" stroke="black" d="M57 25.0019L71 33L71 17L57 25.0019Z"></path>
<path stroke-linejoin="round" stroke-linecap="round" stroke="black" d="M85 25.0019L99 33L99 17L85 25.0019Z"></path>
<path stroke-linejoin="round" stroke-linecap="round" stroke="black" d="M113 40.9981L99 33L99 49L113 40.9981Z"></path>
<path stroke-linejoin="round" stroke-linecap="round" stroke="black" d="M113 56.9981L99 49L99 65L113 56.9981Z"></path>
<path stroke-linejoin="round" stroke-linecap="round" stroke="black" d="M113 72.9981L99 65L99 81L113 72.9981Z"></path>
<path stroke-linejoin="round" stroke-linecap="round" stroke="black" d="M113 88.9981L99 81L99 97L113 88.9981Z"></path>
<path stroke-linejoin="round" stroke-linecap="round" stroke="black" d="M113 104.998L99 97L99 113L113 104.998Z"></path>
<path stroke-linejoin="round" stroke-linecap="round" stroke="black" d="M113 120.998L99 113L99 129L113 120.998Z"></path>
<path stroke-linejoin="round" stroke-linecap="round" stroke="black" d="M113 136.998L99 129L99 145L113 136.998Z"></path>
<path stroke-linejoin="round" stroke-linecap="round" stroke="black" d="M29 25.0019L43 33L43 17L29 25.0019Z"></path>
<path stroke-linejoin="round" stroke-linecap="round" stroke="black" d="M127 32.9981L113 25L113 41L127 32.9981Z"></path>
<path stroke-linejoin="round" stroke-linecap="round" stroke="black" d="M127 48.9981L113 41L113 57L127 48.9981Z"></path>
<path stroke-linejoin="round" stroke-linecap="round" stroke="black" d="M127 97.0019L141 105L141 89L127 97.0019Z"></path>
<path stroke-linejoin="round" stroke-linecap="round" stroke="black" d="M127 113.002L141 121L141 105L127 113.002Z"></path>
<path stroke-linejoin="round" stroke-linecap="round" stroke="black" d="M15 48.9981L1 41L0.999994 57L15 48.9981Z"></path>
<path stroke-linejoin="round" stroke-linecap="round" stroke="black" d="M113 89.0019L127 97L127 81L113 89.0019Z"></path>
<path stroke-linejoin="round" stroke-linecap="round" stroke="black" d="M141 56.9981L127 49L127 65L141 56.9981Z"></path>
<path stroke-linejoin="round" stroke-linecap="round" stroke="black" d="M1 89.0019L15 97L15 81L1 89.0019Z"></path>
<path stroke-linejoin="round" stroke-linecap="round" stroke="black" d="M113 105.002L127 113L127 97L113 105.002Z"></path>
<path stroke-linejoin="round" stroke-linecap="round" stroke="black" d="M113 121.002L127 129L127 113L113 121.002Z"></path>
<path stroke-linejoin="round" stroke-linecap="round" stroke="black" d="M141 40.9981L127 33L127 49L141 40.9981Z"></path>
<path stroke-linejoin="round" stroke-linecap="round" stroke="black" d="M1 105.002L15 113L15 97L1 105.002Z"></path>
<path stroke-linejoin="round" stroke-linecap="round" stroke="black" d="M1 121.002L15 129L15 113L1 121.002Z"></path>
<path stroke-linejoin="round" stroke-linecap="round" stroke="black" d="M29 40.9981L15 33L15 49L29 40.9981Z"></path>
<path stroke-linejoin="round" stroke-linecap="round" stroke="black" d="M127 64.9981L113 57L113 73L127 64.9981Z"></path>
<path stroke-linejoin="round" stroke-linecap="round" stroke="black" d="M127 81.0019L141 89L141 73L127 81.0019Z"></path>
<path stroke-linejoin="round" stroke-linecap="round" stroke="black" d="M15 64.9981L1 57L0.999994 73L15 64.9981Z"></path>
<path stroke-linejoin="round" stroke-linecap="round" stroke="black" d="M113 73.0019L127 81L127 65L113 73.0019Z"></path>
<path stroke-linejoin="round" stroke-linecap="round" stroke="black" d="M141 72.9981L127 65L127 81L141 72.9981Z"></path>
<path stroke-linejoin="round" stroke-linecap="round" stroke="black" d="M1 73.0019L15 81L15 65L1 73.0019Z"></path>
<path stroke-linejoin="round" stroke-linecap="round" stroke="black" d="M29 56.9981L15 49L15 65L29 56.9981Z"></path>
<path stroke-linejoin="round" stroke-linecap="round" stroke="black" d="M127 80.9981L113 73L113 89L127 80.9981Z"></path>
<path stroke-linejoin="round" stroke-linecap="round" stroke="black" d="M127 65.0019L141 73L141 57L127 65.0019Z"></path>
<path stroke-linejoin="round" stroke-linecap="round" stroke="black" d="M15 80.9981L1 73L0.999994 89L15 80.9981Z"></path>
<path stroke-linejoin="round" stroke-linecap="round" stroke="black" d="M113 57.0019L127 65L127 49L113 57.0019Z"></path>
<path stroke-linejoin="round" stroke-linecap="round" stroke="black" d="M141 88.9981L127 81L127 97L141 88.9981Z"></path>
<path stroke-linejoin="round" stroke-linecap="round" stroke="black" d="M1 57.0019L15 65L15 49L1 57.0019Z"></path>
<path stroke-linejoin="round" stroke-linecap="round" stroke="black" d="M29 72.9981L15 65L15 81L29 72.9981Z"></path>
<path stroke-linejoin="round" stroke-linecap="round" stroke="black" d="M127 96.9981L113 89L113 105L127 96.9981Z"></path>
<path stroke-linejoin="round" stroke-linecap="round" stroke="black" d="M127 49.0019L141 57L141 41L127 49.0019Z"></path>
<path stroke-linejoin="round" stroke-linecap="round" stroke="black" d="M15 96.9981L1 89L0.999994 105L15 96.9981Z"></path>
<path stroke-linejoin="round" stroke-linecap="round" stroke="black" d="M15 112.998L1 105L0.999994 121L15 112.998Z"></path>
<path stroke-linejoin="round" stroke-linecap="round" stroke="black" d="M127 112.998L113 105L113 121L127 112.998Z"></path>
<path stroke-linejoin="round" stroke-linecap="round" stroke="black" d="M127 128.998L113 121L113 137L127 128.998Z"></path>
<path stroke-linejoin="round" stroke-linecap="round" stroke="black" d="M113 41.0019L127 49L127 33L113 41.0019Z"></path>
<path stroke-linejoin="round" stroke-linecap="round" stroke="black" d="M141 104.998L127 97L127 113L141 104.998Z"></path>
<path stroke-linejoin="round" stroke-linecap="round" stroke="black" d="M141 120.998L127 113L127 129L141 120.998Z"></path>
<path stroke-linejoin="round" stroke-linecap="round" stroke="black" d="M1 41.0019L15 49L15 33L1 41.0019Z"></path>
<path stroke-linejoin="round" stroke-linecap="round" stroke="black" d="M29 88.9981L15 81L15 97L29 88.9981Z"></path>
<path stroke-linejoin="round" stroke-linecap="round" stroke="black" d="M29 104.998L15 97L15 113L29 104.998Z"></path>
<path stroke-linejoin="round" stroke-linecap="round" stroke="black" d="M29 120.998L15 113L15 129L29 120.998Z"></path>
<path stroke-linejoin="round" stroke-linecap="round" stroke="black" d="M15 33.0019L29 41L29 25L15 33.0019Z"></path>
<path stroke-linejoin="round" stroke-linecap="round" stroke="black" d="M15 49.0019L29 57L29 41L15 49.0019Z"></path>
<path stroke-linejoin="round" stroke-linecap="round" stroke="black" d="M15 65.0019L29 73L29 57L15 65.0019Z"></path>
<path stroke-linejoin="round" stroke-linecap="round" stroke="black" d="M15 81.0019L29 89L29 73L15 81.0019Z"></path>
<path stroke-linejoin="round" stroke-linecap="round" stroke="black" d="M15 97.0019L29 105L29 89L15 97.0019Z"></path>
<path stroke-linejoin="round" stroke-linecap="round" stroke="black" d="M15 113.002L29 121L29 105L15 113.002Z"></path>
<path stroke-linejoin="round" stroke-linecap="round" stroke="black" d="M15 129.002L29 137L29 121L15 129.002Z"></path>
<path stroke-linejoin="round" stroke-linecap="round" stroke="black" d="M57 41.0019L71 49L71 33L57 41.0019Z"></path>
<path stroke-linejoin="round" stroke-linecap="round" stroke="black" d="M85 41.0019L99 49L99 33L85 41.0019Z"></path>
<path stroke-linejoin="round" stroke-linecap="round" stroke="black" d="M85 57.0019L99 65L99 49L85 57.0019Z"></path>
<path stroke-linejoin="round" stroke-linecap="round" stroke="black" d="M85 73.0019L99 81L99 65L85 73.0019Z"></path>
<path stroke-linejoin="round" stroke-linecap="round" stroke="black" d="M85 89.0019L99 97L99 81L85 89.0019Z"></path>
<path stroke-linejoin="round" stroke-linecap="round" stroke="black" d="M85 105.002L99 113L99 97L85 105.002Z"></path>
<path stroke-linejoin="round" stroke-linecap="round" stroke="black" d="M85 121.002L99 129L99 113L85 121.002Z"></path>
<path stroke-linejoin="round" stroke-linecap="round" stroke="black" d="M85 137.002L99 145L99 129L85 137.002Z"></path>
<path stroke-linejoin="round" stroke-linecap="round" stroke="black" d="M113 24.9981L99 17L99 33L113 24.9981Z"></path>
<path stroke-linejoin="round" stroke-linecap="round" stroke="black" d="M29 41.0019L43 49L43 33L29 41.0019Z"></path>
<path stroke-linejoin="round" stroke-linecap="round" stroke="black" d="M29 57.0019L43 65L43 49L29 57.0019Z"></path>
<path stroke-linejoin="round" stroke-linecap="round" stroke="black" d="M29 73.0019L43 81L43 65L29 73.0019Z"></path>
<path stroke-linejoin="round" stroke-linecap="round" stroke="black" d="M29 89.0019L43 97L43 81L29 89.0019Z"></path>
<path stroke-linejoin="round" stroke-linecap="round" stroke="black" d="M29 105.002L43 113L43 97L29 105.002Z"></path>
<path stroke-linejoin="round" stroke-linecap="round" stroke="black" d="M29 105.002L43 113L43 97L29 105.002Z"></path>
<path stroke-linejoin="round" stroke-linecap="round" stroke="black" d="M29 121.002L43 129L43 113L29 121.002Z"></path>
<path stroke-linejoin="round" stroke-linecap="round" stroke="black" d="M29 137.002L43 145L43 129L29 137.002Z"></path>
<path stroke-linejoin="round" stroke-linecap="round" stroke="black" d="M57 57.0019L71 65L71 49L57 57.0019Z"></path>
<path stroke-linejoin="round" stroke-linecap="round" stroke="black" d="M57 73.0019L71 81L71 65L57 73.0019Z"></path>
<path stroke-linejoin="round" stroke-linecap="round" stroke="black" d="M57 89.0019L71 97L71 81L57 89.0019Z"></path>
<path stroke-linejoin="round" stroke-linecap="round" stroke="black" d="M57 105.002L71 113L71 97L57 105.002Z"></path>
<path stroke-linejoin="round" stroke-linecap="round" stroke="black" d="M57 121.002L71 129L71 113L57 121.002Z"></path>
<path stroke-linejoin="round" stroke-linecap="round" stroke="black" d="M57 137.002L71 145L71 129L57 137.002Z"></path>
<path stroke-linejoin="round" stroke-linecap="round" stroke="black" d="M57 153.002L71 161L71 145L57 153.002Z"></path>
<path stroke-linejoin="round" stroke-linecap="round" stroke="black" d="M71 17.0019L85 25L85 9L71 17.0019Z"></path>
<path stroke-linejoin="round" stroke-linecap="round" stroke="black" d="M71 33.0019L85 41L85 25L71 33.0019Z"></path>
<path stroke-linejoin="round" stroke-linecap="round" stroke="black" d="M71 49.0019L85 57L85 41L71 49.0019Z"></path>
<path stroke-linejoin="round" stroke-linecap="round" stroke="black" d="M71 65.0019L85 73L85 57L71 65.0019Z"></path>
<path stroke-linejoin="round" stroke-linecap="round" stroke="black" d="M71 81.0019L85 89L85 73L71 81.0019Z"></path>
<path stroke-linejoin="round" stroke-linecap="round" stroke="black" d="M71 97.0019L85 105L85 89L71 97.0019Z"></path>
<path stroke-linejoin="round" stroke-linecap="round" stroke="black" d="M71 113.002L85 121L85 105L71 113.002Z"></path>
<path stroke-linejoin="round" stroke-linecap="round" stroke="black" d="M71 129.002L85 137L85 121L71 129.002Z"></path>
<path stroke-linejoin="round" stroke-linecap="round" stroke="black" d="M71 145.002L85 153L85 137L71 145.002Z"></path>
<path stroke-linejoin="round" stroke-linecap="round" stroke="black" d="M43 17.0019L57 25L57 9L43 17.0019Z"></path>
<path stroke-linejoin="round" stroke-linecap="round" stroke="black" d="M43 33.0019L57 41L57 25L43 33.0019Z"></path>
<path stroke-linejoin="round" stroke-linecap="round" stroke="black" d="M43 49.0019L57 57L57 41L43 49.0019Z"></path>
<path stroke-linejoin="round" stroke-linecap="round" stroke="black" d="M43 65.0019L57 73L57 57L43 65.0019Z"></path>
<path stroke-linejoin="round" stroke-linecap="round" stroke="black" d="M43 81.0019L57 89L57 73L43 81.0019Z"></path>
<path stroke-linejoin="round" stroke-linecap="round" stroke="black" d="M43 97.0019L57 105L57 89L43 97.0019Z"></path>
<path stroke-linejoin="round" stroke-linecap="round" stroke="black" d="M43 113.002L57 121L57 105L43 113.002Z"></path>
<path stroke-linejoin="round" stroke-linecap="round" stroke="black" d="M43 129.002L57 137L57 121L43 129.002Z"></path>
<path stroke-linejoin="round" stroke-linecap="round" stroke="black" d="M43 145.002L57 153L57 137L43 145.002Z"></path>
</g>
<path stroke-linejoin="round" stroke-width="2" stroke="url(#paint0_linear_1_552)" d="M113 41V57L99 65M113 41L99 49M113 41L71 17L29 41M99 49V65M99 49L71 33M99 65L71 49M71 49L43 65M71 49V33M43 65V49M43 65L29 57V41M43 49L71 33M43 49L29 41"></path>
<path stroke-linejoin="round" stroke-width="2" stroke="url(#paint1_linear_1_552)" d="M113 73V89L99 97M113 73L99 81M113 73L71 49L29 73M99 81V97M99 81L71 65M99 97L71 81M71 81L43 97M71 81V65M43 97V81M43 97L29 89V73M43 81L71 65M43 81L29 73"></path>
<path stroke-linejoin="round" stroke-width="2" stroke="url(#paint2_linear_1_552)" d="M113 105V121L99 129M113 105L99 113M113 105L71 81L29 105M99 113V129M99 113L71 97M99 129L71 113M71 113L43 129M71 113V97M43 129V113M43 129L29 121V105M43 113L71 97M43 113L29 105"></path>
<defs>
<linearGradient gradientUnits="userSpaceOnUse" y2="41" x2="113" y1="41" x1="29" id="paint0_linear_1_552">
<stop stop-color="#6B1C96"></stop>
<stop stop-color="#D90036" offset="0.5"></stop>
<stop stop-color="#FFCA0B" offset="1"></stop>
</linearGradient>
<linearGradient gradientUnits="userSpaceOnUse" y2="73" x2="113" y1="73" x1="29" id="paint1_linear_1_552">
<stop stop-color="#6B1C96"></stop>
<stop stop-color="#D90036" offset="0.5"></stop>
<stop stop-color="#FFCA0B" offset="1"></stop>
</linearGradient>
<linearGradient gradientUnits="userSpaceOnUse" y2="105" x2="113" y1="105" x1="29" id="paint2_linear_1_552">
<stop stop-color="#6B1C96"></stop>
<stop stop-color="#D90036" offset="0.5"></stop>
<stop stop-color="#FFCA0B" offset="1"></stop>
</linearGradient>
</defs>
</svg>
